<?xml version="1.0" encoding="UTF-8"?>
<svg xmlns="http://www.w3.org/2000/svg" viewBox="0 0 968.99 651.37">
  <defs>
    <style>
      .cls-1 {
        fill: none;
        stroke: #231f20;
        stroke-linecap: round;
        stroke-miterlimit: 10;
        stroke-width: 4px;
      }

      .cls-2 {
        fill: #bcbec0;
      }
    </style>
  </defs>
  <g id="Layer_2" data-name="Layer 2">
    <path class="cls-2" d="m203.17,651.32c6.49,0,13.01.2,19.5-.18,6.11-.36,12.17-1.24,18.26-1.82,21.3-2.06,42.45-5.14,63.66-8.03-8.86,1.19-17.72,2.38-26.58,3.57,6.87-.91,13.74-1.65,20.67-1.96,15.42-.68,29.84-2.84,45.41-4.94-8.86,1.19-17.72,2.38-26.58,3.57,22.76-2.95,45.77-4.3,68.65-6.09,31.34-2.45,62.26-6.04,93.44-10.25l-26.58,3.57c13.7-1.83,27.41-2.1,41.17-3.19,13.37-1.06,26.78-2.8,40.09-4.47,14.98-1.88,29.94-3.7,44.75-6.61,6.4-1.26,12.79-2.6,19.23-3.7,13.57-2.31,27.01-5.42,40.65-7.28l-26.58,3.57c5.34-.69,10.68-.89,16.03-1.36,13.76-1.22,27.38-3.41,40.88-6.23,10.61-2.22,21.4-3.61,32.13-5.12l-26.58,3.57c8.77-1.18,17.63-1.3,26.43-2.19,3.94-.4,7.86-.67,11.82-.76,12.77-.27,25.36-3.27,37.98-5l-26.58,3.57c6.84-.52,13.74-.11,20.59-.24s13.28-.87,19.94-.99c21.67-.38,43.59-5.12,64.87-9.45,6.59-1.34,13.11-3.1,19.67-4.59s12.39-3.87,18.67-5.87c13.9-4.42,26.89-9.31,40.3-15.8,2.31-1.12,4.64-2.29,6.87-3.57,17.87-10.19,28.82-22.38,39.96-39.31,9.05-15.6,13.6-32.42,13.65-50.47.52-13.77-2.35-26.61-8.61-38.53-4.03-12.4-10.93-23.13-20.68-32.18-12.48-12.39-27.19-20.97-44.13-25.72-5.15-1.9-10.5-2.75-15.89-3.62-5.09-.82-10.07-2.03-15.11-3.1-19.74-4.19-39.66-4.79-59.62-6.68-23.16-2.2-46.23-5.52-69.29-8.59l26.58,3.57c-20.67-2.8-41.26-6.26-61.87-9.53-18.36-2.91-36.69-5.99-55.19-7.84-10.49-1.05-21.02-1.54-31.51-2.59s-20.66-2.38-31.04-3.14-20.88-.66-31.32-.95c-21.15-.59-42.24-1.78-63.34-3.33-42.18-3.09-84.53-1.79-126.79-1.79-21.25,0-42.51,0-63.76,0-10.58,0-21.16,0-31.74,0s-20.94-.85-31.21.25c-5.64.6-11.14,1.29-16.83,1.34s-11.78-.14-17.66-.05c-11.6.18-23.1,1.34-34.73,1.27s-22.9.03-34.35-.09c-5.87-.06-11.73.04-17.59.42-21.88,1.41-44.96,2.45-63.65,15.75l-20.24,15.64c-5.21,6.75-10.42,13.49-15.64,20.24-3.36,7.96-6.72,15.93-10.08,23.89-4.17,13.29-4.76,26.58-1.79,39.88.03,9.03,2.3,17.44,6.83,25.24,2.38,8.47,6.66,15.82,12.86,22.06,4.45,7.51,10.42,13.49,17.94,17.94,9.66,8.84,20.99,14.81,34.01,17.9,4.82,1.41,11.52,1.76,15.38,2.28,4.57.61,10.46,1.83,15.62,1.94,2.02.04,4.03-.2,6.04-.3,4.52-.23,9.04-.17,13.56-.47,18.03-1.2,35.79-3.73,53.72-6.23l-26.58,3.57c8.6-1.15,17.28-1.65,25.89-2.77,17.12-2.24,34.19-4.56,51.23-7.31,17.58-2.84,35.17-6.13,52.81-8.51l-26.58,3.57c32.44-4.15,65.31-6.71,97.43-13.12,11.71-2.34,23.34-5.31,35.02-7.87,5.75-1.26,11.51-2.23,17.31-3.28,6.17-1.12,12.21-2.87,18.43-3.76l-26.58,3.57c17.28-2.02,34.23-3.45,51.56-6.07,8.66-1.31,17.12-3.53,25.81-4.71-8.86,1.19-17.72,2.38-26.58,3.57,47.98-6.29,95.88-12.52,143.6-20.57,19.66-3.32,39.23-6.69,58.6-11.48,18.98-4.7,38.24-8.58,57.09-13.78,10.32-2.85,20.16-6.79,30.06-10.81,4.14-1.68,8.35-3.02,12.58-4.44,10.02-3.36,20.39-8.08,29.6-12.18,2.09-.93,4.08-1.92,5.97-3.21,6.75-5.21,13.49-10.42,20.24-15.64,9.75-9.06,16.64-19.79,20.68-32.18,4.52-7.8,6.8-16.21,6.83-25.24,2.98-13.29,2.38-26.58-1.79-39.88l-10.08-23.89-15.64-20.24c-9.06-9.75-19.79-16.64-32.18-20.68-11.92-6.26-24.76-9.13-38.53-8.61-2.31.09-4.54,0-6.83-.28l26.58,3.57c-5.94-.91-11.69-2.73-17.56-3.94-6.41-1.31-12.83-2.54-19.27-3.72-13.13-2.41-26.3-4.59-39.5-6.61-34.53-5.29-69.2-9.54-103.81-14.19l26.58,3.57c-32.75-4.4-65.48-9.06-98.32-12.79-24.18-2.74-48.39-4.01-72.68-5.31-11.58-.62-23.15-.08-34.72-.64s-23.92-1.36-35.88-2.08c-24.02-1.44-48.1-2.68-72.16-3.19-13.59-.29-27.11.07-40.65,1.18-5.59.46-11.18,1.18-16.78,1.38-10.81.39-22.02,1.59-32.35,4.07-20.69,4.97-31.75,14.34-47.76,27.29-5.21,6.75-10.42,13.49-15.64,20.24-7.31,11.48-11.26,23.87-11.87,37.18-2.38,8.86-2.38,17.72,0,26.58.6,13.31,4.56,25.7,11.87,37.18,5.21,6.75,10.42,13.49,15.64,20.24,6.75,5.21,13.49,10.42,20.24,15.64,11.48,7.31,23.87,11.26,37.18,11.87,13.29,2.98,26.58,2.38,39.88-1.79,12.97-2.79,25.3-7.59,37.69-12.22,6.25-2.33,12.55-4.33,18.9-6.36,3.2-1.02,6.32-2.23,9.42-3.51,8.75-3.62,18.02-6.97,26.39-11.37,1.64-.86,3.24-1.7,4.95-2.43l-23.89,10.08c3.45-1.35,7.03-2.23,10.59-3.23,10.8-3.02,22.13-8.22,31.7-12.72,6.46-3.04,12.65-6.65,19.18-9.54l-23.89,10.08c3.81-1.47,7.81-1.82,11.7-2.96,1.87-.54,3.66-1.25,5.46-1.97,9.55-3.86,19.53-7.39,28.56-12.45l-23.89,10.08c24.39-9.9,49.23-18.64,73.68-28.41,31.73-12.68,62.58-27.23,94.01-40.57l-23.89,10.08c19.11-8.06,38.06-16.46,57.15-24.57l-23.89,10.08c14.58-6.12,29.72-10.84,44.94-15.08s30.08-8.3,45.35-10.44l-26.58,3.57c12.12-1.5,24.23-3.13,36.31-4.87l-26.58,3.57c5.32-.65,10.76-.38,16.11-.63,5.73-.27,11.45-.71,17.16-1.23,13.77.52,26.61-2.35,38.53-8.61,12.4-4.03,23.13-10.93,32.18-20.68l15.64-20.24c7.31-11.48,11.26-23.87,11.87-37.18,2.38-8.86,2.38-17.72,0-26.58-.6-13.31-4.56-25.7-11.87-37.18l-15.64-20.24c-12.48-12.39-27.19-20.97-44.13-25.72-9.72-3.8-19.91-5.95-30.09-8.11-18.57-3.94-37.39-5.25-56.23-6.73-11.04-.87-22.08-1.78-33.12-2.62s-21.86-2.56-32.68-2.33c-4.98.11-9.91.9-14.89,1.14-6.04.28-12.13.15-18.17.08-4.93-.05-9.76-.85-14.67-1.28-5.73-.5-11.49-.3-17.23-.2-21.94.38-43.92-.3-65.85-1.02-25.12-.83-50.23-2-75.34-3.04-13.77-.52-26.61,2.35-38.53,8.61-12.4,4.03-23.13,10.93-32.18,20.68-9.75,9.06-16.64,19.79-20.68,32.18-6.26,11.92-9.13,24.76-8.61,38.53l3.57,26.58c4.75,16.94,13.32,31.65,25.72,44.13,6.75,5.21,13.49,10.42,20.24,15.64,15.6,9.05,32.42,13.6,50.47,13.65,38.81,1.61,77.62,3.53,116.46,4.01,9.44.12,18.87.14,28.31-.02,4.55-.07,9.11-.13,13.65.27,4.9.43,9.73,1.22,14.67,1.28,9.6.1,19.03-.18,28.6-.96s18.76.71,28.1,1.39c10.54.77,21.08,1.62,31.62,2.46s21.34,1.2,31.91,2.48l-26.58-3.57c12.87,1.77,26.26,4.9,38.36,9.63,8.86-65.48,17.72-130.95,26.58-196.43-6.96.64-13.92,1.15-20.91,1.38-14.66.48-28.84,2.55-43.47,4.74l26.58-3.57c-13.57,1.81-27.29,2.96-40.7,5.74-5.3,1.1-10.58,2.35-15.85,3.59-10.93,2.57-21.77,5.5-32.52,8.76-29.22,8.88-56.66,22.03-84.73,33.91l23.89-10.08c-28.96,12.1-57.44,25.21-86.32,37.46l23.89-10.08c-38.21,16.11-77.57,29.08-115.35,46.24l23.89-10.08c-3.19,1.34-6.45,2.37-9.86,3.02-11.06,2.11-20.75,7.07-31.2,11.99-6.46,3.04-12.69,6.56-19.18,9.54l23.89-10.08c-4.47,1.86-9.15,2.92-13.78,4.29-12.59,3.72-24.05,10.18-35.96,15.39l23.89-10.08c-10.71,4.51-22.07,7.52-32.96,11.61s-21.71,8.03-33.05,10.48c32.43,55.71,64.86,111.43,97.29,167.14l.55-.44c-6.75,5.21-13.49,10.42-20.24,15.64l.65-.37-23.89,10.08c1.1-.46,2.19-.71,3.36-.91l-26.58,3.57c9.1-1.11,18.45-1.54,27.61-2.18,11.05-.78,22.09-.96,33.16-.76,22.06.42,44.16,1.51,66.19,2.78,10.96.63,21.92,1.35,32.89,1.97,10.6.6,21.09.57,31.71.65,10.98.08,21.99.98,32.95,1.55,10.99.58,21.97,1.22,32.93,2.19,25.21,2.24,50.33,5.73,75.41,9.1l-26.58-3.57c27.42,3.69,54.84,7.29,82.26,10.97l-26.58-3.57c20.97,2.82,41.92,5.87,62.78,9.43,10.17,1.74,20.33,3.6,30.45,5.61,18.06,3.6,35.99,9.3,54.68,8.54-16.82-62.12-33.65-124.23-50.47-186.35-1.89,1.29-3.88,2.3-5.97,3.21,7.96-3.36,15.93-6.72,23.89-10.08-6.45,2.63-13.17,4.47-19.63,7.09-7.63,3.1-15.24,6.22-23.12,8.64-15.66,4.79-31.84,7.72-47.72,11.66-16,3.97-31.93,8.04-48.17,10.87s-33.83,5.82-50.78,8.55c-18.93,3.05-37.88,5.9-56.88,8.47,8.86-1.19,17.72-2.38,26.58-3.57-10.63,1.43-21.29,2.64-31.93,3.97-13.5,1.69-27.17,3.11-40.56,5.72-5.14,1-10.17,2.28-15.36,3.03l26.58-3.57c-19.8,2.64-39.75,3.15-59.36,7.57-11.48,2.59-23.08,4.57-34.6,7.01s-23.05,5.64-34.75,7.57-23.53,3.56-35.31,5.16l26.58-3.57c-8.96,1.19-17.97,1.84-26.94,2.92-17.42,2.09-34.64,4.69-51.9,7.68s-34.76,5.75-52.18,8.14l26.58-3.57c-6,.81-12.01,1.52-18.05,2.01-14.41,1.17-28.68,3.58-42.99,5.53l26.58-3.57c-7.37.95-14.87,1.38-22.29,1.8-6.37.36-13.3,1.09-19.65.48,8.86,1.19,17.72,2.38,26.58,3.57-.71-.09-1.41-.25-2.09-.49,7.96,60.92,15.93,121.85,23.89,182.77.6-.51,1.27-.9,2.01-1.18l-23.89,10.08,1.12-.3-26.58,3.57c17.39-1.46,34.91-1.02,52.36-1.01,8.89,0,17.78.25,26.66-.17,8.88-.42,17.62-1.12,26.53-1.03s17.04-.37,25.66-1.3,17.83-.25,26.68-.25c18.16,0,36.32,0,54.48,0,36.08,0,72.17.14,108.25-.15,17.84-.14,35.64.02,53.45,1.19,18.17,1.19,36.3,2.64,54.5,3.39,19.88.83,39.86.46,59.68,2.41,10.12,1,20.21,2.28,30.35,3.11,10.18.83,20.38,1.35,30.51,2.7-8.86-1.19-17.72-2.38-26.58-3.57,15,2.1,29.96,4.7,44.92,7.11,23.33,3.75,46.68,7.08,70.12,10.09,15.14,1.94,30.27,4.08,45.43,5.89,7.46.89,14.93,1.7,22.42,2.37,7.88.7,15.87.77,23.71,1.75l-26.58-3.57c6.29.95,12.41,2.74,18.69,3.79,6.06,1.02,12.12,1.82,17.91,3.95-19.92-48.97-39.84-97.93-59.76-146.9l-.46.69c5.21-6.75,10.42-13.49,15.64-20.24-.41.49-.87.92-1.38,1.3,6.75-5.21,13.49-10.42,20.24-15.64-3.68,2.59-8.03,4.6-12.15,6.38l23.89-10.08c-6.25,2.55-12.87,4.01-19.18,6.42s-13.11,3.77-19.8,5.36c-13.64,3.24-27.51,6.39-41.4,8.4l26.58-3.57c-4.58.56-9.17.45-13.76.6-5.04.17-10.04.76-15.08.88s-9.85,0-14.78.04c-13.34.12-26.59,2.74-39.72,4.94l26.58-3.57c-3.64.44-7.34.27-11,.51-3.84.25-7.66.74-11.5,1.02-15.92,1.14-31.15,3.02-47.14,5.26-7.34,1.03-14.68,2.04-21.99,3.26-7.69,1.28-15.27,3.28-22.99,4.36l26.58-3.57c-3.87.44-7.76.49-11.64.86-12.55,1.2-25.08,3.02-37.53,4.99-8.05,1.27-16.02,2.95-24.01,4.49-15.73,3.01-31.55,6.41-47.42,8.59l26.58-3.57c-15.49,2.03-31.16,4.03-46.76,5.03-7.6.49-15.22.6-22.81,1.28-16.25,1.46-32.39,4.13-48.56,6.31,8.86-1.19,17.72-2.38,26.58-3.57-21.54,2.85-43.26,4.34-64.91,6.02-30.12,2.34-59.92,5.28-89.88,9.33l26.58-3.57c-9.15,1.18-18.4.97-27.58,1.88-17.86,1.78-35.59,4.68-53.37,7.12l26.58-3.57c-19.43,2.61-38.89,4.16-58.48,4.16-13.77-.52-26.61,2.35-38.53,8.61-12.4,4.03-23.13,10.93-32.18,20.68-9.75,9.06-16.64,19.79-20.68,32.18-6.26,11.92-9.13,24.76-8.61,38.53l3.57,26.58c4.75,16.94,13.32,31.65,25.72,44.13,6.75,5.21,13.49,10.42,20.24,15.64,15.6,9.05,32.42,13.6,50.47,13.65h0Z"/>
  </g>
  <g id="Layer_1" data-name="Layer 1">
    <path class="cls-1" d="m277.46,603.6c.44,4.52,36.25-.17,39.26-.35,19.58-1.16,39.12-2.02,58.65-3.92,23.94-2.33,47.63-6.19,71.47-9.28,31.88-4.14,64.01-4.77,96.04-7.08,22.5-1.62,45.08-3.17,67.52-5.54,12.67-1.34,25.88-2.17,38.42-4.02,4.33-.64,8.47-1.96,12.87-2.48,14.54-1.72,29.25-1.32,43.8-2.99,14.24-1.63,28.05-5.13,42.35-5.53,4.62-.13,9.01-1.38,13.63-1.48,3.65-.08,7.32.03,10.97.03,5.14,0,10.28-.03,15.42,0,6.76.04,8.71-1.78,13.64-6.71,4.65-4.65,9.51-9.03,13.26-14.47s6.26-11.37,9.01-17.4c3.53-7.76,7.46-15.33,10.85-23.15,4.73-10.91,10.24-22.15,12.62-33.87,2.16-10.64,2.93-21.72,3.68-32.53.52-7.51.15-13.55-1.75-20.75-3.08-11.71-5.24-24.43-10.29-35.49-4.07-8.92-11.51-16.61-20.69-20.5-3.44-1.46-6.88-2.79-10.3-4.31-7.68-3.42-19.09-3.95-27.07-5.15-13.52-2.04-27.46-2.89-41.13-3.09-5.25-.08-14.45-1.71-19.35.4.84,3.32,16.91-12,18.32-14.01,2.43-3.47,5.77-6.31,7.65-10.17,3.73-7.63,6.64-16.93,8.5-25.21,4.72-21.01,2.2-41.71-.29-62.79-1.11-9.39-1.08-18.95-3.16-28.2-1.68-7.46-3.71-15.01-5.54-22.41-3.12-12.66-9.4-21.26-20.67-28.02-2.8-1.68-5.81-2.38-8.91-3.45-13.51-4.68-27.94-6.7-41.85-9.86-8.5-1.93-16.45-2.64-25.16-2.59-11.67.07-23.45-.54-35.1.29-15.25,1.08-30.33,5.1-43.77,12.38-2.12-1.48-.2-6.85-.05-9.18.38-5.71.38-11.42.2-17.14-.36-11.2-3.44-19.81-10.44-28.35-8.9-10.84-23.15-15.53-35.6-21.01-9.73-4.28-19.51-8.63-29.52-12.23-9.45-3.39-19.1-5.37-28.68-8.21-2.36-.7-4.56-1.69-6.91-2.39-6.03-1.8-14.76-1.82-20.37-2.22-17.78-1.26-36.02-2.36-53.85-1.27-6.99.43-9.7,2.04-12.98,8.24-4.68,8.83-7.99,18.93-9.15,28.86-10.23.38-20.54-.16-30.77-.18-29.13-.08-59.25,2.68-87.37,10.6-22.34,6.3-40.58,19.22-51.82,39.74-5.56,10.14-9.35,18.6-10.78,30.13-1.81,14.56-.28,29.15,8.62,41.33s23.11,19.3,35.88,25.49c2.98,1.44,21.42,6.62,21.64,9.52-26.12,1.27-51.5,16.23-71.36,32.45-15.82,12.92-30.48,28-42.4,44.6-8.68,12.09-15.05,25.33-20.86,38.99-3.62,8.51-5.35,16.23-5.77,25.38-.31,4.73-.19,9.45.36,14.14,2,4.14,4.97,7.45,8.93,9.93,16.31,12.28,37.48,18.52,57.9,17.57-4.73.67-9.22,2.75-13.49,4.72-7.86,4-15.53,8.32-23.02,12.98-8.72,4.94-17.04,10.49-24.97,16.65-21.16,17.98-37.08,40.04-49.14,64.89-3.67,7.56-8.25,17.91-8.69,26.75-.27,5.52,4.82,11.85,7.7,15.73,4.24,5.71,8.74,11.29,14.04,16.06,9.28,8.34,20.84,13.85,31.98,19.26,17.38,8.44,36.65,13.35,55.64,16.75,16.93,3.03,34.86,6.57,52.08,7.06,14.34.4,29.05,2.22,43.4,1.57,15.21-.68,29.44-5.75,42.88-12.47"/>
    <path class="cls-1" d="m446.68,512.8c23.83,2.39,47.52,2.62,71.45,2.77,26.6.17,54.47-2.24,77.38-17.39,9.28-6.14,17.47-14.22,22.8-24.03,4.17-7.67,4.71-16.91,8.6-24.64"/>
    <path class="cls-1" d="m453.56,325.69c-2.89-.81-1.38-10.82-1.38-13.23.01-7.35-.02-14.7,0-22.05.02-8.33.11-15.89-2.06-23.96-.99-3.68-1.2-8-4.81-9.67-9.36-4.33-21.48,1.01-30.51,3.57-7.58,2.15-10.91,6.69-12.55,14.61-2.89,13.94,1.53,26.83,5.86,39.98,1.16,3.54,2.32,6.84,4.42,9.95s5.26,5.22,6.92,8.53c1.38,2.74,1.42,5.91,2.47,8.81.86,2.34,1.14,4.46,1.68,6.85.78,3.42,1.41,5.35,5.12,5.57,5.46.32,6.7-1.19,10.46-4.68,2.14-1.98,5.23-2.9,7.19-5.19,5.15-6,5.93-14.43,7.19-19.1Z"/>
    <path class="cls-1" d="m606.28,284.42c-2.98-1-6.15-6.55-8.3-8.9-5.07-5.57-10.48-7.44-17.29-10.04-5.63-2.15-13.61-6.47-19.76-4.24-1.57.57-3.42,2.28-4.87,3.18-3.71,2.31-6.29,4.66-8.98,8.1-6.1,7.78-10.57,15.85-12.42,25.53-1.22,6.39-1.61,12.78-1.43,19.28s4.7,14.37,8.73,19.63c4.55,5.94,11.05,9.1,17.84,12.14,5.65,2.54,12.47,4.01,18.65,4.09,3.37.04,4.84-.07,7.22-2.73,3.07-3.43,5.48-7.52,8.17-11.23,3.46-4.79,4.42-9.73,5.21-15.45,1.71-12.31,3.22-24.11,7.22-39.38Z"/>
  </g>
</svg>