<?xml version="1.0" encoding="UTF-8"?>
<svg xmlns="http://www.w3.org/2000/svg" viewBox="0 0 878.42 830.95">
  <defs>
    <style>
      .cls-1 {
        fill: #a7a9ac;
      }

      .cls-2 {
        fill: #65c8d0;
      }

      .cls-3 {
        fill: none;
        stroke: #231f20;
        stroke-miterlimit: 10;
        stroke-width: 4px;
      }
    </style>
  </defs>
  <g id="Layer_2" data-name="Layer 2">
    <path class="cls-2" d="m203.25,576.17c.7.35,1.39.66,2.11.98,6.53,2.86,13.75,6.13,20.43,8.6,1.34.5,2.71.92,4.08,1.32,2.63.76,5.26,1.48,7.79,2.53l-19.71-8.32c13.93,6.3,27.71,12.96,42.12,18.13,7.93,2.85,16.08,5.02,24.26,7.03s16.42,3.86,24.55,6.07c8.26,2.24,16.49,4.17,24.96,5.48,16.6,2.58,33.3,4.42,49.95,6.65-7.31-.98-14.62-1.96-21.93-2.95,14.88,2.02,29.75,4.14,44.64,6.14l-21.93-2.95c19.18,2.58,38.22,6.52,57.57,7.59,12.2.67,24.26,1.43,36.37,3.06l-21.93-2.95c20.74,2.8,41.39,5.91,62.26,7.44,13.74,1.01,27.57,1.8,41.24,3.59-7.31-.98-14.62-1.96-21.93-2.95,11.19,1.63,22.29,4,33.61,4.6,4.28.23,8.57.29,12.85.45,8.27.33,16.46,1.05,24.68,1.89s16.23,1.03,24.32,1.88,16.72,1.15,25.02,2.25c-7.31-.98-14.62-1.96-21.93-2.95,7.4,1.05,14.57,3.22,21.93,4.51,8.77,1.54,17.08,2.67,25.75,3.24,2.19.14,4.37.31,6.55.6-7.31-.98-14.62-1.96-21.93-2.95,1.84.26,3.68.57,5.42,1.25-6.57-2.77-13.14-5.54-19.71-8.32.48.21.93.44,1.35.76-5.57-4.3-11.13-8.6-16.7-12.9.13.11.26.23.37.35-4.3-5.57-8.6-11.13-12.9-16.7.1.12.19.25.26.39l-8.32-19.71c.07.13.11.27.14.42l37.91-93.17c-.47.27-.96.51-1.45.74l19.71-8.32c-2.7,1.14-5.51,1.65-8.4,2.05,7.31-.98,14.62-1.96,21.93-2.95-11.3,1.49-23.26,2.22-34.36,5.49-4.38,1.29-8.66,2.87-12.92,4.48-8.55,3.23-17.11,6.5-25.83,9.24s-18.16,4.21-27.2,6.52-18.2,5.11-27.43,7.16c-4.98,1.1-9.98,2.09-14.91,3.38s-10.04,3.38-15.34,4.12l21.93-2.95c-14.33,1.8-28.83,2.65-42.86,6.26-7.4,1.9-14.74,3.41-22.31,4.44l21.93-2.95c-17.47,2.33-34.97,4.28-52.44,6.64,7.31-.98,14.62-1.96,21.93-2.95-7.07.92-14.22.89-21.34,1.08-7.19.19-14.37.38-21.56.57-14.68.39-29.37.76-44.04,1.39s-29.37,1.42-44.06,1.93c-14.73.51-29.46.74-44.18,1.38-16.33.7-32.89.91-49.1,3.07-11.36-.43-21.95,1.94-31.79,7.11-10.23,3.33-19.08,9.01-26.55,17.06l-12.9,16.7c-7.46,12.87-11.22,26.75-11.26,41.64,1.01,16.93,3.14,28.68,11.76,43.48,3.93,6.74,8.72,13.23,14.5,18.49,13.44,12.24,24.36,18.33,41.9,23.83,2.38.75,4.83,1.24,7.29,1.64,9.34,1.52,18.75,2.71,28.16,3.77,8.34.94,16.65.6,25.02.43,9.43-.2,18.75.51,28.09,1.74-7.31-.98-14.62-1.96-21.93-2.95,21.31,2.86,42.48,6.91,63.93,8.74,14.51,1.24,29.02,2,43.51,3.54,28.86,3.05,57.86,4.44,86.74,7.28,16.35,1.61,32.68,3.48,48.97,5.66-7.31-.98-14.62-1.96-21.93-2.95,15.25,2.05,30.47,4.26,45.77,5.81,8.24.83,16.49,1.61,24.7,2.69-7.31-.98-14.62-1.96-21.93-2.95,4.51.61,8.98,1.35,13.45,2.21,8.93,1.72,19.12,3.41,27.52,3.9,2.02.12,4.06-.09,6.08.18l-21.93-2.95c.49.09.96.23,1.41.44l-57.62-57.62c.11.35.19.71.23,1.08-.98-7.31-1.96-14.62-2.95-21.93.03.34.03.68-.01,1.02.98-7.31,1.96-14.62,2.95-21.93-.09.52-.22.94-.41,1.43,2.77-6.57,5.54-13.14,8.32-19.71-.24.47-.49.88-.79,1.32,4.3-5.57,8.6-11.13,12.9-16.7-.7.87-1.48,1.6-2.35,2.31l16.7-12.9c-9.91,7.64-21.49,13.16-32.96,18,6.57-2.77,13.14-5.54,19.71-8.32-18.8,7.83-38.72,12.2-58.47,16.84-10.15,2.39-20.2,5.01-30.52,6.58-10.52,1.6-21.06,2.91-31.56,4.64-12.05,1.99-24.07,4.37-36.17,6.07,7.31-.98,14.62-1.96,21.93-2.95-9.1,1.22-18.27,1.65-27.44,2.07-9.42.44-18.83.96-28.25,1.28-9.49.32-18.99.19-28.48.56s-18.91,1.1-28.35,1.83c-10.64.83-21.29,1.65-31.96,2.03-11.36-.43-21.95,1.94-31.79,7.11-10.23,3.33-19.08,9.01-26.55,17.06-8.05,7.47-13.73,16.32-17.06,26.55-5.17,9.83-7.53,20.43-7.11,31.79l2.95,21.93c3.92,13.98,10.99,26.11,21.22,36.4l16.7,12.9c12.87,7.46,26.75,11.22,41.64,11.26,25.34-.9,50.51-3.93,75.88-4.14,12.59-.11,25.17-.8,37.75-1.4,19.49-.94,38.52-2.62,57.85-5.97,12.43-2.15,24.87-4.28,37.33-6.3,12.49-2.02,25.13-3.15,37.51-5.8,11.79-2.52,23.52-5.54,35.24-8.37,11.64-2.82,23.25-5.91,34.49-10.07,9.57-3.54,18.92-7.73,28.29-11.75,2.96-1.27,5.89-2.58,8.8-3.97,5.86-2.8,11.61-5.87,17.01-9.49,1.9-1.27,3.82-2.52,5.65-3.9,1.16-.87,13.82-9.42,18.71-14.79,12.12-13.32,16.65-21.1,22.34-38.13,2.6-7.77,3.29-16.2,3.37-24.39l-1.47-10.97c-.45-3.84-.96-7.68-1.56-11.5-1.86-7.08-4.68-13.83-8.46-20.25-7.33-12.4-17.2-22.26-29.6-29.6l-9.85-4.16c-3.47-1.59-6.98-3.06-10.55-4.42-7.59-2.43-15.81-2.73-23.77-3.24-1.66-.11-3.3.1-4.96-.06,7.31.98,14.62,1.96,21.93,2.95-5.05-.72-10.03-1.87-15.08-2.62-12.26-1.8-24.56-3.48-36.89-4.8-10.44-1.12-20.91-2.01-31.32-3.4,7.31.98,14.62,1.96,21.93,2.95-32.79-4.49-65.55-8.61-98.53-11.41-12.95-1.1-25.92-2.05-38.9-2.9-13.02-.85-25.98-2.46-38.97-3.71-14.41-1.38-28.89-1.7-43.25-3.61l21.93,2.95c-22.58-3.07-45.06-7.72-67.85-8.98-7.81-.43-15.62.06-23.43.11-5.69.04-11.32-.36-16.95-1.09,7.31.98,14.62,1.96,21.93,2.95-4.16-.56-8.36-1.28-12.27-2.84l19.71,8.32c-1.16-.49-2.26-1.06-3.27-1.82l16.7,12.9c-.46-.38-.87-.78-1.25-1.25l12.9,16.7c-.19-.27-.35-.54-.5-.84,2.77,6.57,5.54,13.14,8.32,19.71-.17-.41-.27-.79-.34-1.23l2.95,21.93-.02-.33-82.5,82.5c14.75-1.97,29.75-2.14,44.59-2.86,14.72-.72,29.45-.97,44.18-1.43,29.38-.92,58.73-2.58,88.12-3.36,8.38-.22,16.77-.44,25.15-.66,4.08-.11,8.16-.19,12.24-.33,11.01-.39,21.9-2.37,32.79-3.84-7.31.98-14.62,1.96-21.93,2.95,17.76-2.35,35.55-4.27,53.31-6.76,5.13-.72,10.22-1.56,15.24-2.83s10.32-2.8,15.61-3.58l-21.93,2.95c11.8-1.55,23.7-2.22,35.41-4.52,4.8-.94,9.39-2.89,14.15-4.07,9.6-2.38,19.26-4.32,28.81-6.93,9.72-2.66,19.47-4.84,29.3-7.04s18.88-5.7,28.11-9.08c10.27-3.76,20.38-8.17,31.3-9.64-7.31.98-14.62,1.96-21.93,2.95,8.1-1.06,16.21-2.08,24.29-3.26,1.17-.17,2.33-.35,3.49-.61,1.02-.23,2.04-.51,3.02-.88,3.67-1.37,7.76-3.25,10.96-4.61,3.68-1.55,7.7-2.96,11.31-4.89l16.7-12.9c8.05-7.47,13.73-16.32,17.06-26.55,3.73-6.43,5.61-13.37,5.63-20.82,2.46-10.97,1.96-21.93-1.47-32.9-1.81-7.09-4.6-14.16-8.57-20.33-1.39-2.17-11.48-15.18-13.22-17.07-5.04-5.47-11.45-10.42-18.25-13.83-7.32-3.67-16.19-8.21-24.89-9.54s-18.56-2.88-27.85-3.52c-1.56-.11-3.13-.15-4.68-.35,7.31.98,14.62,1.96,21.93,2.95-6.95-1.09-13.68-3.26-20.64-4.33-10.54-1.61-21.18-3.2-31.83-4-3.74-.28-7.49-.49-11.23-.83-7.38-.68-14.73-1.31-22.12-1.82s-14.9-1.54-22.38-2.01c-8.49-.54-17.13-.21-25.57-1.21l21.93,2.95c-13.52-1.84-26.99-4.15-40.59-5.41-6.58-.61-13.16-1.17-19.74-1.67-13.24-1.01-26.45-1.9-39.62-3.66,7.31.98,14.62,1.96,21.93,2.95-17.31-2.33-34.6-5.21-52.02-6.65-10.38-.86-20.83-.78-31.17-2.14,7.31.98,14.62,1.96,21.93,2.95-4.87-.68-9.7-1.64-14.56-2.35-11.85-1.74-23.74-3.23-35.62-4.82,7.31.98,14.62,1.96,21.93,2.95-19.91-2.68-39.82-5.38-59.73-8.03,7.31.98,14.62,1.96,21.93,2.95-7.63-1.03-15.24-2.22-22.73-3.97s-14.7-3.93-22.09-5.71c-14.75-3.56-29.62-6.87-43.66-12.76l19.71,8.32c-4.94-2.11-9.75-4.47-14.62-6.73-6.53-3.03-13.74-5.93-20.41-8.64-.6-.24-1.2-.49-1.81-.71-1.1-.4-2.22-.74-3.35-1.07-2.5-.73-5.01-1.41-7.44-2.36,6.57,2.77,13.14,5.54,19.71,8.32-.72-.3-1.41-.63-2.11-.98-9.47-6.03-19.69-9.29-30.67-9.79-10.97-2.46-21.93-1.96-32.9,1.47-10.74,2.55-20.09,7.47-28.06,14.77-8.98,5.82-16.06,13.53-21.25,23.15-2.77,6.57-5.54,13.14-8.32,19.71-3.93,14.62-3.93,29.24,0,43.86,2.77,6.57,5.54,13.14,8.32,19.71,7.33,12.4,17.2,22.26,29.6,29.6h0Z"/>
    <path class="cls-1" d="m82.55,500.76c13.29.06,26.63,1.06,39.92,1.47,13.5.41,26.95,1.97,40.41,3.03,13.59,1.07,27.17,2.21,40.73,3.56,13.26,1.32,26.55,1.98,39.77,3.74-7.31-.98-14.62-1.96-21.93-2.95,21.4,2.89,42.83,5.36,64.23,8.21-7.31-.98-14.62-1.96-21.93-2.95,37.33,5.04,74.24,12.67,111.04,20.66,18.19,3.95,36.41,7.77,54.8,10.68s36.68,5.62,54.98,8.66c27.85,4.63,55.83,8,83.8,11.72-7.31-.98-14.62-1.96-21.93-2.95,27.38,3.7,54.5,9.08,81.69,13.87,13.57,2.39,26.58,6.09,39.8,9.88,13.07,3.74,26.4,6.29,39.56,9.65,7.31,1.87,14.61,3.76,22.03,5.13,10.3,1.9,20.73,3.16,31.12,4.33,3.62.41,7.22-.05,10.82.37-7.31-.98-14.62-1.96-21.93-2.95,11.5,1.89,22.98,3.64,34.61,4.26-7.31-.98-14.62-1.96-21.93-2.95,11.25,1.6,22.35,3.63,33.72,4.79,7.31-.98,14.62-1.96,21.93-2.95,10.74-2.55,20.09-7.47,28.06-14.77,6.2-3.67,11.13-8.6,14.8-14.8,7.29-7.97,12.21-17.32,14.77-28.06.98-7.31,1.96-14.62,2.95-21.93-.98-7.31-1.96-14.62-2.95-21.93-2.55-10.74-7.47-20.09-14.77-28.06-5.82-8.98-13.53-16.06-23.15-21.25-21.84-10.22-44.21-19.29-66.42-28.66l19.71,8.32c-6.14-2.59-12.26-5.22-18.38-7.86-12.22-5.28-24.36-9.79-36.59-14.75,6.57,2.77,13.14,5.54,19.71,8.32-14.11-6-28.01-12.97-41.68-19.89-19.4-9.83-39.91-16.75-59.89-25.17,6.57,2.77,13.14,5.54,19.71,8.32-17.09-7.24-33.97-14.91-51.09-22.09-10.8-4.53-21.79-8.59-32.64-13-10.75-4.37-21.42-8.95-32.15-13.38s-21.93-8.44-32.77-12.96c6.57,2.77,13.14,5.54,19.71,8.32-13.67-5.78-27.15-11.91-40.89-17.58-7.75-3.2-15.72-5.85-23.64-8.62s-15.48-5.8-23.34-8.3-16.37-4.96-24.34-8.32l19.71,8.32c-13.2-5.63-26.2-11.89-39.8-16.51-6.99-2.38-14.19-4.06-21.2-6.38s-13.73-5-20.82-6.91-14.79-3.64-22.21-5.36c-15.24-3.52-30.26-7.83-45.34-11.94-7.2-1.96-14.29-4.01-21.63-5.37s-14.78-2.63-22.09-4.38c-8.37-2-16.64-4.36-24.88-6.85-7.78-2.35-16.02-3.98-23.57-6.98,6.57,2.77,13.14,5.54,19.71,8.32-12.9-5.69-25.26-11.92-39.07-14.74-14.98-3.07-30.04-5.11-45.25-6.73l21.93,2.95c-.71-.13-1.39-.35-2.04-.67l19.71,8.32-.94-.55c-6.57,50.26-13.14,100.53-19.71,150.79l1.05-.28-21.93,2.95c3.59-.42,7.4.03,11.02.03,4.58,0,9.16-.02,13.74-.02,8.78,0,17.56,0,26.34,0,17.5,0,34.95.1,52.42,1.18,17.39,1.08,34.72,3.02,52.14,3.64,8.7.31,17.41.47,26.1,1.03s17.18,1.54,25.79,2.05,17.05.41,25.56.83,17.2.9,25.82.91c17.56.02,35.12.05,52.68-.03,35.02-.15,70.12-1.74,104.96-5.41,9.63-1.01,19.22-2.19,28.87-2.96,16.44-1.31,33.02-2.87,49.15-6.29,8.99-1.9,17.4-5.61,26.12-8.4s18.33-4.55,27.61-5.85l-21.93,2.95c4.36-.58,8.73-1,13.13-1.24,14.89-.05,28.77-3.8,41.64-11.26,12.4-7.33,22.26-17.2,29.6-29.6,14.69-25.11,15.27-58.22,0-83.28-4.99-8.19-10.93-16.58-18.44-22.77s-15.78-13.12-24.63-18.11c-5.77-3.25-11.89-5.84-17.61-9.19-8.54-5-16.62-10.83-25.42-15.37-8.24-4.26-16.89-7.61-25.08-12-39.94-21.41-83.86-34.14-125.87-50.66-18.35-7.22-36.84-14.4-55.77-19.95-18.66-5.47-37.44-10.86-56.25-15.79-9.64-2.53-19.51-3.89-29.13-6.46-9.65-2.58-19.45-4.46-29.14-6.89-19.23-4.83-38.31-10.25-57.55-15.05-21.75-5.43-43.32-11.48-64.8-17.86-10.39-3.09-20.45-7.53-30.75-10.96-10.78-3.6-21.61-7.08-32.23-11.13-10.97-3.44-21.93-3.93-32.9-1.47-10.98.5-21.2,3.76-30.67,9.79-9.61,5.18-17.33,12.27-23.15,21.25-7.29,7.97-12.21,17.32-14.77,28.06l-2.95,21.93c.05,14.89,3.8,28.77,11.26,41.64l12.9,16.7c10.29,10.22,22.43,17.3,36.4,21.22,14.03,5.35,28.41,9.68,42.58,14.66,7.24,2.54,14.3,5.7,21.68,7.8,6.93,1.97,13.84,3.94,20.74,6.02,29.14,8.78,58.91,15.45,88.29,23.37,29.26,7.89,59.13,13.06,88.21,21.58,14.24,4.17,28.64,7.75,42.84,12.06s27.85,9.92,41.77,15.03c15.44,5.67,30.93,11.28,46.27,17.22,15.59,6.03,31.46,11.33,46.88,17.81-6.57-2.77-13.14-5.54-19.71-8.32,9.31,3.96,18.12,8.69,27.1,13.31s19.13,8.46,28.14,13.95c7.74,4.71,15.23,9.92,23.34,14.01,6.59,3.32,13.35,6.41,19.3,10.84l-16.7-12.9c1.82,1.42,3.49,2.93,4.96,4.71l-12.9-16.7c.47.63.9,1.25,1.3,1.92,23.75-41.38,47.49-82.76,71.24-124.14-13.52.72-27.03,2.79-40.36,4.98-6.67,1.1-13.39,2.39-19.88,4.3-6.12,1.8-12.03,4.2-18.07,6.22-6.54,2.19-13.17,3.58-19.99,4.53l21.93-2.95c-14.99,1.96-30.16,2.94-45.2,4.55-15.29,1.65-30.64,2.67-45.99,3.63-30.55,1.93-61.1,1.94-91.7,1.95s-60.34-.6-90.36-3.16c-15.06-1.28-30.16-1.25-45.23-2.16s-30.69-2.57-46.07-3.42c-17.22-.96-34.43-.89-51.67-.89-8.31,0-16.62,0-24.93,0-15.15.03-30.06-.84-44.99,3.22-6.57,2.77-13.14,5.54-19.71,8.32l-16.7,12.9-12.9,16.7c-6.03,9.47-9.29,19.69-9.79,30.67-1.96,7.31-1.96,14.62,0,21.93.02,7.45,1.9,14.39,5.63,20.82,1.96,6.99,5.5,13.06,10.61,18.2,5.82,8.98,13.53,16.06,23.15,21.25l.94.55,19.71,8.32c4.49,1.48,6.59,1.28,13,2.14,5.41.73,10.57,1.21,15.88,1.9l-21.93-2.95c10.72,1.49,22.31,3.12,32.37,7.24l-19.71-8.32c9.08,3.99,18.01,8.48,27.4,11.72,3.46,1.19,7.05,1.92,10.57,2.88,7.08,1.93,14.06,4.3,21.12,6.29s14.4,3.9,21.69,5.42,14.67,2.54,21.93,4.18c14.87,3.36,29.44,8.22,44.18,12.08,14.24,3.73,28.79,6.32,42.89,10.57,7.86,2.37,15.44,5.5,23.33,7.77s16.03,4.75,23.81,8.01c-6.57-2.77-13.14-5.54-19.71-8.32,12.82,5.43,25.44,11.45,38.55,16.12,7.02,2.5,14.28,4.23,21.28,6.82,13.89,5.14,28.13,9.47,41.81,15.17-6.57-2.77-13.14-5.54-19.71-8.32,15.9,6.73,31.48,14.17,47.65,20.25,10.01,3.76,19.93,7.75,29.8,11.87,20.05,8.37,40.35,16.13,60.37,24.55-6.57-2.77-13.14-5.54-19.71-8.32,10.3,4.38,20.44,9.13,30.75,13.51,11,4.67,22.03,9.58,33.25,13.79,5.09,1.91,10.19,3.75,15.21,5.84-6.57-2.77-13.14-5.54-19.71-8.32,11.94,5.11,23.33,11.54,35.14,16.97,5.61,2.58,11.13,5.4,16.76,7.93,12.18,5.49,24.32,9.78,36.57,14.75l-19.71-8.32c16.69,7.1,33.39,14.2,50.1,21.25-6.57-2.77-13.14-5.54-19.71-8.32,12.27,5.18,24.5,10.42,36.57,16.07,13.88-51.25,27.76-102.49,41.64-153.74-.88-.08-1.76-.18-2.64-.3l21.93,2.95c-2.84-.4-5.64-.96-8.46-1.45-8.15-1.41-16.37-2.98-24.65-3.12-1.59-.03-3.15,0-4.74-.16l21.93,2.95c-1.59-.26-3.15-.6-4.73-.89-7.27-1.35-15.74-2.49-23.11-3.14-1.01-.09-2.01-.2-3.03-.2-3.55.01-6.89-.04-10.43-.5l21.93,2.95c-14.32-2.01-28.11-6.37-42.19-9.51-14.57-3.26-28.74-7.4-43.13-11.35s-28.94-5.74-43.42-8.5c-14.77-2.82-29.57-5.41-44.42-7.77-23.75-3.77-47.64-6.37-71.47-9.55l21.93,2.95c-18.37-2.5-36.61-5.95-54.92-8.79-18.58-2.89-37.19-5.62-55.64-9.28-36.75-7.29-73.17-15.88-110.13-22.13-27.35-4.62-54.91-7.46-82.38-11.15l21.93,2.95c-20.97-2.85-41.78-5.68-62.86-7.33-14.69-1.15-29.34-2.74-44.03-3.9-14.4-1.14-28.81-2.72-43.25-3.39-7.16-.33-14.33-.24-21.49-.64s-14.6-.93-21.92-.96c-11.36-.43-21.95,1.94-31.79,7.11-10.23,3.33-19.08,9.01-26.55,17.06-8.05,7.47-13.73,16.32-17.06,26.55-5.17,9.83-7.53,20.43-7.11,31.79l2.95,21.93c3.92,13.98,10.99,26.11,21.22,36.4l16.7,12.9c12.87,7.46,26.75,11.22,41.64,11.26h0Z"/>
  </g>
  <g id="Layer_1" data-name="Layer 1">
    <path class="cls-3" d="m163.72,462.28c4.49-.1,8.72.69,13.15,1.3,15.05,2.09,29.98,4.18,44.93,7.03,24.09,4.6,47.91,11.29,72.09,15.29,26.73,4.42,54,4.15,80.99,5.2,14.96.58,29.89,1.11,44.83,2.05,23.5,1.49,46.73,4.94,69.96,8.7,33.05,5.34,66.3,8.56,99.46,13.1,23.4,3.21,46.75,6.86,70.19,9.77,39.67,4.92,79.4,8.57,119.24,11.58,13.6,1.03,27.11,2.31,40.67,3.65,4.89.48,9.87,1.01,14.79.83-7.93-2.17-16.4-1.58-24.5-2.98-6.74-1.16-13.49-2.37-20.32-2.59-3.28-.11-7.51.6-10.7-.33.85-3.64,11.5,1.55,13.77,1.82,2.1.25,4.52-1.18,6.62-1.39s4.32.06,6.51-.12c6.32-.55,11.98-5.12,17.93-7.3,4.39-1.6,5.98-5.19,7.46-9.55,2.53-7.45,4.89-14.9,6.94-22.51,1.61-5.97,4.4-11.63,6.19-17.56,1.77-5.87,3.03-11.83,4.86-17.68,2.15-6.9,4.8-13.86,5.53-21.12.55-5.42.03-10.94.05-16.37.03-11.51-1.3-22.87-1.4-34.33-.06-7.03-1.72-12.8-3.53-19.62-2.32-8.74-6.55-16.95-10.56-25.04-2.44-4.91-5.49-10.01-10.09-13.23-5.67-3.97-13.54-4.33-20.14-5.08-18.03-2.04-35.78-4.47-53.97-5.15-11.95-.45-24.76-1.18-36,3.44-9.25,3.8-20.88,10.13-26.75,18.33,2.38,1.09,5.08-1.83,6.89-3.09,4.65-3.22,8.68-6.93,12.45-11.13,11.3-12.59,10.73-25.35,11.38-41.11.4-9.64,1.23-18.86.47-28.5-.85-10.84-3.65-20.71-7.1-31.04s-6.9-19.09-11.02-28.66c-1.81-4.22-3.64-8.39-6.44-12.03-3.26-4.24-7.67-6.39-12.2-9.21-8.01-5-15.42-5.19-24.95-6.35-10.79-1.31-21.67-1.71-32.53-2.15-10.26-.42-20.63-1.67-30.91-1.08-2.59.15-13.51-.27-11.6,5.19,13.58,3.53,14.35-29.84,13.71-37.2-2.58-29.54-33.77-51.02-58.1-62.61-27.56-13.14-59.17-19.47-89.64-16.74-19.57,1.75-39.32,5.05-58.41,9.61-5.25,1.26-24.8,4.62-29.03,10.85,1.19.89,2.66,1.18,3.87,1.98-.01,0-.03.02-.04.03-1.08-1.55-2.32-2.51-4-3.43-4.86-2.66-12.1-3.63-17.6-4.95-9.99-1.17-20.02-1.88-30.08-2.14-11.86-1.13-23.71-1.23-35.57-.29-14.22,2.33-28.97,8.3-42.31,13.6-9.42,3.53-18.58,7.66-27.47,12.4-7,2.4-12.2,6.7-15.6,12.88-2.32,5.45-2.72,11.68-1.48,17.37,3.66,16.86,19.96,28.17,36.56,29.58-15.11-1.69-30.4.54-44.94,4.64-14.42,4.07-30.06,9.82-43.53,16.67-15.19,7.72-27.1,23.97-33.83,39.16-5.71,12.91-10.87,28.55-7.09,42.61,3.22,11.99,13.62,18.36,23.95,24.14,14.44,8.09,28.1,14.08,44.67,15.89-3.87.13-7.72-.97-11.51-1.58-14.93-1.7-29.9-1.92-44.91-.67-6.71.99-13.42,1.99-20.12,2.98-17.13,4.72-28.16,21.22-36.99,35.38-10.25,16.44-18.59,37.61-16.47,57.3-.56,4.62,1.01,8.39,4.72,11.31,2.93,2.58,6.09,4.84,9.48,6.76,7.44,4.64,15.27,7.34,23.7,9.55,2.11.55,4.6,1.66,6.63,1.02-1.79-1.4-4.15-1.37-6.27-.94-7.2,1.44-17.43,7.25-22.14,12.9-2.71,3.25-3.51,5.86-2.83,10,1.49,9.15,9.46,10.02,17.28,12.49,6.04,1.91,12.16,1.77,18.42,2.52,10.69,1.28,20.61,3.06,31.41,3.2,8.11.1,16.63.72,24.61,2.15s15.5,3.67,18.26.61Z"/>
    <path class="cls-3" d="m236.64,242.15c2.85.09,6.89,4.76,9.27,6.2,14.75,8.94,30.01,17.28,45.51,24.83,17.21,8.39,34.99,16.57,52.92,23.32,5.33,2.01,10.72,3.53,15.74,6.18-13.56,5.99-26.97,12.99-39.91,20.27-10.57,5.95-20.51,12.72-30.82,19.1-5.76,3.57-11.94,6.86-16.94,11.53"/>
    <path class="cls-3" d="m575.08,280.68c-4.76-.63-10.63,2.99-15.13,4.32-26.81,7.89-53.7,15.9-80.69,23.1-24.08,6.43-48.38,12.91-71.86,21.27-2.11.75-17.75,3.96-18.03,7.44,3.48,1.14,6.4.2,10.05,1.84,8.95,4.02,18.21,7.25,27.27,11.05,26.47,11.1,53.47,21.23,80.3,31.44,16.9,6.43,34.03,12.1,51.58,16.49"/>
    <path class="cls-3" d="m254.52,478.79c0,19.83-1.54,40.17,1.28,59.82,1.8,12.56,4.55,25.32,5.39,37.98.77,11.55.38,23.23-.07,34.78-.89,23.14-1.99,46.45-3.55,69.54-.45,6.63-.09,13.24-.57,19.87-.54,7.56-2.06,14.93-2.48,22.51-.71,12.75-3.05,25.33-4.12,38.03-.64,7.66-1.94,15.35-2.76,22.95-.17,1.56-.69,2.58-1.07,4.08-.45,1.77.22,3.84-.62,5.46-1.07-1.3-.9-2.58-1.67-4.41s-2.2-3.28-2.87-5.28c-2.28-6.8-4.89-13.39-7.6-20.09-3.99-9.89-9.44-16.12-19.08-20.76-9.6-4.62-19.15-7.8-29.79-4.85-8.96,2.49-17.15,8.98-19.85,18.29"/>
    <path class="cls-3" d="m657.63,525.57c-3.13,20.77-2.86,42.22-4.77,63.22-3.2,35.25-7.22,70.41-9.4,105.74-1.67,27.1-.98,54.33-.97,81.47,0,4.37-.43,8.84.7,12.97s-.95,7.34-.56,11.47c1.67.55,5.51-2.45,7.37-3.27,4.64-2.05,8.51-5.54,13-7.87,6.97-3.62,14.27-4.58,22.06-4.98,10.03-.52,22.63-1.85,32.25,1.47,5.56,1.92,10.84,4.12,16.51,5.7,2.31.64,3.85,1.05,5.74,2.23,6.64,4.14,6.28,12.8,8.87,19.38"/>
    <path class="cls-3" d="m427.87,808.98c.02-5.11-5.39-9.44-8.87-12.43-8.3-7.11-16.14-14.61-24.31-21.86-4.35-3.86-10.89-9.85-16.45-12.28-3-1.31-7.03-1.77-10.15-2.28-8.22-1.32-19.21-3.94-27.59-1.96-7.38,1.74-13.04,8.03-19.94,10.9"/>
    <path class="cls-3" d="m509.05,825.49c2.15-12.55,4.58-24.33,10.43-35.76,2.17-4.24,3.35-9.8,8.2-11.01,12.56-3.15,26.19-2.76,39.16-2.76"/>
    <path class="cls-3" d="m125.2,806.23c37.07.05,74.18-5.5,111.25-6.68,23.81-.76,47.73-.21,71.55-.19,36.08.02,72.17-.45,108.25.16,47.15.79,94.27,3.52,141.43,4.44,48.45.94,96.9.95,145.36.9"/>
  </g>
</svg>