<?xml version="1.0" encoding="utf-8"?>
<!-- Generator: Adobe Illustrator 27.3.1, SVG Export Plug-In . SVG Version: 6.00 Build 0)  -->
<svg version="1.1" id="Layer_1" xmlns="http://www.w3.org/2000/svg" xmlns:xlink="http://www.w3.org/1999/xlink" x="0px" y="0px"
	 viewBox="0 0 969 651.4" style="enable-background:new 0 0 969 651.4;" xml:space="preserve">
<style type="text/css">
	.st0{fill:#BCBEC0;}
	.st1{fill:none;stroke:#231F20;stroke-width:4;stroke-linecap:round;stroke-miterlimit:10;}
</style>
<g id="Layer_2_00000111165196488625643300000015822288800100843670_">
	<path class="st0" d="M296.1,454.8c4.1,0,8.1,0.1,12.2-0.1c3.8-0.2,7.6-0.8,11.4-1.2c13.3-1.3,26.6-3.3,39.8-5.2
		c-5.5,0.8-11.1,1.5-16.6,2.3c4.3-0.6,8.6-1.1,12.9-1.3c9.6-0.4,18.7-1.8,28.4-3.2c-5.5,0.8-11.1,1.5-16.6,2.3
		c14.2-1.9,28.6-2.8,43-4c19.6-1.6,39-3.9,58.5-6.7l-16.6,2.3c8.6-1.2,17.1-1.4,25.8-2.1c8.4-0.7,16.8-1.8,25.1-2.9
		c9.4-1.2,18.7-2.4,28-4.3c4-0.8,8-1.7,12-2.4c8.5-1.5,16.9-3.5,25.4-4.7l-16.6,2.3c3.3-0.4,6.7-0.6,10-0.9
		c8.6-0.8,17.1-2.2,25.6-4.1c6.6-1.4,13.4-2.3,20.1-3.3l-16.6,2.3c5.5-0.8,11-0.8,16.5-1.4c2.5-0.3,4.9-0.4,7.4-0.5
		c8-0.2,15.9-2.1,23.8-3.3l-16.6,2.3c4.3-0.3,8.6-0.1,12.9-0.2c4.3-0.1,8.3-0.6,12.5-0.6c13.6-0.2,27.3-3.3,40.6-6.2
		c4.1-0.9,8.2-2,12.3-3c4.1-1,7.8-2.5,11.7-3.8c8.7-2.9,16.8-6.1,25.2-10.3c1.4-0.7,2.9-1.5,4.3-2.3c11.2-6.6,18-14.6,25-25.6
		c5.7-10.2,8.5-21.1,8.5-32.9c0.3-9-1.5-17.3-5.4-25.1c-2.5-8.1-6.8-15.1-12.9-20.9c-7.8-8.1-17-13.6-27.6-16.7
		c-3.2-1.2-6.6-1.8-9.9-2.4c-3.2-0.5-6.3-1.3-9.5-2c-12.4-2.7-24.8-3.1-37.3-4.3c-14.5-1.4-28.9-3.6-43.4-5.6l16.6,2.3
		c-12.9-1.8-25.8-4.1-38.7-6.2c-11.5-1.9-23-3.9-34.5-5.1c-6.6-0.7-13.2-1-19.7-1.7s-12.9-1.5-19.4-2c-6.5-0.5-13.1-0.4-19.6-0.6
		c-13.2-0.4-26.4-1.2-39.6-2.2c-26.4-2-52.9-1.2-79.3-1.2c-13.3,0-26.6,0-39.9,0c-6.6,0-13.2,0-19.9,0c-6.6,0-13.1-0.6-19.5,0.2
		c-3.5,0.4-7,0.8-10.5,0.9c-3.6,0-7.4-0.1-11,0c-7.3,0.1-14.5,0.9-21.7,0.8c-7.3,0-14.3,0-21.5-0.1c-3.7,0-7.3,0-11,0.3
		c-13.7,0.9-28.1,1.6-39.8,10.3l-12.7,10.2c-3.3,4.4-6.5,8.8-9.8,13.2c-2.1,5.2-4.2,10.4-6.3,15.6c-2.6,8.7-3,17.3-1.1,26
		c0,5.9,1.4,11.4,4.3,16.4c1.5,5.5,4.2,10.3,8,14.4c2.8,4.9,6.5,8.8,11.2,11.7c6,5.8,13.1,9.6,21.3,11.7c3,0.9,7.2,1.1,9.6,1.5
		c2.9,0.4,6.5,1.2,9.8,1.3c1.3,0,2.5-0.1,3.8-0.2c2.8-0.1,5.7-0.1,8.5-0.3c11.3-0.8,22.4-2.4,33.6-4.1l-16.6,2.3
		c5.4-0.7,10.8-1.1,16.2-1.8c10.7-1.5,21.4-3,32.1-4.8c11-1.8,22-4,33-5.5l-16.6,2.3c20.3-2.7,40.9-4.4,61-8.5
		c7.3-1.5,14.6-3.5,21.9-5.1c3.6-0.8,7.2-1.5,10.8-2.1c3.9-0.7,7.6-1.9,11.5-2.4l-16.6,2.3c10.8-1.3,21.4-2.2,32.3-4
		c5.4-0.9,10.7-2.3,16.1-3.1c-5.5,0.8-11.1,1.5-16.6,2.3c30-4.1,60-8.1,89.8-13.4c12.3-2.2,24.5-4.4,36.7-7.5
		c11.9-3.1,23.9-5.6,35.7-9c6.5-1.9,12.6-4.4,18.8-7c2.6-1.1,5.2-2,7.9-2.9c6.3-2.2,12.8-5.3,18.5-7.9c1.3-0.6,2.6-1.2,3.7-2.1
		c4.2-3.4,8.4-6.8,12.7-10.2c6.1-5.9,10.4-12.9,12.9-20.9c2.8-5.1,4.3-10.6,4.3-16.4c1.9-8.7,1.5-17.3-1.1-26l-6.3-15.6l-9.8-13.2
		c-5.7-6.3-12.4-10.8-20.1-13.5c-7.5-4.1-15.5-5.9-24.1-5.6c-1.4,0.1-2.8,0-4.3-0.2l16.6,2.3c-3.7-0.6-7.3-1.8-11-2.6
		c-4-0.9-8-1.7-12.1-2.4c-8.2-1.6-16.5-3-24.7-4.3c-21.6-3.4-43.3-6.2-64.9-9.2l16.6,2.3c-20.5-2.9-41-5.9-61.5-8.3
		c-15.1-1.8-30.3-2.6-45.5-3.5c-7.2-0.4-14.5-0.1-21.7-0.4s-15-0.9-22.4-1.4c-15-0.9-30.1-1.7-45.1-2.1c-8.5-0.2-17,0-25.4,0.8
		c-3.5,0.3-7,0.8-10.5,0.9c-6.8,0.3-13.8,1-20.2,2.6c-12.9,3.2-19.9,9.3-29.9,17.8c-3.3,4.4-6.5,8.8-9.8,13.2
		c-4.6,7.5-7,15.5-7.4,24.2c-1.5,5.8-1.5,11.5,0,17.3c0.4,8.7,2.9,16.7,7.4,24.2c3.3,4.4,6.5,8.8,9.8,13.2
		c4.2,3.4,8.4,6.8,12.7,10.2c7.2,4.8,14.9,7.3,23.3,7.7c8.3,1.9,16.6,1.5,25-1.2c8.1-1.8,15.8-4.9,23.6-8c3.9-1.5,7.9-2.8,11.8-4.1
		c2-0.7,4-1.5,5.9-2.3c5.5-2.4,11.3-4.5,16.5-7.4c1-0.6,2-1.1,3.1-1.6l-14.9,6.6c2.2-0.9,4.4-1.5,6.6-2.1c6.8-2,13.8-5.4,19.8-8.3
		c4-2,7.9-4.3,12-6.2l-14.9,6.6c2.4-1,4.9-1.2,7.3-1.9c1.2-0.4,2.3-0.8,3.4-1.3c6-2.5,12.2-4.8,17.9-8.1l-14.9,6.6
		c15.3-6.4,30.8-12.1,46.1-18.5c19.9-8.3,39.2-17.7,58.8-26.4l-14.9,6.6c12-5.2,23.8-10.7,35.8-16l-14.9,6.6
		c9.1-4,18.6-7.1,28.1-9.8s18.8-5.4,28.4-6.8l-16.6,2.3c7.6-1,15.2-2,22.7-3.2l-16.6,2.3c3.3-0.4,6.7-0.2,10.1-0.4
		c3.6-0.2,7.2-0.5,10.7-0.8c8.6,0.3,16.6-1.5,24.1-5.6c7.8-2.6,14.5-7.1,20.1-13.5l9.8-13.2c4.6-7.5,7-15.5,7.4-24.2
		c1.5-5.8,1.5-11.5,0-17.3c-0.4-8.7-2.9-16.7-7.4-24.2L628,63.4c-7.8-8.1-17-13.6-27.6-16.7c-6.1-2.5-12.5-3.9-18.8-5.3
		c-11.6-2.6-23.4-3.4-35.2-4.4c-6.9-0.6-13.8-1.2-20.7-1.7c-6.9-0.5-13.7-1.7-20.4-1.5c-3.1,0.1-6.2,0.6-9.3,0.7
		c-3.8,0.2-7.6,0.1-11.4,0.1c-3.1,0-6.1-0.6-9.2-0.8c-3.6-0.3-7.2-0.2-10.8-0.1c-13.7,0.2-27.5-0.2-41.2-0.7
		c-15.7-0.5-31.4-1.3-47.1-2c-8.6-0.3-16.6,1.5-24.1,5.6c-7.8,2.6-14.5,7.1-20.1,13.5c-6.1,5.9-10.4,12.9-12.9,20.9
		c-3.9,7.8-5.7,16.1-5.4,25.1l2.2,17.3c3,11,8.3,20.6,16.1,28.7c4.2,3.4,8.4,6.8,12.7,10.2c9.8,5.9,20.3,8.9,31.6,8.9
		c24.3,1,48.6,2.3,72.9,2.6c5.9,0.1,11.8,0.1,17.7,0c2.8,0,5.7-0.1,8.5,0.2c3.1,0.3,6.1,0.8,9.2,0.8c6,0.1,11.9-0.1,17.9-0.6
		c6-0.5,11.7,0.5,17.6,0.9c6.6,0.5,13.2,1.1,19.8,1.6c6.6,0.5,13.4,0.8,20,1.6l-16.6-2.3c8.1,1.2,16.4,3.2,24,6.3
		c5.5-42.6,11.1-85.2,16.6-127.9c-4.4,0.4-8.7,0.7-13.1,0.9c-9.2,0.3-18,1.7-27.2,3.1l16.6-2.3c-8.5,1.2-17.1,1.9-25.5,3.7
		c-3.3,0.7-6.6,1.5-9.9,2.3c-6.8,1.7-13.6,3.6-20.3,5.7c-18.3,5.8-35.4,14.3-53,22.1l14.9-6.6c-18.1,7.9-35.9,16.4-54,24.4l14.9-6.6
		c-23.9,10.5-48.5,18.9-72.2,30.1l14.9-6.6c-2,0.9-4,1.5-6.2,2c-6.9,1.4-13,4.6-19.5,7.8c-4,2-7.9,4.3-12,6.2l14.9-6.6
		c-2.8,1.2-5.7,1.9-8.6,2.8c-7.9,2.4-15,6.6-22.5,10l14.9-6.6c-6.7,2.9-13.8,4.9-20.6,7.6s-13.6,5.2-20.7,6.8
		c20.3,36.3,40.6,72.5,60.9,108.8l0.3-0.3c-4.2,3.4-8.4,6.8-12.7,10.2l0.4-0.2l-14.9,6.6c0.7-0.3,1.4-0.5,2.1-0.6l-16.6,2.3
		c5.7-0.7,11.5-1,17.3-1.4c6.9-0.5,13.8-0.6,20.7-0.5c13.8,0.3,27.6,1,41.4,1.8c6.9,0.4,13.7,0.9,20.6,1.3
		c6.6,0.4,13.2,0.4,19.8,0.4c6.9,0.1,13.8,0.6,20.6,1c6.9,0.4,13.7,0.8,20.6,1.4c15.8,1.5,31.5,3.7,47.2,5.9l-16.6-2.3
		c17.2,2.4,34.3,4.7,51.5,7.1l-16.6-2.3c13.1,1.8,26.2,3.8,39.3,6.1c6.4,1.1,12.7,2.3,19.1,3.7c11.3,2.3,22.5,6.1,34.2,5.6
		c-10.5-40.4-21.1-80.9-31.6-121.3c-1.2,0.8-2.4,1.5-3.7,2.1c5-2.2,10-4.4,14.9-6.6c-4,1.7-8.2,2.9-12.3,4.6c-4.8,2-9.5,4-14.5,5.6
		c-9.8,3.1-19.9,5-29.9,7.6c-10,2.6-20,5.2-30.1,7.1c-10.2,1.8-21.2,3.8-31.8,5.6c-11.8,2-23.7,3.8-35.6,5.5
		c5.5-0.8,11.1-1.5,16.6-2.3c-6.7,0.9-13.3,1.7-20,2.6c-8.4,1.1-17,2-25.4,3.7c-3.2,0.7-6.4,1.5-9.6,2l16.6-2.3
		c-12.4,1.7-24.9,2.1-37.1,4.9c-7.2,1.7-14.4,3-21.6,4.6c-7.2,1.6-14.4,3.7-21.7,4.9c-7.3,1.3-14.7,2.3-22.1,3.4l16.6-2.3
		c-5.6,0.8-11.2,1.2-16.9,1.9c-10.9,1.4-21.7,3.1-32.5,5c-10.8,1.9-21.7,3.7-32.6,5.3l16.6-2.3c-3.8,0.5-7.5,1-11.3,1.3
		c-9,0.8-17.9,2.3-26.9,3.6l16.6-2.3c-4.6,0.6-9.3,0.9-13.9,1.2c-4,0.2-8.3,0.7-12.3,0.3c5.5,0.8,11.1,1.5,16.6,2.3
		c-0.4-0.1-0.9-0.2-1.3-0.3c5,39.7,10,79.3,14.9,119c0.4-0.3,0.8-0.6,1.3-0.8l-14.9,6.6l0.7-0.2l-16.6,2.3c10.9-1,21.8-0.7,32.8-0.7
		c5.6,0,11.1,0.2,16.7-0.1c5.6-0.3,11-0.7,16.6-0.7c5.6,0.1,10.7-0.2,16.1-0.8c5.4-0.6,11.2-0.2,16.7-0.2c11.4,0,22.7,0,34.1,0
		c22.6,0,45.2,0.1,67.7-0.1c11.2-0.1,22.3,0,33.4,0.8c11.4,0.8,22.7,1.7,34.1,2.2c12.4,0.5,24.9,0.3,37.3,1.6c6.3,0.7,12.6,1.5,19,2
		c6.4,0.5,12.8,0.9,19.1,1.8c-5.5-0.8-11.1-1.5-16.6-2.3c9.4,1.4,18.7,3.1,28.1,4.6c14.6,2.4,29.2,4.6,43.9,6.6
		c9.5,1.3,18.9,2.7,28.4,3.8c4.7,0.6,9.3,1.1,14,1.5c4.9,0.5,9.9,0.5,14.8,1.1l-16.6-2.3c3.9,0.6,7.8,1.8,11.7,2.5
		c3.8,0.7,7.6,1.2,11.2,2.6c-12.5-31.9-24.9-63.7-37.4-95.6l-0.3,0.4c3.3-4.4,6.5-8.8,9.8-13.2c-0.3,0.3-0.5,0.6-0.9,0.8
		c4.2-3.4,8.4-6.8,12.7-10.2c-2.3,1.7-5,3-7.6,4.2l14.9-6.6c-3.9,1.7-8.1,2.6-12,4.2c-3.9,1.6-8.2,2.5-12.4,3.5
		c-8.5,2.1-17.2,4.2-25.9,5.5l16.6-2.3c-2.9,0.4-5.7,0.3-8.6,0.4c-3.2,0.1-6.3,0.5-9.4,0.6c-3.2,0.1-6.2,0-9.2,0
		c-8.3,0.1-16.6,1.8-24.9,3.2l16.6-2.3c-2.3,0.3-4.6,0.2-6.9,0.3c-2.4,0.2-4.8,0.5-7.2,0.7c-10,0.7-19.5,2-29.5,3.4
		c-4.6,0.7-9.2,1.3-13.8,2.1c-4.8,0.8-9.6,2.1-14.4,2.8l16.6-2.3c-2.4,0.3-4.9,0.3-7.3,0.6c-7.9,0.8-15.7,2-23.5,3.2
		c-5,0.8-10,1.9-15,2.9c-9.8,2-19.7,4.2-29.7,5.6l16.6-2.3c-9.7,1.3-19.5,2.6-29.3,3.3c-4.8,0.3-9.5,0.4-14.3,0.8
		c-10.2,1-20.3,2.7-30.4,4.1c5.5-0.8,11.1-1.5,16.6-2.3c-13.5,1.9-27.1,2.8-40.6,3.9c-18.8,1.5-37.5,3.4-56.2,6.1l16.6-2.3
		c-5.7,0.8-11.5,0.6-17.3,1.2c-11.2,1.2-22.3,3-33.4,4.6l16.6-2.3c-12.2,1.7-24.3,2.7-36.6,2.7c-8.6-0.3-16.6,1.5-24.1,5.6
		c-7.8,2.6-14.5,7.1-20.1,13.5c-6.1,5.9-10.4,12.9-12.9,20.9c-3.9,7.8-5.7,16.1-5.4,25.1l2.2,17.3c3,11,8.3,20.6,16.1,28.7
		c4.2,3.4,8.4,6.8,12.7,10.2C274.3,451.9,284.9,454.8,296.1,454.8L296.1,454.8L296.1,454.8z"/>
</g>
<g id="Layer_1_00000091713430403283302720000016893250148235089338_">
	<path class="st1" d="M342.6,423.8c0.3,2.9,22.7-0.1,24.6-0.2c12.3-0.8,24.5-1.3,36.7-2.6c15-1.5,29.8-4,44.7-6
		c19.9-2.7,40-3.1,60.1-4.6c14.1-1.1,28.2-2.1,42.2-3.6c7.9-0.9,16.2-1.4,24-2.6c2.7-0.4,5.3-1.3,8.1-1.6c9.1-1.1,18.3-0.9,27.4-1.9
		c8.9-1.1,17.5-3.3,26.5-3.6c2.9-0.1,5.6-0.9,8.5-1c2.3-0.1,4.6,0,6.9,0c3.2,0,6.4,0,9.6,0c4.2,0,5.4-1.2,8.5-4.4
		c2.9-3,6-5.9,8.3-9.4s3.9-7.4,5.6-11.3c2.2-5.1,4.7-10,6.8-15.1c3-7.1,6.4-14.4,7.9-22c1.4-6.9,1.8-14.1,2.3-21.2
		c0.3-4.9,0.1-8.8-1.1-13.5c-1.9-7.6-3.3-15.9-6.4-23.1c-2.5-5.8-7.2-10.8-12.9-13.3c-2.2-1-4.3-1.8-6.4-2.8
		c-4.8-2.2-11.9-2.6-16.9-3.4c-8.5-1.3-17.2-1.9-25.7-2c-3.3-0.1-9-1.1-12.1,0.3c0.5,2.2,10.6-7.8,11.5-9.1c1.5-2.3,3.6-4.1,4.8-6.6
		c2.3-5,4.2-11,5.3-16.4c3-13.7,1.4-27.1-0.2-40.9c-0.7-6.1-0.7-12.3-2-18.4c-1.1-4.9-2.3-9.8-3.5-14.6c-2-8.2-5.9-13.8-12.9-18.2
		c-1.8-1.1-3.6-1.5-5.6-2.2c-8.5-3-17.5-4.4-26.2-6.4c-5.3-1.3-10.3-1.7-15.7-1.7c-7.3,0-14.7-0.4-22,0.2c-9.5,0.7-19,3.3-27.4,8.1
		c-1.3-1-0.1-4.5,0-6c0.2-3.7,0.2-7.4,0.1-11.2c-0.2-7.3-2.2-12.9-6.5-18.5c-5.6-7.1-14.5-10.1-22.3-13.7c-6.1-2.8-12.2-5.6-18.5-8
		c-5.9-2.2-11.9-3.5-17.9-5.3c-1.5-0.5-2.9-1.1-4.3-1.6c-3.8-1.2-9.2-1.2-12.7-1.4c-11.1-0.8-22.5-1.5-33.7-0.8
		c-4.4,0.3-6.1,1.3-8.1,5.4c-2.9,5.7-5,12.3-5.7,18.8c-6.4,0.2-12.9-0.1-19.3-0.1c-18.2-0.1-37.1,1.7-54.7,6.9
		c-14,4.1-25.4,12.5-32.4,25.9c-3.5,6.6-5.8,12.1-6.7,19.6c-1.1,9.5-0.2,19,5.4,26.9c5.6,7.9,14.5,12.6,22.4,16.6
		c1.9,0.9,13.4,4.3,13.5,6.2c-16.3,0.8-32.2,10.6-44.6,21.1c-9.9,8.4-19.1,18.2-26.5,29c-5.4,7.9-9.4,16.5-13.1,25.4
		c-2.3,5.5-3.3,10.6-3.6,16.5c-0.2,3.1-0.1,6.2,0.2,9.2c1.3,2.7,3.1,4.8,5.6,6.5c10.2,8,23.4,12.1,36.2,11.4c-3,0.4-5.8,1.8-8.4,3.1
		c-4.9,2.6-9.7,5.4-14.4,8.4c-5.5,3.2-10.7,6.8-15.6,10.8c-13.2,11.7-23.2,26.1-30.7,42.2c-2.3,4.9-5.2,11.7-5.4,17.4
		c-0.2,3.6,3,7.7,4.8,10.2c2.7,3.7,5.5,7.3,8.8,10.5c5.8,5.4,13,9,20,12.5c10.9,5.5,22.9,8.7,34.8,10.9c10.6,2,21.8,4.3,32.6,4.6
		c9,0.3,18.2,1.4,27.2,1c9.5-0.4,18.4-3.7,26.8-8.1"/>
	<path class="st1" d="M452.8,242.9c-1.8-0.5-0.9-7-0.9-8.6c0-4.8,0-9.6,0-14.4c0-5.4,0.1-10.3-1.3-15.6c-0.6-2.4-0.8-5.2-3-6.3
		c-5.9-2.8-13.4,0.7-19.1,2.3c-4.7,1.4-6.8,4.4-7.9,9.5c-1.8,9.1,1,17.5,3.7,26c0.7,2.3,1.5,4.5,2.8,6.5c1.3,2,3.3,3.4,4.3,5.6
		c0.9,1.8,0.9,3.8,1.5,5.7c0.5,1.5,0.7,2.9,1.1,4.5c0.5,2.2,0.9,3.5,3.2,3.6c3.4,0.2,4.2-0.8,6.5-3c1.3-1.3,3.3-1.9,4.5-3.4
		C451.5,251.4,452,245.9,452.8,242.9L452.8,242.9z"/>
	<path class="st1" d="M548.3,216c-1.9-0.7-3.8-4.3-5.2-5.8c-3.2-3.6-6.6-4.8-10.8-6.5c-3.5-1.4-8.5-4.2-12.4-2.8
		c-1,0.4-2.1,1.5-3,2.1c-2.3,1.5-3.9,3-5.6,5.3c-3.8,5.1-6.6,10.3-7.8,16.6c-0.8,4.2-1,8.3-0.9,12.5s2.9,9.4,5.5,12.8
		c2.8,3.9,6.9,5.9,11.2,7.9c3.5,1.7,7.8,2.6,11.7,2.7c2.1,0,3,0,4.5-1.8c1.9-2.2,3.4-4.9,5.1-7.3c2.2-3.1,2.8-6.3,3.3-10.1
		C544.9,233.6,545.8,225.9,548.3,216L548.3,216z"/>
</g>
<path class="st0" d="M510,493c-73.9-4.2-148.1-8.4-222.1-2.9c-20.9,1.6-41.8,3.9-62.5,7.2c-6.3,1-3.6,10.6,2.7,9.6
	c72.5-11.4,146.2-10.6,219.3-7.3c20.9,1,41.8,2.2,62.6,3.3C516.4,503.4,516.4,493.4,510,493z"/>
<path class="st0" d="M743,525.5c-70.3-4.3-140.7-7-211.2-8.1c-19.9-0.3-39.9-0.5-59.8-0.5c-6.4,0-6.4,10,0,10
	c70.4,0.1,140.9,1.9,211.2,5.3c19.9,1,39.8,2.1,59.7,3.3C749.4,535.9,749.4,525.9,743,525.5z"/>
<path class="st0" d="M758,461.6c-70.4-1.8-140.7-5.2-210.9-10.4c-6.4-0.5-6.4,9.5,0,10c70.2,5.1,140.5,8.6,210.9,10.4
	C764.4,471.7,764.4,461.7,758,461.6z"/>
<path class="st0" d="M419,529.2c-78.2,1.7-156.4,6.9-234.2,15.7c-6.3,0.7-6.4,10.7,0,10c77.8-8.8,155.9-14,234.2-15.7
	C425.5,539,425.5,529,419,529.2z"/>
<path class="st0" d="M400.1,576.2c-54.2,5.1-108.8,5.9-163.1,2.2c-6.4-0.4-6.4,9.6,0,10c54.3,3.6,108.9,2.9,163.1-2.2
	C406.5,585.6,406.5,575.6,400.1,576.2z"/>
<path class="st0" d="M741.1,570c-83.7,8.6-167.9,12.5-252.1,11.4c-6.4-0.1-6.4,9.9,0,10c84.2,1,168.4-2.8,252.1-11.4
	C747.4,579.3,747.5,569.3,741.1,570z"/>
<path class="st0" d="M590,557.8c-73-1-146-2-219-3c-6.4-0.1-6.4,9.9,0,10c73,1,146,2,219,3C596.4,567.9,596.4,557.9,590,557.8z"/>
<path class="st1" d="M425,348c14.5,2.7,29.5,3.6,44.3,3.9c32.2,0.7,64.5,0.1,96.7,0.1"/>
</svg>
