<?xml version="1.0" encoding="utf-8"?>
<!-- Generator: Adobe Illustrator 27.3.1, SVG Export Plug-In . SVG Version: 6.00 Build 0)  -->
<svg version="1.1" id="Layer_1" xmlns="http://www.w3.org/2000/svg" xmlns:xlink="http://www.w3.org/1999/xlink" x="0px" y="0px"
	 viewBox="0 0 969 651.4" style="enable-background:new 0 0 969 651.4;" xml:space="preserve">
<style type="text/css">
	.st0{fill:#BCBEC0;}
	.st1{fill:none;stroke:#231F20;stroke-width:4;stroke-linecap:round;stroke-miterlimit:10;}
	.st2{fill:#65C8D0;}
	.st3{fill:#00AEEF;}
</style>
<g id="Layer_2_00000111165196488625643300000015822288800100843670_">
	<path class="st0" d="M296.1,454.8c4.1,0,8.1,0.1,12.2-0.1c3.8-0.2,7.6-0.8,11.4-1.2c13.3-1.3,26.6-3.3,39.8-5.2
		c-5.5,0.8-11.1,1.5-16.6,2.3c4.3-0.6,8.6-1.1,12.9-1.3c9.6-0.4,18.7-1.8,28.4-3.2c-5.5,0.8-11.1,1.5-16.6,2.3
		c14.2-1.9,28.6-2.8,43-4c19.6-1.6,39-3.9,58.5-6.7l-16.6,2.3c8.6-1.2,17.1-1.4,25.8-2.1c8.4-0.7,16.8-1.8,25.1-2.9
		c9.4-1.2,18.7-2.4,28-4.3c4-0.8,8-1.7,12-2.4c8.5-1.5,16.9-3.5,25.4-4.7l-16.6,2.3c3.3-0.4,6.7-0.6,10-0.9
		c8.6-0.8,17.1-2.2,25.6-4.1c6.6-1.4,13.4-2.3,20.1-3.3l-16.6,2.3c5.5-0.8,11-0.8,16.5-1.4c2.5-0.3,4.9-0.4,7.4-0.5
		c8-0.2,15.9-2.1,23.8-3.3l-16.6,2.3c4.3-0.3,8.6-0.1,12.9-0.2c4.3-0.1,8.3-0.6,12.5-0.6c13.6-0.2,27.3-3.3,40.6-6.2
		c4.1-0.9,8.2-2,12.3-3c4.1-1,7.8-2.5,11.7-3.8c8.7-2.9,16.8-6.1,25.2-10.3c1.4-0.7,2.9-1.5,4.3-2.3c11.2-6.6,18-14.6,25-25.6
		c5.7-10.2,8.5-21.1,8.5-32.9c0.3-9-1.5-17.3-5.4-25.1c-2.5-8.1-6.8-15.1-12.9-20.9c-7.8-8.1-17-13.6-27.6-16.7
		c-3.2-1.2-6.6-1.8-9.9-2.4c-3.2-0.5-6.3-1.3-9.5-2c-12.4-2.7-24.8-3.1-37.3-4.3c-14.5-1.4-28.9-3.6-43.4-5.6l16.6,2.3
		c-12.9-1.8-25.8-4.1-38.7-6.2c-11.5-1.9-23-3.9-34.5-5.1c-6.6-0.7-13.2-1-19.7-1.7s-12.9-1.5-19.4-2c-6.5-0.5-13.1-0.4-19.6-0.6
		c-13.2-0.4-26.4-1.2-39.6-2.2c-26.4-2-52.9-1.2-79.3-1.2c-13.3,0-26.6,0-39.9,0c-6.6,0-13.2,0-19.9,0c-6.6,0-13.1-0.6-19.5,0.2
		c-3.5,0.4-7,0.8-10.5,0.9c-3.6,0-7.4-0.1-11,0c-7.3,0.1-14.5,0.9-21.7,0.8c-7.3,0-14.3,0-21.5-0.1c-3.7,0-7.3,0-11,0.3
		c-13.7,0.9-28.1,1.6-39.8,10.3l-12.7,10.2c-3.3,4.4-6.5,8.8-9.8,13.2c-2.1,5.2-4.2,10.4-6.3,15.6c-2.6,8.7-3,17.3-1.1,26
		c0,5.9,1.4,11.4,4.3,16.4c1.5,5.5,4.2,10.3,8,14.4c2.8,4.9,6.5,8.8,11.2,11.7c6,5.8,13.1,9.6,21.3,11.7c3,0.9,7.2,1.1,9.6,1.5
		c2.9,0.4,6.5,1.2,9.8,1.3c1.3,0,2.5-0.1,3.8-0.2c2.8-0.1,5.7-0.1,8.5-0.3c11.3-0.8,22.4-2.4,33.6-4.1l-16.6,2.3
		c5.4-0.7,10.8-1.1,16.2-1.8c10.7-1.5,21.4-3,32.1-4.8c11-1.8,22-4,33-5.5l-16.6,2.3c20.3-2.7,40.9-4.4,61-8.5
		c7.3-1.5,14.6-3.5,21.9-5.1c3.6-0.8,7.2-1.5,10.8-2.1c3.9-0.7,7.6-1.9,11.5-2.4l-16.6,2.3c10.8-1.3,21.4-2.2,32.3-4
		c5.4-0.9,10.7-2.3,16.1-3.1c-5.5,0.8-11.1,1.5-16.6,2.3c30-4.1,60-8.1,89.8-13.4c12.3-2.2,24.5-4.4,36.7-7.5
		c11.9-3.1,23.9-5.6,35.7-9c6.5-1.9,12.6-4.4,18.8-7c2.6-1.1,5.2-2,7.9-2.9c6.3-2.2,12.8-5.3,18.5-7.9c1.3-0.6,2.6-1.2,3.7-2.1
		c4.2-3.4,8.4-6.8,12.7-10.2c6.1-5.9,10.4-12.9,12.9-20.9c2.8-5.1,4.3-10.6,4.3-16.4c1.9-8.7,1.5-17.3-1.1-26l-6.3-15.6l-9.8-13.2
		c-5.7-6.3-12.4-10.8-20.1-13.5c-7.5-4.1-15.5-5.9-24.1-5.6c-1.4,0.1-2.8,0-4.3-0.2l16.6,2.3c-3.7-0.6-7.3-1.8-11-2.6
		c-4-0.9-8-1.7-12.1-2.4c-8.2-1.6-16.5-3-24.7-4.3c-21.6-3.4-43.3-6.2-64.9-9.2l16.6,2.3c-20.5-2.9-41-5.9-61.5-8.3
		c-15.1-1.8-30.3-2.6-45.5-3.5c-7.2-0.4-14.5-0.1-21.7-0.4s-15-0.9-22.4-1.4c-15-0.9-30.1-1.7-45.1-2.1c-8.5-0.2-17,0-25.4,0.8
		c-3.5,0.3-7,0.8-10.5,0.9c-6.8,0.3-13.8,1-20.2,2.6c-12.9,3.2-19.9,9.3-29.9,17.8c-3.3,4.4-6.5,8.8-9.8,13.2
		c-4.6,7.5-7,15.5-7.4,24.2c-1.5,5.8-1.5,11.5,0,17.3c0.4,8.7,2.9,16.7,7.4,24.2c3.3,4.4,6.5,8.8,9.8,13.2
		c4.2,3.4,8.4,6.8,12.7,10.2c7.2,4.8,14.9,7.3,23.3,7.7c8.3,1.9,16.6,1.5,25-1.2c8.1-1.8,15.8-4.9,23.6-8c3.9-1.5,7.9-2.8,11.8-4.1
		c2-0.7,4-1.5,5.9-2.3c5.5-2.4,11.3-4.5,16.5-7.4c1-0.6,2-1.1,3.1-1.6l-14.9,6.6c2.2-0.9,4.4-1.5,6.6-2.1c6.8-2,13.8-5.4,19.8-8.3
		c4-2,7.9-4.3,12-6.2l-14.9,6.6c2.4-1,4.9-1.2,7.3-1.9c1.2-0.4,2.3-0.8,3.4-1.3c6-2.5,12.2-4.8,17.9-8.1l-14.9,6.6
		c15.3-6.4,30.8-12.1,46.1-18.5c19.9-8.3,39.2-17.7,58.8-26.4l-14.9,6.6c12-5.2,23.8-10.7,35.8-16l-14.9,6.6
		c9.1-4,18.6-7.1,28.1-9.8s18.8-5.4,28.4-6.8l-16.6,2.3c7.6-1,15.2-2,22.7-3.2l-16.6,2.3c3.3-0.4,6.7-0.2,10.1-0.4
		c3.6-0.2,7.2-0.5,10.7-0.8c8.6,0.3,16.6-1.5,24.1-5.6c7.8-2.6,14.5-7.1,20.1-13.5l9.8-13.2c4.6-7.5,7-15.5,7.4-24.2
		c1.5-5.8,1.5-11.5,0-17.3c-0.4-8.7-2.9-16.7-7.4-24.2L628,63.4c-7.8-8.1-17-13.6-27.6-16.7c-6.1-2.5-12.5-3.9-18.8-5.3
		c-11.6-2.6-23.4-3.4-35.2-4.4c-6.9-0.6-13.8-1.2-20.7-1.7c-6.9-0.5-13.7-1.7-20.4-1.5c-3.1,0.1-6.2,0.6-9.3,0.7
		c-3.8,0.2-7.6,0.1-11.4,0.1c-3.1,0-6.1-0.6-9.2-0.8c-3.6-0.3-7.2-0.2-10.8-0.1c-13.7,0.2-27.5-0.2-41.2-0.7
		c-15.7-0.5-31.4-1.3-47.1-2c-8.6-0.3-16.6,1.5-24.1,5.6c-7.8,2.6-14.5,7.1-20.1,13.5c-6.1,5.9-10.4,12.9-12.9,20.9
		c-3.9,7.8-5.7,16.1-5.4,25.1l2.2,17.3c3,11,8.3,20.6,16.1,28.7c4.2,3.4,8.4,6.8,12.7,10.2c9.8,5.9,20.3,8.9,31.6,8.9
		c24.3,1,48.6,2.3,72.9,2.6c5.9,0.1,11.8,0.1,17.7,0c2.8,0,5.7-0.1,8.5,0.2c3.1,0.3,6.1,0.8,9.2,0.8c6,0.1,11.9-0.1,17.9-0.6
		c6-0.5,11.7,0.5,17.6,0.9c6.6,0.5,13.2,1.1,19.8,1.6c6.6,0.5,13.4,0.8,20,1.6l-16.6-2.3c8.1,1.2,16.4,3.2,24,6.3
		c5.5-42.6,11.1-85.2,16.6-127.9c-4.4,0.4-8.7,0.7-13.1,0.9c-9.2,0.3-18,1.7-27.2,3.1l16.6-2.3c-8.5,1.2-17.1,1.9-25.5,3.7
		c-3.3,0.7-6.6,1.5-9.9,2.3c-6.8,1.7-13.6,3.6-20.3,5.7c-18.3,5.8-35.4,14.3-53,22.1l14.9-6.6c-18.1,7.9-35.9,16.4-54,24.4l14.9-6.6
		c-23.9,10.5-48.5,18.9-72.2,30.1l14.9-6.6c-2,0.9-4,1.5-6.2,2c-6.9,1.4-13,4.6-19.5,7.8c-4,2-7.9,4.3-12,6.2l14.9-6.6
		c-2.8,1.2-5.7,1.9-8.6,2.8c-7.9,2.4-15,6.6-22.5,10l14.9-6.6c-6.7,2.9-13.8,4.9-20.6,7.6s-13.6,5.2-20.7,6.8
		c20.3,36.3,40.6,72.5,60.9,108.8l0.3-0.3c-4.2,3.4-8.4,6.8-12.7,10.2l0.4-0.2l-14.9,6.6c0.7-0.3,1.4-0.5,2.1-0.6l-16.6,2.3
		c5.7-0.7,11.5-1,17.3-1.4c6.9-0.5,13.8-0.6,20.7-0.5c13.8,0.3,27.6,1,41.4,1.8c6.9,0.4,13.7,0.9,20.6,1.3
		c6.6,0.4,13.2,0.4,19.8,0.4c6.9,0.1,13.8,0.6,20.6,1c6.9,0.4,13.7,0.8,20.6,1.4c15.8,1.5,31.5,3.7,47.2,5.9l-16.6-2.3
		c17.2,2.4,34.3,4.7,51.5,7.1l-16.6-2.3c13.1,1.8,26.2,3.8,39.3,6.1c6.4,1.1,12.7,2.3,19.1,3.7c11.3,2.3,22.5,6.1,34.2,5.6
		c-10.5-40.4-21.1-80.9-31.6-121.3c-1.2,0.8-2.4,1.5-3.7,2.1c5-2.2,10-4.4,14.9-6.6c-4,1.7-8.2,2.9-12.3,4.6c-4.8,2-9.5,4-14.5,5.6
		c-9.8,3.1-19.9,5-29.9,7.6c-10,2.6-20,5.2-30.1,7.1c-10.2,1.8-21.2,3.8-31.8,5.6c-11.8,2-23.7,3.8-35.6,5.5
		c5.5-0.8,11.1-1.5,16.6-2.3c-6.7,0.9-13.3,1.7-20,2.6c-8.4,1.1-17,2-25.4,3.7c-3.2,0.7-6.4,1.5-9.6,2l16.6-2.3
		c-12.4,1.7-24.9,2.1-37.1,4.9c-7.2,1.7-14.4,3-21.6,4.6c-7.2,1.6-14.4,3.7-21.7,4.9c-7.3,1.3-14.7,2.3-22.1,3.4l16.6-2.3
		c-5.6,0.8-11.2,1.2-16.9,1.9c-10.9,1.4-21.7,3.1-32.5,5c-10.8,1.9-21.7,3.7-32.6,5.3l16.6-2.3c-3.8,0.5-7.5,1-11.3,1.3
		c-9,0.8-17.9,2.3-26.9,3.6l16.6-2.3c-4.6,0.6-9.3,0.9-13.9,1.2c-4,0.2-8.3,0.7-12.3,0.3c5.5,0.8,11.1,1.5,16.6,2.3
		c-0.4-0.1-0.9-0.2-1.3-0.3c5,39.7,10,79.3,14.9,119c0.4-0.3,0.8-0.6,1.3-0.8l-14.9,6.6l0.7-0.2l-16.6,2.3c10.9-1,21.8-0.7,32.8-0.7
		c5.6,0,11.1,0.2,16.7-0.1c5.6-0.3,11-0.7,16.6-0.7c5.6,0.1,10.7-0.2,16.1-0.8c5.4-0.6,11.2-0.2,16.7-0.2c11.4,0,22.7,0,34.1,0
		c22.6,0,45.2,0.1,67.7-0.1c11.2-0.1,22.3,0,33.4,0.8c11.4,0.8,22.7,1.7,34.1,2.2c12.4,0.5,24.9,0.3,37.3,1.6c6.3,0.7,12.6,1.5,19,2
		c6.4,0.5,12.8,0.9,19.1,1.8c-5.5-0.8-11.1-1.5-16.6-2.3c9.4,1.4,18.7,3.1,28.1,4.6c14.6,2.4,29.2,4.6,43.9,6.6
		c9.5,1.3,18.9,2.7,28.4,3.8c4.7,0.6,9.3,1.1,14,1.5c4.9,0.5,9.9,0.5,14.8,1.1l-16.6-2.3c3.9,0.6,7.8,1.8,11.7,2.5
		c3.8,0.7,7.6,1.2,11.2,2.6c-12.5-31.9-24.9-63.7-37.4-95.6l-0.3,0.4c3.3-4.4,6.5-8.8,9.8-13.2c-0.3,0.3-0.5,0.6-0.9,0.8
		c4.2-3.4,8.4-6.8,12.7-10.2c-2.3,1.7-5,3-7.6,4.2l14.9-6.6c-3.9,1.7-8.1,2.6-12,4.2c-3.9,1.6-8.2,2.5-12.4,3.5
		c-8.5,2.1-17.2,4.2-25.9,5.5l16.6-2.3c-2.9,0.4-5.7,0.3-8.6,0.4c-3.2,0.1-6.3,0.5-9.4,0.6c-3.2,0.1-6.2,0-9.2,0
		c-8.3,0.1-16.6,1.8-24.9,3.2l16.6-2.3c-2.3,0.3-4.6,0.2-6.9,0.3c-2.4,0.2-4.8,0.5-7.2,0.7c-10,0.7-19.5,2-29.5,3.4
		c-4.6,0.7-9.2,1.3-13.8,2.1c-4.8,0.8-9.6,2.1-14.4,2.8l16.6-2.3c-2.4,0.3-4.9,0.3-7.3,0.6c-7.9,0.8-15.7,2-23.5,3.2
		c-5,0.8-10,1.9-15,2.9c-9.8,2-19.7,4.2-29.7,5.6l16.6-2.3c-9.7,1.3-19.5,2.6-29.3,3.3c-4.8,0.3-9.5,0.4-14.3,0.8
		c-10.2,1-20.3,2.7-30.4,4.1c5.5-0.8,11.1-1.5,16.6-2.3c-13.5,1.9-27.1,2.8-40.6,3.9c-18.8,1.5-37.5,3.4-56.2,6.1l16.6-2.3
		c-5.7,0.8-11.5,0.6-17.3,1.2c-11.2,1.2-22.3,3-33.4,4.6l16.6-2.3c-12.2,1.7-24.3,2.7-36.6,2.7c-8.6-0.3-16.6,1.5-24.1,5.6
		c-7.8,2.6-14.5,7.1-20.1,13.5c-6.1,5.9-10.4,12.9-12.9,20.9c-3.9,7.8-5.7,16.1-5.4,25.1l2.2,17.3c3,11,8.3,20.6,16.1,28.7
		c4.2,3.4,8.4,6.8,12.7,10.2C274.3,451.9,284.9,454.8,296.1,454.8L296.1,454.8L296.1,454.8z"/>
</g>
<g id="Layer_1_00000091713430403283302720000016893250148235089338_">
	<path class="st1" d="M342.6,423.8c0.3,2.9,22.7-0.1,24.6-0.2c12.3-0.8,24.5-1.3,36.7-2.6c15-1.5,29.8-4,44.7-6
		c19.9-2.7,40-3.1,60.1-4.6c14.1-1.1,28.2-2.1,42.2-3.6c7.9-0.9,16.2-1.4,24-2.6c2.7-0.4,5.3-1.3,8.1-1.6c9.1-1.1,18.3-0.9,27.4-1.9
		c8.9-1.1,17.5-3.3,26.5-3.6c2.9-0.1,5.6-0.9,8.5-1c2.3-0.1,4.6,0,6.9,0c3.2,0,6.4,0,9.6,0c4.2,0,5.4-1.2,8.5-4.4
		c2.9-3,6-5.9,8.3-9.4s3.9-7.4,5.6-11.3c2.2-5.1,4.7-10,6.8-15.1c3-7.1,6.4-14.4,7.9-22c1.4-6.9,1.8-14.1,2.3-21.2
		c0.3-4.9,0.1-8.8-1.1-13.5c-1.9-7.6-3.3-15.9-6.4-23.1c-2.5-5.8-7.2-10.8-12.9-13.3c-2.2-1-4.3-1.8-6.4-2.8
		c-4.8-2.2-11.9-2.6-16.9-3.4c-8.5-1.3-17.2-1.9-25.7-2c-3.3-0.1-9-1.1-12.1,0.3c0.5,2.2,10.6-7.8,11.5-9.1c1.5-2.3,3.6-4.1,4.8-6.6
		c2.3-5,4.2-11,5.3-16.4c3-13.7,1.4-27.1-0.2-40.9c-0.7-6.1-0.7-12.3-2-18.4c-1.1-4.9-2.3-9.8-3.5-14.6c-2-8.2-5.9-13.8-12.9-18.2
		c-1.8-1.1-3.6-1.5-5.6-2.2c-8.5-3-17.5-4.4-26.2-6.4c-5.3-1.3-10.3-1.7-15.7-1.7c-7.3,0-14.7-0.4-22,0.2c-9.5,0.7-19,3.3-27.4,8.1
		c-1.3-1-0.1-4.5,0-6c0.2-3.7,0.2-7.4,0.1-11.2c-0.2-7.3-2.2-12.9-6.5-18.5c-5.6-7.1-14.5-10.1-22.3-13.7c-6.1-2.8-12.2-5.6-18.5-8
		c-5.9-2.2-11.9-3.5-17.9-5.3c-1.5-0.5-2.9-1.1-4.3-1.6c-3.8-1.2-9.2-1.2-12.7-1.4c-11.1-0.8-22.5-1.5-33.7-0.8
		c-4.4,0.3-6.1,1.3-8.1,5.4c-2.9,5.7-5,12.3-5.7,18.8c-6.4,0.2-12.9-0.1-19.3-0.1c-18.2-0.1-37.1,1.7-54.7,6.9
		c-14,4.1-25.4,12.5-32.4,25.9c-3.5,6.6-5.8,12.1-6.7,19.6c-1.1,9.5-0.2,19,5.4,26.9c5.6,7.9,14.5,12.6,22.4,16.6
		c1.9,0.9,13.4,4.3,13.5,6.2c-16.3,0.8-32.2,10.6-44.6,21.1c-9.9,8.4-19.1,18.2-26.5,29c-5.4,7.9-9.4,16.5-13.1,25.4
		c-2.3,5.5-3.3,10.6-3.6,16.5c-0.2,3.1-0.1,6.2,0.2,9.2c1.3,2.7,3.1,4.8,5.6,6.5c10.2,8,23.4,12.1,36.2,11.4c-3,0.4-5.8,1.8-8.4,3.1
		c-4.9,2.6-9.7,5.4-14.4,8.4c-5.5,3.2-10.7,6.8-15.6,10.8c-13.2,11.7-23.2,26.1-30.7,42.2c-2.3,4.9-5.2,11.7-5.4,17.4
		c-0.2,3.6,3,7.7,4.8,10.2c2.7,3.7,5.5,7.3,8.8,10.5c5.8,5.4,13,9,20,12.5c10.9,5.5,22.9,8.7,34.8,10.9c10.6,2,21.8,4.3,32.6,4.6
		c9,0.3,18.2,1.4,27.2,1c9.5-0.4,18.4-3.7,26.8-8.1"/>
</g>
<path class="st2" d="M324.3,480.5c3.9-5.1-4.8-10.1-8.6-5c-12.2,15.9-24.6,33.7-21.4,54.8c1.1,7.4,5.2,19.6,14,20.6
	c11.3,1.3,10.2-18,9.8-24.9c-0.3-6.4-10.3-6.4-10,0c0.2,4.1,0.2,8.1-0.4,12.1c-0.5-0.6-1-1.3-1.2-1.8c-2.8-5.8-3.3-12.6-2.2-18.9
	C306.4,503.3,315.8,491.5,324.3,480.5z"/>
<path class="st2" d="M628.3,457.9c5.2-3.7,0.2-12.4-5-8.6c-15.5,11.2-30.2,32-27.5,52.2c1.3,9.9,8.6,15.7,18.4,15.8
	c4.2,0,9.6-0.1,12.3-3.8c3.1-4.1,1.6-11.7,1.5-16.5c0-6.4-10-6.4-10,0c0,2.1,0,4.2,0,6.2c0,0.6-0.1,3,0.1,3.9
	c-0.8-0.2-3.3,0.2-4,0.1c-1.5,0-3.1,0-4.5-0.6c-5.7-2.5-4.5-10.8-3.3-15.6C609.4,477.7,617.2,465.9,628.3,457.9z"/>
<path class="st1" d="M416,198c4,0,7.8-0.1,11.5,1.6c6.9,3.1,14.9,7,20.4,12.5c1.7,1.7,2.7,3.9,4,5.9c1.6,2.4,3.5,4.7,5.1,7.2
	c2.4,3.8,4.5,7.8,6,12.1c1.5,4.4,1.5,10,1.9,14.7c0.3,4.2,0,8.4-1,12.6c-1.4,6-6.6,14.3-12.5,16.6c-2.9,1.1-5.7,1-8.7,1
	c-7.7,0-12.9-2.8-19.6-6.1c-3.9-1.9-6.8-5.4-9.6-8.6c-4.7-5-9.7-10.9-12.4-17.3c-2-4.6-3.5-11-3.3-16.1c0.4-7.8,4.1-15.6,6.2-23.1"
	/>
<path class="st1" d="M521,214c2.6-0.5,4.3-1,7-1c3.5,0,7,0,10.6,0c2.9,0,6.1-0.4,9,0c2.1,0.3,4,1.3,6,2c5.6,2.1,11.1,5.4,14.7,10.3
	c1.4,1.8,2.2,4,3.2,6c2.1,3.9,4.4,7.7,6.2,11.8c2.2,5,4.8,9.9,6.5,15.1c0.9,2.9,1.7,5.8,2,8.8c0.4,4.5,1.9,8.8,2,13.3
	c0.2,4,0.7,8.9-0.6,12.7c-1,3-4.2,6.3-6.7,8.2c-4.8,3.5-11.1,3.2-16.8,4.2c-7.6,1.3-15.1-0.3-22.3-3.1c-10.4-4-17.4-13.7-22.8-23
	c-6-10.4-10.8-21-10.9-33.2"/>
<path class="st1" d="M457.5,325.7c0,1.4,2.3,2.7,3.1,3.9c1.4,2.1,2,3.3,4.7,5.1c3.9,2.5,6.7,5.6,10.5,8.1c2.8,1.9,6.1,3.8,10.1,4
	c8.8,0.4,16.2-2.2,23.7-4.9c8.2-3.1,15.9-6.6,22.5-11.1"/>
<g id="Layer_2_00000076569483682893823570000018006525191340614792_">
	<path class="st3" d="M414.5,587.3c0.2,0.3,0.3,0.6,0.4,1c0,0.2,0.1,0.3,0.1,0.5c0.1,0.2,0.1,0.4,0.2,0.5c0.1,0.3,0.3,0.6,0.6,0.9
		c0.1,0.1,0.2,0.2,0.4,0.3c0.1,0.1,0.3,0.3,0.4,0.4c0.2,0.3,0.5,0.6,0.7,0.9c0.2,0.3,0.5,0.6,0.8,0.8c0.5,0.5,1.2,1,1.7,1.5
		c0.2,0.1,0.3,0.3,0.4,0.5c0.1,0.2,0.2,0.3,0.4,0.4c0.3,0.3,0.6,0.5,0.9,0.8c0.2,0.2,0.6-0.1,0.3-0.3c-0.2-0.2-0.5-0.4-0.8-0.6
		c-0.3-0.2-0.5-0.5-0.7-0.8c-0.5-0.5-1.1-1-1.7-1.5c-0.3-0.3-0.5-0.5-0.8-0.8c-0.3-0.3-0.5-0.6-0.7-0.9c-0.2-0.3-0.4-0.6-0.7-0.8
		c-0.1-0.1-0.2-0.2-0.4-0.3c-0.1-0.1-0.2-0.3-0.2-0.4c-0.1-0.2-0.2-0.4-0.2-0.5c-0.1-0.2-0.1-0.4-0.2-0.6c-0.1-0.4-0.3-0.8-0.5-1.2
		C414.7,586.8,414.3,587,414.5,587.3L414.5,587.3L414.5,587.3z"/>
	<path class="st3" d="M425.7,553.3C425.7,553.3,425.7,553.3,425.7,553.3l0.5,0.7c0-0.1-0.1-0.1-0.1-0.2l0.4,0.8
		c-0.1-0.3-0.3-0.7-0.4-1c-0.1-0.3-0.6-0.8-0.7-0.9c-0.1-0.1-0.3-0.3-0.4-0.4l0.6,0.7c-0.3-0.4-0.5-0.9-0.8-1.4
		c-0.5-0.7-1.1-1.3-1.7-2l0.6,0.7c-0.2-0.2-0.3-0.5-0.5-0.7c-0.3-0.5-0.7-0.9-1.1-1.3c-0.7-0.5-1.3-1.1-2-1.5
		c-0.2-0.1-0.5-0.3-0.7-0.4c-0.5-0.2-1.1-0.5-1.6-0.6c-0.5-0.2-1-0.3-1.6-0.4c-0.9-0.2-1.8-0.3-2.7-0.4c-0.6-0.1-1.2-0.1-1.8,0
		c-0.6,0-1.2,0.1-1.8,0.2c-0.9,0.1-1.9,0.2-2.8,0.4c-0.3,0.1-0.6,0.1-0.9,0.2c-0.4,0.1-0.8,0.3-1.2,0.5c-0.1,0-0.2,0.1-0.3,0.2
		c-0.3,0.2-0.6,0.4-0.9,0.6c0,0-0.1,0.1-0.1,0.1c-0.1,0.1-0.2,0.2-0.3,0.3c-0.4,0.5-0.8,1-1.2,1.5l0.6-0.7c-0.3,0.3-0.5,0.7-0.8,1
		c-0.3,0.3-0.5,0.6-0.7,0.9c-0.1,0.1-0.1,0.1-0.2,0.2c-0.1,0.1-0.2,0.3-0.3,0.4c-0.3,0.6-0.6,1.2-0.8,1.8c-0.1,0.3-0.3,0.7-0.4,1
		c-0.2,0.4-0.3,0.9-0.5,1.3l0.4-0.8c-0.3,0.7-0.6,1.3-0.9,2c-0.1,0.4-0.2,0.8-0.3,1.2s-0.2,0.8-0.3,1.2c-0.1,0.5-0.2,1-0.2,1.5
		c0,0.4,0.1,0.7,0.1,1.1c0.1,0.6,0.2,1.1,0.4,1.6c0.3,0.7,0.6,1.3,0.9,1.9c0.1,0.2,0.2,0.4,0.3,0.5c0.3,0.4,0.6,0.8,1,1.1
		c0.4,0.3,0.8,0.6,1.2,0.9c0.2,0.1,0.4,0.3,0.5,0.4c0.7,0.5,1.5,0.9,2.3,1.3c0.7,0.3,1.4,0.6,2.1,0.9c0.4,0.2,0.8,0.3,1.3,0.4
		c0.8,0.3,1.7,0.5,2.6,0.6c1.2,0.2,2.5,0.3,3.8,0.3c1.3,0,2.5-0.2,3.8-0.5c0.4-0.1,0.9-0.2,1.4-0.3c0.7-0.2,1.4-0.5,2-0.9
		c0.4-0.2,0.7-0.4,1-0.6c0.6-0.4,1.1-0.8,1.6-1.3c0.3-0.3,0.6-0.5,0.8-0.8c0.4-0.5,0.9-1.1,1.2-1.6c0.1-0.2,0.2-0.3,0.3-0.5
		c0.2-0.3,0.3-0.7,0.5-1c0-0.1,0.1-0.2,0.1-0.3c0.1-0.5,0.2-1,0.2-1.5c0-0.2,0.1-0.4,0.1-0.6c0.1-0.9,0.2-1.9,0.1-2.8
		c0-0.8-0.1-1.5-0.2-2.3c-0.1-0.5-0.3-0.9-0.5-1.3c-0.1-0.1-0.1-0.3-0.2-0.4c-0.2-0.3-0.4-0.6-0.6-1c-0.4-0.6-0.8-1.2-1.3-1.7
		c-0.5-0.5-1.1-0.9-1.7-1.4c-0.2-0.1-0.3-0.2-0.5-0.3c-0.5-0.2-0.9-0.4-1.4-0.5c-0.9-0.3-1.7-0.6-2.6-0.8c-0.4-0.1-0.9-0.2-1.3-0.3
		c-0.7-0.1-1.5-0.2-2.2-0.3c-0.9-0.1-1.8-0.1-2.7-0.1c-0.2,0-0.4,0-0.7,0.1c-0.5,0.1-1.1,0.1-1.6,0.2c-0.4,0.1-0.9,0.2-1.3,0.3
		c-0.1,0-0.2,0-0.3,0.1c-0.4,0.1-0.8,0.2-1.1,0.5c-0.7,0.5-0.7,0.5-1.2,1c-0.1,0.2-0.3,0.3-0.4,0.6c-0.2,0.4-0.4,0.8-0.5,1.3
		c-0.1,0.2-0.2,0.4-0.2,0.6c-0.3,0.8-0.5,1.7-0.7,2.6c0,0.2-0.1,0.5-0.1,0.7c-0.1,0.5-0.2,1.1-0.2,1.6c0,0.5,0,0.9,0,1.4
		c0,0.5,0.1,1,0.2,1.5c0,0.2,0.1,0.4,0.2,0.6c0,0.1,0.1,0.2,0.1,0.3c0.2,0.4,0.3,0.7,0.5,1.1c0.1,0.2,0.2,0.3,0.3,0.5
		c0.3,0.4,0.6,0.8,0.9,1.1c0.1,0.2,0.3,0.3,0.4,0.4c0.1,0.1,0.3,0.3,0.4,0.4c0.4,0.3,0.8,0.6,1.2,0.8c0.6,0.3,1.2,0.6,1.8,0.8
		c0.4,0.1,0.7,0.2,1.1,0.3c0.5,0.1,1,0.2,1.5,0.2c0.2,0,0.4,0,0.6,0.1c0.4,0,0.8,0,1.2,0c0.2,0,0.4,0,0.6,0c0.5-0.1,1-0.1,1.5-0.2
		c0.4-0.1,0.7-0.2,1.1-0.2c0.4-0.1,0.9-0.2,1.3-0.3c0.5-0.1,1-0.3,1.4-0.6c0.2-0.1,0.3-0.2,0.5-0.3c0.6-0.4,1.1-0.8,1.6-1.3
		c0.4-0.5,0.9-1,1.2-1.6c0-0.1,0.1-0.2,0.1-0.3c0.2-0.4,0.3-0.7,0.5-1.1c0.1-0.2,0.1-0.4,0.2-0.6c0-0.1,0-0.2,0-0.3
		c0.1-0.4,0.1-0.8,0.2-1.2c0-0.2,0-0.4,0-0.6c0-0.4,0-0.8,0-1.1c0-0.1,0-0.2,0-0.3c0-0.3-0.1-0.7-0.1-1c0,0,0-0.1,0-0.2
		c0,0,0-0.1,0-0.1c-0.1-0.3-0.3-0.6-0.4-0.9c0-0.1-0.1-0.2-0.1-0.2c-0.2-0.4-0.5-0.7-0.8-1.1c-0.1-0.1-0.2-0.2-0.3-0.3
		c-0.5-0.4-1-0.8-1.5-1c-0.9-0.4-1.8-0.7-2.7-0.9c-0.4-0.1-0.8-0.2-1.3-0.2c-0.5-0.1-1.1-0.2-1.6-0.2c-0.5,0-1.1,0.1-1.6,0.2
		c-0.7,0.1-1.3,0.4-1.9,0.7c-0.6,0.3-1.1,0.7-1.7,1.1c-0.3,0.2-0.6,0.5-0.8,0.8c-0.1,0.1-0.1,0.1-0.2,0.2c-0.2,0.3-0.5,0.6-0.7,0.9
		c-0.1,0.2-0.2,0.3-0.3,0.5c-0.2,0.3-0.3,0.7-0.5,1.1c0,0.1-0.1,0.2-0.1,0.3c0,0.1,0,0.2-0.1,0.3c-0.1,0.4-0.1,0.8-0.2,1.2
		c0,0.2,0,0.4,0,0.5c0,0.4,0.1,0.8,0.2,1.1c0,0.1,0,0.1,0.1,0.2c0.1,0.3,0.3,0.7,0.4,1c0,0.1,0.1,0.1,0.1,0.2
		c0.2,0.3,0.4,0.6,0.7,0.8c0.1,0.2,0.4,0.3,0.5,0.4s0.4,0.3,0.5,0.4c0,0,0.1,0,0.1,0c0.3,0.1,0.7,0.3,1,0.4c0.5,0.2,1.1,0.2,1.6,0.3
		c0.2,0,0.4,0,0.6,0c0.4,0,0.8-0.1,1.2-0.2c0.1,0,0.2,0,0.3-0.1c0.7-0.2,1.3-0.5,2-0.8l-0.9,0.4c0.4-0.2,0.8-0.3,1.2-0.5
		c0.1-0.1,0.2-0.1,0.3-0.2c0.7-0.5,1.1-0.8,1.5-1.5c0.1-0.3,0.3-0.6,0.4-1c0-0.2,0-0.3,0.1-0.5c0-0.2,0-0.3,0.1-0.5c0,0,0,0,0-0.1
		c0-0.3-0.1-0.6-0.1-0.9c0,0,0,0,0,0c0,0,0,0,0-0.1c-0.1-0.3-0.2-0.6-0.4-0.9c-0.2-0.4-0.5-0.7-0.8-1c-0.2-0.2-0.3-0.3-0.5-0.5
		c-0.3-0.3-0.7-0.6-1.2-0.7c-0.4-0.2-0.9-0.3-1.4-0.3c-0.5,0-1,0.1-1.4,0.3c-0.4,0.1-0.9,0.4-1.2,0.7l-0.6,0.7
		c-0.3,0.6-0.5,1.1-0.5,1.8l0.1,0.9c0.2,0.6,0.5,1.1,0.9,1.5c0.2,0.2,0.4,0.4,0.6,0.6l-0.6-0.7c0,0.1,0.1,0.1,0.1,0.2l-0.4-0.8
		c0,0,0,0.1,0,0.2l-0.1-0.9c0,0,0,0.1,0,0.1l0.1-0.9c0,0,0,0.1,0,0.1l0.4-0.8c0,0,0,0.1-0.1,0.1l0.6-0.7c0,0.1-0.1,0.1-0.1,0.1
		l0.7-0.6c-0.2,0.1-0.3,0.2-0.5,0.3l0.9-0.4c-0.4,0.2-0.8,0.3-1.2,0.5c-0.2,0.1-0.3,0.1-0.5,0.2l0.9-0.4c-0.3,0.1-0.6,0.2-1,0.3
		l1-0.1c-0.2,0-0.4,0-0.7,0l1,0.1c-0.2,0-0.4-0.1-0.6-0.2l0.9,0.4c-0.1,0-0.2-0.1-0.3-0.2l0.7,0.6c-0.1-0.1-0.1-0.1-0.2-0.2l0.6,0.7
		c-0.1-0.1-0.1-0.2-0.2-0.3l0.4,0.8c-0.1-0.2-0.1-0.3-0.1-0.5l0.1,0.9c0-0.3,0-0.5,0-0.8l-0.1,0.9c0-0.2,0.1-0.5,0.2-0.7l-0.4,0.8
		c0.1-0.3,0.3-0.5,0.5-0.8l-0.6,0.7c0.3-0.4,0.7-0.7,1.1-1l-0.7,0.6c0.3-0.2,0.7-0.4,1-0.6l-0.9,0.4c0.4-0.2,0.8-0.3,1.2-0.3l-1,0.1
		c0.3,0,0.6,0,0.9,0l-1-0.1c0.5,0.1,1.1,0.2,1.6,0.3c0.4,0.1,0.9,0.2,1.3,0.4l-0.9-0.4c0.3,0.1,0.7,0.3,0.9,0.5l-0.7-0.6
		c0.2,0.1,0.4,0.3,0.5,0.5l-0.6-0.7c0.1,0.2,0.2,0.3,0.3,0.5l-0.4-0.8c0,0.1,0.1,0.2,0.1,0.4l-0.1-0.9c0,0.4,0,0.7,0,1.1
		c0,0.4,0,0.8-0.1,1.1l0.1-0.9c-0.1,0.4-0.1,0.7-0.3,1.1l0.4-0.8c-0.2,0.4-0.4,0.8-0.7,1.1l0.6-0.7c-0.2,0.3-0.5,0.6-0.8,0.8
		l0.7-0.6c-0.2,0.1-0.4,0.3-0.6,0.3l0.9-0.4c-0.6,0.2-1.2,0.3-1.7,0.5c-0.5,0.1-1,0.2-1.5,0.3c0.3,0,0.6-0.1,1-0.1
		c-0.8,0.1-1.7,0.1-2.5,0l1,0.1c-0.6-0.1-1.2-0.2-1.7-0.5l0.9,0.4c-0.4-0.2-0.8-0.4-1.2-0.6l0.7,0.6c-0.4-0.3-0.7-0.6-0.9-0.9
		l0.6,0.7c-0.3-0.3-0.5-0.7-0.7-1.1l0.4,0.8c-0.2-0.4-0.3-0.8-0.3-1.2l0.1,0.9c-0.1-0.7-0.1-1.4,0-2l-0.1,0.9
		c0.1-0.8,0.3-1.6,0.5-2.4c0.2-0.7,0.4-1.4,0.7-2.1l-0.4,0.8c0-0.1,0.1-0.2,0.1-0.2l-0.6,0.7c0,0,0.1-0.1,0.1-0.1l-0.7,0.6
		c0,0,0.1-0.1,0.1-0.1l-0.9,0.4c0.2-0.1,0.3-0.1,0.5-0.1c0.2,0,0.4-0.1,0.5-0.1c0.4-0.1,0.7-0.2,1.1-0.2l-1,0.1
		c1.2-0.2,2.5-0.1,3.7,0l-1-0.1c0.9,0.1,1.9,0.3,2.8,0.6c0.5,0.1,1,0.3,1.4,0.4c0.4,0.1,0.8,0.2,1.2,0.4l-0.9-0.4
		c0.2,0.1,0.4,0.2,0.6,0.3l-0.7-0.6c0.2,0.2,0.4,0.4,0.6,0.5c0.2,0.2,0.4,0.4,0.6,0.6l-0.6-0.7c0.3,0.3,0.4,0.7,0.7,1.1
		c0.2,0.3,0.4,0.6,0.6,0.9l-0.4-0.8c0.1,0.2,0.1,0.4,0.2,0.6c0-0.3-0.1-0.6-0.1-0.9c0.1,0.8,0.1,1.6,0.1,2.4c0,0.8-0.1,1.5-0.2,2.3
		c0-0.3,0.1-0.6,0.1-0.9c0,0.3-0.1,0.6-0.2,0.9l0.4-0.8c-0.2,0.5-0.5,1-0.9,1.5l0.6-0.7c-0.5,0.6-1,1.1-1.6,1.5l0.7-0.6
		c-0.6,0.5-1.3,0.9-2,1.2l0.9-0.4c-0.5,0.2-1,0.3-1.5,0.4s-1.1,0.2-1.6,0.3l1-0.1c-1.2,0.2-2.5,0.1-3.7,0c0.3,0,0.6,0.1,1,0.1
		c-1.5-0.2-3-0.6-4.4-1.2l0.9,0.4c-0.7-0.3-1.4-0.6-2-0.9c-0.6-0.4-1.3-0.7-1.9-1.2l0.7,0.6c-0.3-0.2-0.6-0.5-0.9-0.8l0.6,0.7
		c-0.2-0.2-0.3-0.5-0.4-0.7c-0.1-0.2-0.3-0.5-0.4-0.8l0.4,0.8c-0.2-0.4-0.3-0.9-0.4-1.4l0.1,0.9c0-0.4-0.1-0.7,0-1.1l-0.1,0.9
		c0.1-0.6,0.3-1.1,0.4-1.7s0.2-1.1,0.5-1.6l-0.4,0.8c0.2-0.6,0.5-1.1,0.7-1.6c0.1-0.3,0.2-0.6,0.4-0.9c0.2-0.5,0.4-1,0.6-1.5
		l-0.4,0.8c0.2-0.5,0.4-0.9,0.7-1.3l-0.6,0.7c0.3-0.3,0.5-0.6,0.8-0.9c0.4-0.6,0.9-1.1,1.3-1.7l-0.6,0.7c0.1-0.2,0.3-0.3,0.5-0.5
		l-0.7,0.6c0.1-0.1,0.3-0.2,0.4-0.2l-0.9,0.4c0.7-0.3,1.4-0.4,2.1-0.5l-1,0.1c0.9-0.1,1.7-0.2,2.6-0.2s1.7-0.1,2.5,0l-1-0.1
		c0.6,0.1,1.2,0.2,1.8,0.4c0.6,0.2,1.1,0.3,1.7,0.5l-0.9-0.4c0.5,0.2,1.1,0.5,1.5,0.8l-0.7-0.6c0.2,0.1,0.3,0.3,0.5,0.4
		c0.2,0.1,0.3,0.3,0.5,0.4l-0.6-0.7c0.1,0.2,0.2,0.4,0.4,0.6c0.3,0.4,0.6,0.8,0.9,1.2c0.1,0.2,0.3,0.3,0.4,0.5
		c0.1,0.2,0.3,0.3,0.5,0.5l-0.6-0.7c0.3,0.3,0.4,0.7,0.6,1c0.1,0.2,0.2,0.3,0.3,0.5c0.2,0.3,0.5,0.6,0.8,0.9
		c0.1,0.1,0.1,0.2,0.2,0.2l-0.6-0.7c0.1,0.1,0.1,0.2,0.1,0.3l-0.4-0.8c0.1,0.3,0.3,0.7,0.4,1c0.2,0.3,0.4,0.6,0.7,0.9
		c0.3,0.3,0.7,0.6,1.2,0.7c0.4,0.2,0.9,0.3,1.4,0.3c0.5,0,1-0.1,1.4-0.3c0.5-0.1,0.9-0.4,1.2-0.7l0.6-0.7c0.3-0.6,0.5-1.1,0.5-1.8
		c0-0.3-0.1-0.6-0.1-0.9C426.5,554.3,426.2,553.8,425.7,553.3L425.7,553.3L425.7,553.3z"/>
	<path class="st3" d="M411.9,562.3c-0.3,0.2-0.6,0.4-0.8,0.6c-0.1,0.1-0.5,0.6-0.6,0.7c0,0,0,0,0,0c-0.1,0.2-0.3,0.7-0.4,0.9
		c0,0,0,0,0,0.1c0,0,0,0.1,0,0.2c-0.1,0.5-0.2,1-0.1,1.5c0,0.2,0,0.4,0,0.5c0,0.3,0,0.6,0,0.9c0,0.3,0,0.7,0,1c0,0.3,0.1,0.6,0.1,1
		c0,0.7,0,1.3,0,2c0,0.4,0,0.8,0,1.1c0,0.7,0.2,1.3,0.3,1.9l-0.1-0.9c0,0.3,0,0.7,0,1c0,0.6,0.1,1.3,0.2,1.9l-0.1-0.9
		c0,0.3,0,0.5,0,0.8c0,0.6,0.1,1.1,0.2,1.7l-0.1-0.9c0.1,1,0,2.1,0,3.1c0,0.5,0.1,1,0.1,1.5s0,1,0,1.5l0.1-0.9
		c-0.1,0.5-0.2,1-0.2,1.6c0,0.1,0,0.2,0,0.3c0,0.4,0.1,0.8,0.2,1.2l-0.1-0.9c0,0.1,0,0.2,0,0.3l0.1-0.9c0,0,0,0.1,0,0.1l0.4-0.8
		c0,0.1-0.1,0.1-0.1,0.2l0.6-0.7c-0.2,0.3-0.5,0.5-0.8,0.8l0.7-0.6c-0.6,0.4-1.2,0.8-1.8,1.2c-0.9,0.6-1.7,1.2-2.5,1.8
		c-1.4,1.1-2.7,2.2-3.6,3.6c-0.2,0.3-0.4,0.7-0.6,1.1c-0.1,0.1-0.2,0.3-0.3,0.4c-0.3,0.4-0.5,0.8-0.6,1.3c-0.2,0.5-0.2,0.9-0.1,1.4
		c0,0.5,0.2,0.9,0.4,1.3c0.2,0.4,0.5,0.7,0.9,1c0.4,0.3,0.8,0.5,1.3,0.6c0.3,0,0.6,0.1,1,0.1c0.7,0,1.3-0.2,1.8-0.5l0.7-0.6
		c0.4-0.4,0.8-1,0.9-1.5c0-0.1,0-0.1,0.1-0.2l-0.4,0.8c0.1-0.2,0.2-0.3,0.3-0.4c0.1-0.2,0.2-0.4,0.3-0.6c0.2-0.4,0.4-0.8,0.7-1.1
		l-0.6,0.7c0.4-0.6,1-1,1.5-1.5c0.6-0.5,1.2-1,1.8-1.4l-0.7,0.6c0.8-0.6,1.7-1.2,2.6-1.8c0.4-0.3,0.9-0.6,1.3-0.9
		c0.2-0.2,0.4-0.3,0.5-0.5c0.3-0.3,0.5-0.6,0.8-0.9c0,0,0-0.1,0.1-0.1c0.1-0.2,0.1-0.3,0.2-0.5c0.1-0.2,0.1-0.3,0.2-0.5
		c0.3-0.9,0.1-1.6,0-2.5c0,0.3,0.1,0.6,0.1,0.9c0-0.2,0-0.4,0-0.6c0,0.3-0.1,0.6-0.1,0.9c0.1-0.7,0.3-1.5,0.3-2.2
		c0-0.5-0.1-0.9-0.1-1.3c-0.1-0.9,0-1.9,0-2.8c0-0.8-0.1-1.7-0.2-2.5l0.1,0.9c0-0.2,0-0.5,0-0.7c0-0.5-0.1-1.1-0.2-1.6l0.1,0.9
		c-0.1-0.4-0.1-0.8-0.1-1.2c0-0.7-0.2-1.4-0.3-2.1l0.1,0.9c-0.1-0.5,0-1.1,0-1.6s0-1.1,0-1.6c0-0.5-0.1-1.1-0.1-1.6c0-0.5,0-1,0-1.5
		c0-0.3-0.1-0.7,0-1.1c0,0.3-0.1,0.6-0.1,0.9c0-0.1,0-0.2,0.1-0.2l-0.4,0.8c0,0,0-0.1,0-0.1l-0.6,0.7c0,0,0,0,0,0l-0.7,0.6l0,0
		c0.4-0.2,0.8-0.5,1-0.9c0.3-0.3,0.5-0.7,0.7-1.2c0.2-0.5,0.2-0.9,0.1-1.4c0-0.5-0.2-0.9-0.4-1.3l-0.6-0.7c-0.5-0.4-1-0.7-1.6-0.9
		l-1-0.1C413.1,561.8,412.4,562,411.9,562.3L411.9,562.3L411.9,562.3z"/>
	<path class="st3" d="M412.7,588.6c0.1,0.1,0.2,0.3,0.3,0.5c0.1,0.2,0.2,0.3,0.3,0.4c0.4,0.5,0.8,1,1.2,1.5c0.5,0.5,1.1,1,1.6,1.6
		l-0.6-0.7c0.5,0.6,1,1.2,1.5,1.8c0.3,0.4,0.7,0.8,1,1.1l-0.6-0.7c0.3,0.4,0.7,0.8,1,1.2c0.2,0.2,0.4,0.3,0.5,0.5l-0.6-0.7
		c0.1,0.2,0.3,0.4,0.4,0.6c0.3,0.4,0.6,0.8,1,1.2c0.3,0.3,0.7,0.6,1.2,0.7c0.4,0.2,0.9,0.3,1.4,0.3c0.5,0,1-0.1,1.4-0.3
		c0.5-0.1,0.9-0.4,1.2-0.7l0.6-0.7c0.3-0.5,0.5-1.1,0.5-1.8l-0.1-0.9c-0.2-0.6-0.5-1.1-0.9-1.5c0-0.1-0.1-0.1-0.1-0.2l0.6,0.7
		c-0.1-0.2-0.3-0.3-0.4-0.5c-0.3-0.4-0.6-0.8-0.9-1.2c-0.3-0.3-0.6-0.6-0.9-0.9l0.6,0.7c-0.4-0.6-0.9-1.1-1.4-1.6
		c-0.3-0.3-0.6-0.6-0.8-0.9l0.6,0.7c-0.4-0.4-0.7-0.9-1.1-1.3c-0.2-0.2-0.4-0.4-0.6-0.6c-0.4-0.4-0.8-0.8-1.2-1.2l0.6,0.7
		c-0.2-0.2-0.3-0.4-0.5-0.6c-0.2-0.2-0.2-0.5-0.4-0.7c-0.2-0.4-0.5-0.7-0.9-1c-0.4-0.3-0.8-0.5-1.3-0.6c-0.5-0.2-1-0.2-1.5-0.1
		c-0.5,0-0.9,0.2-1.4,0.4l-0.7,0.6c-0.4,0.4-0.8,1-0.9,1.5l-0.1,0.9C412.2,587.4,412.4,588,412.7,588.6L412.7,588.6L412.7,588.6z"/>
	<path class="st3" d="M414.5,546.1L414.5,546.1l0.7,0.5c0,0,0,0,0,0l0.6,0.7c0,0,0,0,0,0l0.4,0.8c0,0,0,0,0-0.1l0.1,0.9
		c0,0,0-0.1,0-0.2l-0.1,0.9c0-0.2,0.1-0.3,0.2-0.5l-0.4,0.8c0.2-0.4,0.3-0.7,0.5-1.1c0-0.1,0.1-0.2,0.1-0.3c0.1-0.6,0.2-1.3,0.2-1.9
		c0-0.7-0.1-1.4,0-2.1l-0.1,0.9c0.1-0.6,0.2-1.2,0.2-1.7c0-0.3,0-0.6,0-0.9c0-0.6,0-1.2,0-1.8c0-1.2-0.1-2.4-0.1-3.6
		c0-0.3,0-0.6,0-1c0-0.6-0.2-1.2-0.3-1.8c0,0.3,0.1,0.6,0.1,0.9c0-0.4,0-0.8,0-1.2c0-0.4-0.1-0.8-0.1-1.2c0-0.2,0-0.4,0-0.6
		c0-0.5-0.1-1-0.2-1.5c-0.1-0.4-0.2-0.7-0.2-1.1c0,0.3,0.1,0.6,0.1,0.9c-0.1-0.5,0-1.1-0.2-1.6c-0.1-0.2-0.2-0.4-0.2-0.7
		c0,0.3,0.1,0.6,0.1,0.9c0-0.3-0.1-0.7-0.1-1.1c0-0.2-0.1-0.4-0.2-0.5c-0.1-0.2-0.1-0.4-0.2-0.5c-0.1-0.1-0.2-0.3-0.3-0.4
		c-0.2-0.3-0.4-0.5-0.7-0.6c-0.2-0.2-0.5-0.4-0.8-0.5c-0.2-0.1-0.3-0.1-0.5-0.2l0.9,0.4c0,0-0.1,0-0.1-0.1l0.7,0.6
		c0,0-0.1-0.1-0.1-0.1l0.6,0.7c-0.1-0.2-0.2-0.3-0.3-0.5c-0.2-0.4-0.6-0.8-0.9-1.1c-0.2-0.3-0.5-0.5-0.7-0.8l0.6,0.7
		c-0.2-0.2-0.3-0.4-0.4-0.6c-0.3-0.4-0.7-0.8-1-1.2l0.6,0.7c-0.5-0.6-1-1.3-1.6-2c-0.4-0.4-0.8-0.8-1.2-1.2
		c-0.4-0.4-0.9-0.8-1.3-1.2c-0.6-0.6-1.3-1.1-2-1.6c-0.2-0.2-0.5-0.3-0.7-0.5c-0.2-0.1-0.5-0.2-0.7-0.4l0.7,0.6c0,0-0.1-0.1-0.1-0.1
		c-0.3-0.3-0.7-0.6-1.2-0.7c-0.4-0.2-0.9-0.3-1.4-0.3c-0.5,0-1,0.1-1.4,0.3c-0.4,0.1-0.9,0.4-1.2,0.7L400,519
		c-0.3,0.6-0.5,1.1-0.5,1.8l0.1,0.9c0.2,0.6,0.5,1.1,0.9,1.5c0,0,0.1,0.1,0.1,0.1c0.3,0.2,0.5,0.4,0.8,0.6c0.1,0.1,0.2,0.1,0.3,0.2
		c0.2,0.1,0.3,0.2,0.5,0.2c0.4,0.2,0.8,0.5,1.2,0.8l-0.7-0.6c0.7,0.5,1.3,1.1,1.9,1.7c0.6,0.6,1.2,1.1,1.7,1.7l-0.6-0.7
		c0.5,0.6,0.9,1.2,1.4,1.8l-0.6-0.7c0.1,0.2,0.3,0.3,0.4,0.5c0.3,0.4,0.6,0.8,0.9,1.2c0.3,0.3,0.5,0.6,0.8,0.9l-0.6-0.7
		c0.2,0.2,0.3,0.5,0.4,0.7c0.2,0.3,0.4,0.7,0.7,0.9c0.7,0.6,1,0.7,1.8,1l-2.2-1.6c0,0,0,0.1,0.1,0.1l-0.4-0.8c0,0.1,0,0.1,0,0.2
		l-0.1-0.9c0.1,0.5,0.1,1,0.3,1.4c0.1,0.2,0.1,0.3,0.2,0.5l-0.1-0.9c0,0.1,0,0.3,0,0.4c0,0.4,0.1,0.9,0.2,1.3
		c0.1,0.3,0.1,0.5,0.2,0.8l-0.1-0.9c0,0.3,0,0.7,0,1s0,0.7,0.1,1c0,0.3,0,0.7,0,1c0,0.6,0.2,1.3,0.3,1.9l-0.1-0.9
		c0.1,0.5,0.1,1,0.1,1.5c0,0.6,0,1.1,0,1.7c0,1.1,0.1,2.2,0.1,3.3c0,0.6,0,1.2-0.1,1.8l0.1-0.9c-0.1,0.6-0.2,1.2-0.2,1.7
		c0,0.3,0,0.6,0,0.8c0,0.5,0.1,1.1,0,1.6l0.1-0.9c0,0.1,0,0.3-0.1,0.4l0.4-0.8c-0.2,0.4-0.3,0.8-0.5,1.1c0,0.1-0.1,0.2-0.1,0.3
		c0,0,0,0.1,0,0.1c0,0.3-0.1,0.7-0.1,1c0,0,0,0,0,0.1c0,0,0,0,0,0l0.1,0.9c0.1,0.3,0.2,0.7,0.4,0.9l0.6,0.7c0,0,0,0,0,0
		c0.2,0.2,0.5,0.4,0.8,0.6c0.4,0.3,0.9,0.4,1.4,0.4c0.5,0.1,1,0.1,1.5-0.1c0.5-0.1,0.9-0.3,1.3-0.6c0.4-0.2,0.7-0.6,0.9-1l0.4-0.8
		c0.2-0.6,0.2-1.2,0-1.9l-0.4-0.8C415.5,546.8,415.1,546.4,414.5,546.1L414.5,546.1L414.5,546.1z"/>
	<path class="st3" d="M416.6,531.3c0-0.2,0-0.3,0-0.5l-0.1,0.9C416.5,531.6,416.5,531.5,416.6,531.3l-0.4,0.9
		c0.1-0.1,0.1-0.2,0.2-0.3l-0.6,0.7c0.2-0.2,0.4-0.4,0.5-0.6c0.2-0.3,0.6-0.6,0.8-1c0.1-0.1,0.2-0.3,0.2-0.4c0.3-0.5,0.6-1.1,1-1.5
		l-0.6,0.7c0.1-0.2,0.3-0.3,0.4-0.5c0.3-0.3,0.5-0.6,0.7-0.9c0.2-0.3,0.4-0.6,0.6-0.9c0.1-0.2,0.2-0.4,0.4-0.5l-0.6,0.7
		c0.2-0.2,0.4-0.4,0.7-0.6l-0.7,0.6c0.6-0.4,1.1-0.8,1.7-1.2c0.3-0.3,0.7-0.6,1-0.8l-0.7,0.6c0.4-0.3,0.8-0.6,1.2-0.7l-0.9,0.4
		c0.1,0,0.2-0.1,0.3-0.1l-1,0.1c0,0,0,0,0,0c0.5,0,1-0.1,1.4-0.3c0.5-0.1,0.9-0.4,1.2-0.7c0.4-0.3,0.6-0.7,0.8-1.1
		c0.2-0.4,0.3-0.9,0.3-1.4l-0.1-0.9c-0.2-0.6-0.5-1.1-0.9-1.5l-0.7-0.6c-0.6-0.3-1.2-0.5-1.8-0.5c-0.4,0-0.8,0-1.2,0.2
		c-0.4,0.1-0.8,0.3-1.2,0.5c-0.2,0.1-0.4,0.3-0.6,0.4c-0.5,0.3-0.9,0.7-1.4,1c-0.3,0.2-0.5,0.4-0.8,0.6l0.7-0.6
		c-0.2,0.2-0.4,0.3-0.7,0.5c-0.4,0.3-0.9,0.6-1.3,1c0,0-0.1,0.1-0.1,0.1c-0.2,0.3-0.5,0.6-0.7,0.8c-0.1,0.1-0.1,0.2-0.2,0.3
		c-0.1,0.2-0.3,0.5-0.4,0.7l0.6-0.7c-0.2,0.2-0.4,0.5-0.6,0.7c-0.4,0.5-0.8,0.9-1.1,1.5c-0.2,0.3-0.4,0.6-0.5,0.9
		c-0.2,0.3-0.3,0.6-0.5,0.9l0.6-0.7c-0.1,0.1-0.2,0.3-0.4,0.4c-0.3,0.3-0.5,0.6-0.7,0.9c-0.1,0.1-0.1,0.2-0.2,0.3
		c-0.2,0.3-0.3,0.7-0.5,1.1c0,0.1,0,0.2-0.1,0.3c-0.1,0.5-0.2,1-0.2,1.5c0,0.5,0.1,0.9,0.3,1.4c0.1,0.4,0.4,0.8,0.8,1.1
		c0.3,0.3,0.7,0.6,1.2,0.7c0.4,0.2,0.9,0.3,1.4,0.3l1-0.1c0.6-0.2,1.2-0.5,1.6-0.9l0.6-0.7C416.4,532.5,416.6,531.9,416.6,531.3
		L416.6,531.3L416.6,531.3z"/>
	<path class="st3" d="M419.7,564.5c-0.1,0.6,0.2,1.6,0.6,2.1c0.1,0.1,0.2,0.3,0.3,0.4c0.1,0.1,0.2,0.3,0.3,0.4c0,0,0,0,0.1,0.1
		c0.3,0.3,0.6,0.5,0.9,0.7c0.1,0.1,0.3,0.2,0.4,0.3c0.1,0.1,0.3,0.2,0.4,0.3c0.4,0.2,0.9,0.4,1.3,0.6c0.4,0.3,0.8,0.6,1.2,0.8
		c0.8,0.6,1.6,1.1,2.5,1.6c0.5,0.3,0.9,0.5,1.4,0.8c0.2,0.1,0.4,0.3,0.7,0.4s0.4,0.3,0.6,0.4c0.2,0.1,0.5,0.2,0.7,0.3
		c0.2,0.1,0.5,0.2,0.7,0.4c0.2,0.2,0.4,0.3,0.7,0.4s0.5,0.2,0.7,0.4l-0.7-0.6c0.4,0.3,0.7,0.6,1.1,0.9c0.2,0.1,0.3,0.2,0.5,0.2
		c0.4,0.2,0.7,0.4,1,0.6c0.7,0.5,1.4,1,2.1,1.5l-0.7-0.6c0.7,0.5,1.4,1.1,2.1,1.6c0.5,0.3,0.9,0.6,1.4,1l-0.7-0.6
		c0.4,0.3,0.9,0.7,1.3,1.1l-0.6-0.7c0.1,0.2,0.2,0.3,0.3,0.5l-0.4-0.8c0.1,0.4,0.2,0.7,0.3,1.1l-0.1-0.9c0.1,0.5,0.1,1.1,0.3,1.6
		c0.1,0.2,0.1,0.5,0.1,0.7c0-0.3-0.1-0.6-0.1-0.9c0.1,0.5,0.1,1.1,0.2,1.6c0.1,0.2,0.1,0.5,0.2,0.7l-0.1-0.9
		c0.1,0.4,0.1,0.8,0.1,1.2c0.1,0.7,0.2,1.4,0.3,2c0.1,0.4,0.2,0.8,0.3,1.1c0.1,0.4,0.1,0.7,0.2,1.1c0,0.1,0.1,0.2,0.1,0.3
		c0.1,0.4,0.3,0.7,0.5,1.1c0.1,0.2,0.2,0.4,0.3,0.6c0.2,0.4,0.5,0.7,0.9,1c0.4,0.3,0.8,0.5,1.3,0.6c0.5,0.2,1,0.2,1.5,0.1
		c0.5,0,0.9-0.2,1.4-0.4l0.7-0.6c0.5-0.4,0.8-1,0.9-1.5l0.1-0.9c0-0.6-0.2-1.2-0.5-1.8c-0.1-0.3-0.3-0.5-0.4-0.8
		c0.1,0.3,0.2,0.6,0.4,0.8c-0.2-0.5-0.3-1.1-0.4-1.7c-0.2-0.6-0.3-1.2-0.4-1.8l0.1,0.9c-0.1-0.4-0.1-0.9-0.1-1.3
		c-0.1-0.5-0.1-1-0.2-1.5c0-0.2-0.1-0.4-0.1-0.6l0.1,0.9c-0.1-0.6-0.1-1.1-0.2-1.7c-0.1-0.3-0.1-0.5-0.2-0.8l0.1,0.9
		c-0.1-0.5-0.1-1-0.2-1.5c0-0.2-0.1-0.3-0.1-0.5c-0.1-0.2-0.2-0.4-0.3-0.6c-0.1-0.2-0.2-0.5-0.3-0.7c0-0.1-0.1-0.2-0.1-0.2
		c-0.2-0.3-0.5-0.6-0.7-0.9c-0.3-0.3-0.6-0.6-0.9-0.8c-0.6-0.4-1.1-0.8-1.7-1.2c-0.4-0.3-0.8-0.6-1.2-0.9l0.7,0.6
		c-1-0.8-2-1.5-3.1-2.2c-0.4-0.3-0.8-0.5-1.2-0.8c-0.4-0.2-0.8-0.4-1.1-0.6l0.7,0.6c-0.4-0.3-0.8-0.6-1.2-0.9
		c-0.2-0.1-0.4-0.2-0.6-0.3c-0.4-0.2-0.7-0.5-1.1-0.7c-0.2-0.1-0.4-0.2-0.6-0.3c-0.2-0.1-0.4-0.2-0.6-0.4c-0.4-0.3-0.8-0.5-1.2-0.8
		c-0.4-0.2-0.9-0.5-1.3-0.7c-0.4-0.2-0.8-0.5-1.2-0.7c-0.8-0.5-1.5-1.1-2.3-1.6c-0.4-0.3-0.9-0.4-1.3-0.7c-0.2-0.1-0.3-0.2-0.5-0.3
		c-0.2-0.1-0.3-0.2-0.5-0.3l0.7,0.6c-0.1-0.1-0.2-0.1-0.2-0.2l0.6,0.7c0,0-0.1-0.1-0.1-0.2l0.4,0.8c0,0,0-0.1,0-0.1
		c0,0.3,0.1,0.6,0.1,0.9c0,0,0-0.1,0-0.1c0-0.5-0.1-0.9-0.3-1.4c-0.1-0.4-0.4-0.8-0.8-1.1c-0.3-0.3-0.7-0.6-1.2-0.7
		c-0.4-0.2-0.9-0.3-1.4-0.3l-1,0.1c-0.6,0.2-1.2,0.5-1.6,0.9l-0.6,0.7C419.9,563.2,419.7,563.8,419.7,564.5L419.7,564.5L419.7,564.5
		z"/>
	<path class="st3" d="M446.2,580.1c0.1-0.1,0.2-0.1,0.3-0.2c-0.3,0.1-0.6,0.2-0.9,0.4C445.9,580.2,446.1,580.2,446.2,580.1l-0.9,0.1
		C445.7,580.2,446,580.2,446.2,580.1c0.8,0.1,1.4-0.1,2.1-0.2c-0.3,0-0.7,0.1-1,0.1c0.4,0,0.9,0,1.3,0c0.7,0,1.4-0.1,2.2-0.2l-1,0.1
		c0.3,0,0.7,0,1-0.1c0.6,0,1.3-0.1,1.9-0.2c0.7-0.1,1.4-0.3,2-0.5c0.5-0.1,0.9-0.3,1.3-0.6c0.4-0.2,0.7-0.6,0.9-1
		c0.3-0.4,0.4-0.8,0.4-1.3c0.1-0.5,0.1-0.9-0.1-1.4L457,574c-0.3-0.5-0.8-0.9-1.3-1.3l-0.9-0.4c-0.7-0.2-1.3-0.2-1.9,0
		c-0.8,0.2-1.7,0.5-2.5,0.6c0.3,0,0.7-0.1,1-0.1c-0.3,0-0.6,0.1-1,0.1c-0.7,0-1.3,0.2-1.9,0.2c0.3,0,0.7-0.1,1-0.1
		c-0.4,0.1-0.9,0-1.3,0c-0.2,0-0.4,0-0.6,0c-0.4,0-0.8,0.1-1.2,0.2c-0.1,0-0.2,0-0.3,0.1l1-0.1c-0.4,0-0.9,0-1.3,0
		c-0.4,0-0.8,0.1-1.3,0.2c-0.1,0-0.2,0-0.3,0.1c0,0-0.1,0-0.1,0c-0.3,0.1-0.7,0.3-1,0.4c-0.1,0-0.2,0.1-0.3,0.2
		c-0.4,0.2-0.8,0.5-1,0.9c-0.3,0.3-0.5,0.7-0.7,1.2c-0.2,0.5-0.2,0.9-0.1,1.4c0,0.5,0.2,0.9,0.4,1.3l0.6,0.7c0.5,0.4,1,0.7,1.6,0.9
		l1,0.1C445,580.6,445.7,580.5,446.2,580.1L446.2,580.1L446.2,580.1z"/>
	<path class="st3" d="M405.8,549.3c-0.1-0.1-0.3-0.2-0.4-0.2c-0.4-0.2-0.9-0.4-1.3-0.5l0.9,0.4c-0.3-0.1-0.5-0.3-0.8-0.4
		c-0.3-0.2-0.6-0.3-0.8-0.5l0.7,0.6c-0.2-0.1-0.3-0.3-0.5-0.4c-0.4-0.3-0.8-0.6-1.3-0.9c-0.4-0.2-0.8-0.4-1.2-0.7l0.7,0.6
		c-0.6-0.5-1.2-1-1.8-1.4c-0.2-0.1-0.4-0.2-0.6-0.3c-0.2-0.1-0.4-0.3-0.6-0.4c-0.4-0.3-0.9-0.5-1.3-0.8c-0.4-0.3-0.9-0.5-1.3-0.8
		c-0.8-0.6-1.6-1.2-2.4-1.8c-0.8-0.6-1.7-1.1-2.5-1.7c-1-0.6-2-1.1-2.9-1.8l0.7,0.6c-0.4-0.3-0.8-0.6-1.2-0.9
		c-0.2-0.1-0.4-0.2-0.6-0.3c-0.4-0.2-0.8-0.3-1.2-0.5c-0.9-0.4-1.8-0.7-2.6-1.2c-0.2-0.1-0.4-0.3-0.7-0.4c-0.2-0.1-0.4-0.2-0.5-0.3
		l0.7,0.6c0,0,0,0,0,0l0.6,0.7c0,0,0,0,0,0l0.4,0.8c0,0,0,0,0-0.1l0.1,0.9c0-0.1,0-0.3,0-0.4l-0.1,0.9c0.1-0.8,0.3-1.6,0.3-2.4
		s-0.2-1.6-0.3-2.5l0.1,0.9c-0.1-0.8-0.2-1.6-0.3-2.4c-0.1-0.8-0.4-1.5-0.8-2.2c-0.2-0.4-0.5-0.7-0.9-1c-0.4-0.3-0.8-0.5-1.3-0.6
		c-0.5-0.2-1-0.2-1.5-0.1c-0.5,0-0.9,0.2-1.4,0.4l-0.7,0.6c-0.5,0.4-0.8,1-0.9,1.5l-0.1,0.9c0,0.6,0.2,1.2,0.5,1.8c0,0,0,0.1,0,0.1
		l-0.4-0.8c0.2,0.5,0.3,1,0.4,1.6l-0.1-0.9c0,0.3,0.1,0.6,0.1,0.9c0.1,0.6,0.2,1.2,0.3,1.9l-0.1-0.9c0.1,0.5,0.2,1.1,0.1,1.6
		l0.1-0.9c0,0.1,0,0.3-0.1,0.4c-0.1,0.4-0.1,0.9-0.2,1.3c-0.1,1.1,0.3,2.2,1.1,3c0.4,0.4,0.8,0.6,1.2,0.8c0.3,0.2,0.5,0.3,0.7,0.5
		c0.5,0.3,1,0.5,1.5,0.8c0.5,0.2,1,0.5,1.6,0.7c0.5,0.2,1.1,0.4,1.6,0.8l-0.7-0.6c0.6,0.5,1.2,0.9,1.8,1.3c0.4,0.3,0.8,0.5,1.2,0.7
		c0.8,0.5,1.7,1,2.5,1.5c1.6,1.1,3,2.3,4.7,3.2c0.4,0.3,0.9,0.5,1.3,0.8c0.4,0.3,0.9,0.5,1.3,0.8l-0.7-0.6c0.2,0.2,0.4,0.3,0.6,0.5
		c0.4,0.3,0.9,0.7,1.3,1c0.4,0.3,0.9,0.5,1.3,0.8l-0.7-0.6c0.2,0.1,0.4,0.3,0.5,0.5c0.4,0.3,0.9,0.7,1.4,0.9
		c0.2,0.1,0.4,0.2,0.6,0.3c0.5,0.2,1,0.4,1.5,0.6l-0.9-0.4c0.2,0.1,0.5,0.2,0.7,0.3c0.4,0.3,0.9,0.4,1.4,0.4c0.5,0.1,1,0.1,1.5-0.1
		c0.5-0.1,0.9-0.3,1.3-0.6c0.4-0.2,0.7-0.6,0.9-1l0.4-0.8c0.2-0.6,0.2-1.2,0-1.9l-0.4-0.8C406.8,550,406.3,549.6,405.8,549.3
		L405.8,549.3L405.8,549.3z"/>
	<path class="st3" d="M382.4,537c-0.4-0.2-0.7-0.3-1.1-0.4c-0.4-0.1-0.8-0.1-1.2-0.2c-0.1,0-0.2,0-0.3,0c-0.4,0-0.8,0.1-1.2,0.2
		s-0.8,0.2-1.2,0.2c-0.4,0.1-0.8,0.1-1.2,0.2c-0.4,0.1-0.8,0.2-1.2,0.2l1-0.1c-0.5,0.1-1.1,0.1-1.6,0.2c-0.2,0-0.4,0.1-0.7,0.1
		l1-0.1c-0.1,0-0.3,0-0.4,0c-0.5,0-1,0.1-1.4,0.3c-0.4,0.1-0.9,0.4-1.2,0.7c-0.4,0.3-0.6,0.7-0.8,1.1c-0.2,0.4-0.3,0.9-0.3,1.4
		l0.1,0.9c0.2,0.6,0.5,1.1,0.9,1.5l0.7,0.6c0.6,0.3,1.2,0.5,1.8,0.5c0.1,0,0.2,0,0.4,0c0.4,0,0.9-0.1,1.3-0.2c0.2,0,0.5-0.1,0.7-0.1
		l-1,0.1c0.6-0.1,1.3-0.2,1.9-0.3c0.3-0.1,0.7-0.1,1-0.2c0.3-0.1,0.7-0.1,1-0.2c0.3-0.1,0.7-0.1,1-0.2l-1,0.1c0.2,0,0.3,0,0.5,0
		l-1-0.1c0.1,0,0.3,0,0.4,0.1l-0.9-0.4l0,0c0.4,0.3,0.9,0.4,1.4,0.4c0.5,0.1,1,0.1,1.5-0.1c0.5-0.1,0.9-0.3,1.3-0.6
		c0.4-0.2,0.7-0.6,0.9-1l0.4-0.8c0.2-0.6,0.2-1.2,0-1.9l-0.4-0.8C383.4,537.8,382.9,537.3,382.4,537L382.4,537L382.4,537z"/>
	<path class="st3" d="M401.7,560.9C401.7,561,401.7,561,401.7,560.9l-0.6,0.8c0,0,0,0,0,0c-0.2,0.3-0.3,0.6-0.4,1
		c0,0.1-0.1,0.2-0.1,0.3l0.4-0.8c0,0.1-0.1,0.2-0.2,0.3l0.6-0.7c-0.1,0.2-0.3,0.3-0.4,0.4c-0.3,0.4-0.6,0.8-0.9,1.2
		c-0.2,0.4-0.5,0.7-0.8,1.1c-0.3,0.4-0.5,0.7-0.8,1.1c-0.2,0.4-0.5,0.7-0.7,1.1l0.6-0.7c-0.3,0.3-0.6,0.7-0.9,1.1
		c-0.1,0.1-0.2,0.3-0.3,0.4c-0.1,0.3-0.3,0.5-0.5,0.7l0.6-0.7c-0.1,0.2-0.3,0.3-0.4,0.5c-0.2,0.2-0.3,0.3-0.4,0.5
		c-0.3,0.3-0.5,0.7-0.8,1c-0.5,0.6-0.9,1.1-1.4,1.7c-0.2,0.3-0.4,0.6-0.7,1l0.6-0.7c-0.2,0.2-0.4,0.4-0.6,0.6s-0.4,0.4-0.6,0.6
		c-0.4,0.4-0.8,0.9-1.2,1.2l0.7-0.6c-0.6,0.4-1.2,0.9-1.7,1.4c-0.3,0.3-0.7,0.6-1,0.9l0.7-0.6c-0.5,0.3-0.9,0.6-1.4,1
		s-0.9,0.7-1.4,1.1c-0.2,0.2-0.4,0.4-0.7,0.5l0.7-0.6c-0.3,0.2-0.6,0.5-1,0.7c-0.3,0.2-0.6,0.4-0.9,0.5l0.9-0.4
		c-0.1,0.1-0.3,0.1-0.4,0.1l1-0.1c-0.1,0-0.3,0-0.4,0l1,0.1c-0.2,0-0.4-0.1-0.6-0.2c-0.2-0.1-0.4-0.1-0.7-0.2
		c-0.4-0.1-0.9-0.2-1.4-0.4c-0.2-0.1-0.4-0.1-0.7-0.2c-0.1,0-0.2-0.1-0.3-0.1c-0.4-0.1-0.9-0.1-1.3-0.2c-0.4,0-0.9,0-1.4,0
		c-0.5,0-1.1-0.1-1.6-0.1c-0.5,0-1,0.1-1.4,0.3c-0.5,0.1-0.9,0.4-1.2,0.7c-0.4,0.3-0.6,0.7-0.8,1.1c-0.2,0.4-0.3,0.9-0.3,1.4
		l0.1,0.9c0.2,0.6,0.5,1.1,0.9,1.5l0.7,0.6c0.6,0.3,1.2,0.5,1.8,0.5c0.5,0,1.1,0.1,1.6,0.1c0.5,0,1,0,1.5,0.1c-0.3,0-0.7-0.1-1-0.1
		c0.3,0,0.6,0.1,0.9,0.2c0.3,0.1,0.6,0.2,0.9,0.2c0.3,0.1,0.6,0.2,0.9,0.2c0.3,0.1,0.6,0.2,0.9,0.3c0.4,0.1,0.9,0.2,1.3,0.2
		c0.1,0,0.1,0,0.2,0c0.4,0,0.8-0.1,1.2-0.2c0.1,0,0.2-0.1,0.3-0.1c0.4-0.2,0.8-0.3,1.2-0.5c0.2-0.1,0.4-0.3,0.6-0.4
		c0.2-0.2,0.5-0.3,0.7-0.5c0.5-0.3,1-0.7,1.5-1.1c0.3-0.2,0.5-0.4,0.8-0.6l-0.7,0.6c0.3-0.2,0.6-0.4,0.9-0.6c0.5-0.4,1-0.7,1.5-1.1
		c0.5-0.4,1-0.9,1.6-1.3l-0.7,0.6c0.5-0.4,1.1-0.7,1.5-1.2c0.2-0.2,0.5-0.5,0.7-0.8c0.1-0.1,0.2-0.2,0.4-0.3
		c0.1-0.1,0.3-0.2,0.4-0.3c0.1-0.1,0.2-0.2,0.4-0.4c0.3-0.4,0.6-0.7,0.9-1.1c0.2-0.3,0.5-0.7,0.7-1l-0.6,0.7c0.3-0.3,0.6-0.7,0.8-1
		c0.3-0.3,0.5-0.7,0.8-1c0.1-0.2,0.3-0.3,0.4-0.5c0.3-0.3,0.7-0.7,0.9-1.1c0.2-0.3,0.4-0.7,0.6-1l-0.6,0.7c0.4-0.5,0.9-1.1,1.3-1.7
		c0.2-0.3,0.5-0.7,0.7-1c0.2-0.3,0.5-0.7,0.7-1c0.1-0.2,0.2-0.3,0.4-0.5c0.1-0.2,0.2-0.3,0.3-0.5l-0.6,0.7c0.3-0.4,0.7-0.8,1-1.3
		c0,0,0.1-0.1,0.1-0.1c0.1-0.2,0.1-0.3,0.2-0.4c0.1-0.1,0.1-0.3,0.2-0.4c0,0,0,0,0-0.1c0-0.1,0.1-0.2,0.1-0.3l-0.4,0.8
		c0,0,0-0.1,0.1-0.1l-0.6,0.7c0,0,0,0,0.1-0.1c0.4-0.3,0.6-0.7,0.8-1.1c0.2-0.4,0.3-0.9,0.3-1.4c0-0.5-0.1-0.9-0.3-1.4
		c-0.1-0.4-0.4-0.8-0.8-1.1l-0.7-0.6c-0.6-0.3-1.2-0.5-1.8-0.5l-1,0.1C402.7,560.2,402.2,560.5,401.7,560.9L401.7,560.9L401.7,560.9
		z"/>
	<path class="st3" d="M385,585.7c0,0,0.1,0.1,0.1,0.2c0.2,0.3,0.4,0.6,0.7,0.8c0.1,0.1,0.2,0.2,0.3,0.2c0.4,0.3,0.9,0.6,1.3,0.9
		l-0.7-0.6c0.2,0.2,0.4,0.4,0.6,0.6l-0.6-0.7c0.5,0.7,1,1.4,1.3,2.1l-0.4-0.8c0.1,0.3,0.3,0.7,0.4,1c0.1,0.5,0.3,0.9,0.7,1.2
		c0.3,0.4,0.6,0.7,1,0.9c0.4,0.3,0.9,0.4,1.4,0.4c0.5,0.1,1,0.1,1.5-0.1l0.9-0.4c0.5-0.3,1-0.7,1.3-1.3l0.4-0.8
		c0.2-0.6,0.2-1.2,0-1.9c-0.1-0.3-0.3-0.7-0.4-1c-0.3-0.6-0.5-1.2-0.8-1.7c-0.2-0.3-0.4-0.6-0.6-0.9c-0.1-0.1-0.2-0.3-0.3-0.4
		c-0.3-0.4-0.6-0.7-0.9-1.1c-0.1-0.1-0.1-0.1-0.2-0.2c-0.3-0.2-0.6-0.5-0.9-0.7c-0.1-0.1-0.3-0.2-0.4-0.3l0.7,0.6
		c-0.1-0.1-0.3-0.2-0.4-0.3l0.6,0.7c0-0.1-0.1-0.1-0.1-0.2c-0.2-0.4-0.5-0.7-0.9-1c-0.4-0.3-0.8-0.5-1.3-0.6c-0.5-0.2-1-0.2-1.5-0.1
		c-0.5,0-0.9,0.2-1.4,0.4l-0.7,0.6c-0.4,0.4-0.8,1-0.9,1.5l-0.1,0.9C384.5,584.6,384.7,585.2,385,585.7L385,585.7L385,585.7z"/>
	<path class="st3" d="M425.6,556.4c0.6-0.6,1.2-1.2,1.9-1.7l-0.7,0.6c0.2-0.1,0.4-0.3,0.6-0.4c0.4-0.3,0.8-0.6,1.3-0.9
		c0.4-0.3,0.7-0.6,1-0.9c0.7-0.6,1.3-1.3,2-1.9c0.6-0.5,1.1-1.2,1.6-1.8l-0.6,0.7c0.5-0.6,1-1.2,1.4-1.8l-0.6,0.7
		c0.4-0.5,0.9-0.9,1.4-1.5c0.4-0.5,0.8-1.1,1.4-1.5l-0.7,0.6c0.4-0.3,0.8-0.5,1.2-0.8c0.4-0.3,0.8-0.5,1.2-0.8
		c0.4-0.2,0.8-0.5,1.2-0.7c0.4-0.3,0.8-0.5,1.2-0.7c0.5-0.2,0.9-0.5,1.4-0.7l-0.9,0.4c0.4-0.2,0.8-0.3,1.2-0.4
		c0.2,0,0.3-0.1,0.5-0.1c0.4-0.1,0.7-0.3,1.1-0.4c0,0,0.1,0,0.1-0.1c0,0,0,0,0,0c0.2-0.2,0.6-0.4,0.8-0.6c0,0,0,0,0.1-0.1
		c0,0,0,0,0,0c0.1-0.1,0.5-0.6,0.6-0.7c0,0,0-0.1,0-0.1c0.1-0.1,0.3-0.7,0.4-0.9c0,0,0-0.1,0-0.1c0.1-0.2,0.1-0.5,0.1-0.7
		c0-0.3,0.1-0.5,0.1-0.8c0-0.4-0.1-0.8-0.1-1.2c0-1,0-2,0-3c-0.1-1-0.1-2-0.1-3c0-0.6,0.1-1.1,0.1-1.7s0.1-1.1,0.2-1.7l-0.1,0.9
		c0.2-1.3,0.8-2.4,1.1-3.6c0.2-0.5,0.2-0.9,0.1-1.4c0-0.5-0.2-0.9-0.4-1.3c-0.2-0.4-0.5-0.7-0.9-1c-0.4-0.3-0.8-0.5-1.3-0.6l-1-0.1
		c-0.7,0-1.3,0.2-1.8,0.5l-0.7,0.6c-0.5,0.4-0.8,1-0.9,1.5c-0.2,0.9-0.6,1.8-0.9,2.7c-0.2,0.7-0.3,1.5-0.4,2.3
		c-0.1,0.5-0.1,1-0.2,1.5c0,0.5-0.1,1-0.1,1.5s0,1,0,1.5c0,1,0.1,2,0.1,3c0,0.5,0,1.1,0,1.6c0,0.5,0.1,0.9,0,1.4l0.1-0.9
		c0,0.1,0,0.2-0.1,0.3l0.4-0.8c0,0,0,0.1-0.1,0.1l0.6-0.7c0,0.1-0.1,0.1-0.1,0.1l0.7-0.6c-0.1,0.1-0.2,0.1-0.3,0.2l0.9-0.4
		c-0.3,0.1-0.6,0.2-0.9,0.3c-0.7,0.3-1.4,0.5-2.1,0.9c-0.4,0.2-0.8,0.4-1.2,0.6c-0.4,0.2-0.8,0.5-1.2,0.8c-0.4,0.3-0.8,0.5-1.3,0.7
		c-0.4,0.3-0.8,0.5-1.3,0.8c-0.2,0.1-0.4,0.2-0.6,0.4c-0.3,0.2-0.6,0.5-1,0.7c-0.1,0.1-0.2,0.2-0.3,0.2c-0.3,0.3-0.6,0.7-0.9,1
		c-0.2,0.2-0.3,0.4-0.5,0.6c-0.2,0.2-0.4,0.3-0.5,0.5c-0.6,0.6-1,1.2-1.5,1.9l0.6-0.7c-0.5,0.6-0.9,1.1-1.4,1.7l0.6-0.7
		c-0.3,0.3-0.6,0.6-1,0.9s-0.7,0.6-1,0.9c-0.6,0.6-1.2,1.2-1.9,1.8l0.7-0.6c-0.2,0.2-0.5,0.3-0.7,0.5c-0.5,0.3-1,0.7-1.4,1.1
		s-0.9,0.8-1.3,1.2c-0.4,0.3-0.6,0.7-0.8,1.1c-0.2,0.4-0.3,0.9-0.3,1.4c0,0.5,0.1,0.9,0.3,1.4c0.1,0.4,0.4,0.8,0.8,1.1l0.7,0.6
		c0.6,0.3,1.2,0.5,1.8,0.5l1-0.1C424.6,557.1,425.1,556.8,425.6,556.4L425.6,556.4L425.6,556.4z"/>
	<path class="st3" d="M440.9,542.8c0.4,0,0.7-0.1,1.1,0l-1-0.1c0.1,0,0.2,0,0.3,0.1l-0.9-0.4c0.4,0.2,0.8,0.3,1.2,0.5
		s0.9,0.2,1.3,0.2c0.3,0,0.6,0,0.9,0c0.6,0,1.2,0,1.8-0.1c0.7,0,1.3-0.1,2-0.1c0.7,0,1.3,0,1.9,0c0.4,0,0.7,0,1.1,0.1
		c0.4,0,0.7,0.1,1.1,0.1c0.5,0,1-0.1,1.4-0.3c0.5-0.1,0.9-0.4,1.2-0.7c0.4-0.3,0.6-0.7,0.8-1.1c0.2-0.4,0.3-0.9,0.3-1.4
		c0-0.3-0.1-0.6-0.1-0.9c-0.2-0.6-0.5-1.1-0.9-1.6l-0.7-0.6c-0.6-0.3-1.2-0.5-1.8-0.5c-0.6,0-1.1-0.1-1.7-0.1s-1.2,0-1.7,0
		c-1.2,0-2.3,0.1-3.5,0.1c-0.6,0-1.2,0.1-1.7,0l1,0.1c-0.1,0-0.2,0-0.3-0.1l0.9,0.4c-0.4-0.2-0.8-0.3-1.2-0.5
		c-0.4-0.2-0.9-0.2-1.4-0.2c-0.3,0-0.6,0-1,0c-0.5,0-1,0.1-1.4,0.3c-0.5,0.1-0.9,0.4-1.2,0.7c-0.4,0.3-0.6,0.7-0.8,1.1
		c-0.2,0.4-0.3,0.9-0.3,1.4l0.1,0.9c0.2,0.6,0.5,1.1,0.9,1.6l0.7,0.6C439.6,542.7,440.2,542.8,440.9,542.8L440.9,542.8L440.9,542.8z
		"/>
</g>
<g id="Layer_1_00000093167512313648422890000010454002461445458611_">
	<path class="st1" d="M407.6,565.2c0.3,0.3,0.9,0.5,1.3,0.7c0.5,0.2,1.1,0.5,1.7,0.7c0.8,0.2,1.6,0.1,2.3,0.3c0.2,0,0.5,0.1,0.7,0.1
		c0.4,0,0.9-0.2,1.3-0.4"/>
	<path class="st1" d="M408.4,552c-0.4,0.2-0.6,0.4-0.9,0.7c-0.2,0.3-0.6,0.6-0.8,1c-0.5,1.1-0.6,2.3-0.7,3.5"/>
	<path class="st1" d="M418.1,551.5c-0.9,1.1-1.4,2.5-1.8,3.8c-0.3,1.2-0.5,2.2-0.5,3.4"/>
</g>
<g id="Layer_2_00000111178381172649005780000014047383824643169444_">
	<path class="st3" d="M745.4,541.9c0.2,0.3,0.3,0.6,0.4,1c0,0.2,0.1,0.3,0.1,0.5c0.1,0.2,0.1,0.4,0.2,0.5c0.1,0.3,0.3,0.6,0.6,0.9
		c0.1,0.1,0.2,0.2,0.4,0.3c0.1,0.1,0.3,0.3,0.4,0.4c0.2,0.3,0.5,0.6,0.7,0.9c0.2,0.3,0.5,0.6,0.8,0.8c0.5,0.5,1.2,1,1.7,1.5
		c0.2,0.1,0.3,0.3,0.4,0.5c0.1,0.2,0.2,0.3,0.4,0.4c0.3,0.3,0.6,0.5,0.9,0.8c0.2,0.2,0.6-0.1,0.3-0.3c-0.2-0.2-0.5-0.4-0.8-0.6
		c-0.3-0.2-0.5-0.5-0.7-0.8c-0.5-0.5-1.1-1-1.7-1.5c-0.3-0.3-0.5-0.5-0.8-0.8c-0.3-0.3-0.5-0.6-0.7-0.9s-0.4-0.6-0.7-0.8
		c-0.1-0.1-0.2-0.2-0.4-0.3s-0.2-0.3-0.2-0.4c-0.1-0.2-0.2-0.4-0.2-0.5c-0.1-0.2-0.1-0.4-0.2-0.6c-0.1-0.4-0.3-0.8-0.5-1.2
		C745.7,541.3,745.3,541.6,745.4,541.9L745.4,541.9L745.4,541.9z"/>
	<path class="st3" d="M756.7,507.9C756.7,507.9,756.7,507.9,756.7,507.9l0.5,0.7c0-0.1-0.1-0.1-0.1-0.2l0.4,0.8
		c-0.1-0.3-0.3-0.7-0.4-1c-0.1-0.3-0.6-0.8-0.7-0.9c-0.1-0.1-0.3-0.3-0.4-0.4l0.6,0.7c-0.3-0.4-0.5-0.9-0.8-1.4
		c-0.5-0.7-1.1-1.3-1.7-2l0.6,0.7c-0.2-0.2-0.3-0.5-0.5-0.7c-0.3-0.5-0.7-0.9-1.1-1.3c-0.7-0.5-1.3-1.1-2-1.5
		c-0.2-0.1-0.5-0.3-0.7-0.4c-0.5-0.2-1.1-0.5-1.6-0.6c-0.5-0.2-1-0.3-1.6-0.4c-0.9-0.2-1.8-0.3-2.7-0.4c-0.6-0.1-1.2-0.1-1.8,0
		c-0.6,0-1.2,0.1-1.8,0.2c-0.9,0.1-1.9,0.2-2.8,0.4c-0.3,0.1-0.6,0.1-0.9,0.2c-0.4,0.1-0.8,0.3-1.2,0.5c-0.1,0-0.2,0.1-0.3,0.2
		c-0.3,0.2-0.6,0.4-0.9,0.6c0,0-0.1,0.1-0.1,0.1c-0.1,0.1-0.2,0.2-0.3,0.3c-0.4,0.5-0.8,1-1.2,1.5l0.6-0.7c-0.3,0.3-0.5,0.7-0.8,1
		c-0.3,0.3-0.5,0.6-0.7,0.9c-0.1,0.1-0.1,0.1-0.2,0.2c-0.1,0.1-0.2,0.3-0.3,0.4c-0.3,0.6-0.6,1.2-0.8,1.8c-0.1,0.3-0.3,0.7-0.4,1
		c-0.2,0.4-0.3,0.9-0.5,1.3l0.4-0.8c-0.3,0.7-0.6,1.3-0.9,2c-0.1,0.4-0.2,0.8-0.3,1.2s-0.2,0.8-0.3,1.2c-0.1,0.5-0.2,1-0.2,1.5
		c0,0.4,0.1,0.7,0.1,1.1c0.1,0.6,0.2,1.1,0.4,1.6c0.3,0.7,0.6,1.3,0.9,1.9c0.1,0.2,0.2,0.4,0.3,0.5c0.3,0.4,0.6,0.8,1,1.1
		s0.8,0.6,1.2,0.9c0.2,0.1,0.4,0.3,0.5,0.4c0.7,0.5,1.5,0.9,2.3,1.3c0.7,0.3,1.4,0.6,2.1,0.9c0.4,0.2,0.8,0.3,1.3,0.4
		c0.8,0.3,1.7,0.5,2.6,0.6c1.2,0.2,2.5,0.3,3.8,0.3c1.3,0,2.5-0.2,3.8-0.5c0.4-0.1,0.9-0.2,1.4-0.3c0.7-0.2,1.4-0.5,2-0.9
		c0.4-0.2,0.7-0.4,1-0.6c0.6-0.4,1.1-0.8,1.6-1.3c0.3-0.3,0.6-0.5,0.8-0.8c0.4-0.5,0.9-1.1,1.2-1.6c0.1-0.2,0.2-0.3,0.3-0.5
		c0.2-0.3,0.3-0.7,0.5-1c0-0.1,0.1-0.2,0.1-0.3c0.1-0.5,0.2-1,0.2-1.5c0-0.2,0.1-0.4,0.1-0.6c0.1-0.9,0.2-1.9,0.1-2.8
		c0-0.8-0.1-1.5-0.2-2.3c-0.1-0.5-0.3-0.9-0.5-1.3c-0.1-0.1-0.1-0.3-0.2-0.4c-0.2-0.3-0.4-0.6-0.6-1c-0.4-0.6-0.8-1.2-1.3-1.7
		c-0.5-0.5-1.1-0.9-1.7-1.4c-0.2-0.1-0.3-0.2-0.5-0.3c-0.5-0.2-0.9-0.4-1.4-0.5c-0.9-0.3-1.7-0.6-2.6-0.8c-0.4-0.1-0.9-0.2-1.3-0.3
		c-0.7-0.1-1.5-0.2-2.2-0.3c-0.9-0.1-1.8-0.1-2.7-0.1c-0.2,0-0.4,0-0.7,0.1c-0.5,0.1-1.1,0.1-1.6,0.2c-0.4,0.1-0.9,0.2-1.3,0.3
		c-0.1,0-0.2,0-0.3,0.1c-0.4,0.1-0.8,0.2-1.1,0.5c-0.7,0.5-0.7,0.5-1.2,1c-0.1,0.2-0.3,0.3-0.4,0.6c-0.2,0.4-0.4,0.8-0.5,1.3
		c-0.1,0.2-0.2,0.4-0.2,0.6c-0.3,0.8-0.5,1.7-0.7,2.6c0,0.2-0.1,0.5-0.1,0.7c-0.1,0.5-0.2,1.1-0.2,1.6c0,0.5,0,0.9,0,1.4
		c0,0.5,0.1,1,0.2,1.5c0,0.2,0.1,0.4,0.2,0.6c0,0.1,0.1,0.2,0.1,0.3c0.2,0.4,0.3,0.7,0.5,1.1c0.1,0.2,0.2,0.3,0.3,0.5
		c0.3,0.4,0.6,0.8,0.9,1.1c0.1,0.2,0.3,0.3,0.4,0.4c0.1,0.1,0.3,0.3,0.4,0.4c0.4,0.3,0.8,0.6,1.2,0.8c0.6,0.3,1.2,0.6,1.8,0.8
		c0.4,0.1,0.7,0.2,1.1,0.3c0.5,0.1,1,0.2,1.5,0.2c0.2,0,0.4,0,0.6,0.1c0.4,0,0.8,0,1.2,0c0.2,0,0.4,0,0.6,0c0.5-0.1,1-0.1,1.5-0.2
		c0.4-0.1,0.7-0.2,1.1-0.2c0.4-0.1,0.9-0.2,1.3-0.3c0.5-0.1,1-0.3,1.4-0.6c0.2-0.1,0.3-0.2,0.5-0.3c0.6-0.4,1.1-0.8,1.6-1.3
		c0.4-0.5,0.9-1,1.2-1.6c0-0.1,0.1-0.2,0.1-0.3c0.2-0.4,0.3-0.7,0.5-1.1c0.1-0.2,0.1-0.4,0.2-0.6c0-0.1,0-0.2,0-0.3
		c0.1-0.4,0.1-0.8,0.2-1.2c0-0.2,0-0.4,0-0.6c0-0.4,0-0.8,0-1.1c0-0.1,0-0.2,0-0.3c0-0.3-0.1-0.7-0.1-1c0,0,0-0.1,0-0.2
		c0,0,0-0.1,0-0.1c-0.1-0.3-0.3-0.6-0.4-0.9c0-0.1-0.1-0.2-0.1-0.2c-0.2-0.4-0.5-0.7-0.8-1.1c-0.1-0.1-0.2-0.2-0.3-0.3
		c-0.5-0.4-1-0.8-1.5-1c-0.9-0.4-1.8-0.7-2.7-0.9c-0.4-0.1-0.8-0.2-1.3-0.2c-0.5-0.1-1.1-0.2-1.6-0.2c-0.5,0-1.1,0.1-1.6,0.2
		c-0.7,0.1-1.3,0.4-1.9,0.7c-0.6,0.3-1.1,0.7-1.7,1.1c-0.3,0.2-0.6,0.5-0.8,0.8c-0.1,0.1-0.1,0.1-0.2,0.2c-0.2,0.3-0.5,0.6-0.7,0.9
		c-0.1,0.2-0.2,0.3-0.3,0.5c-0.2,0.3-0.3,0.7-0.5,1.1c0,0.1-0.1,0.2-0.1,0.3s0,0.2-0.1,0.3c-0.1,0.4-0.1,0.8-0.2,1.2
		c0,0.2,0,0.4,0,0.5c0,0.4,0.1,0.8,0.2,1.1c0,0.1,0,0.1,0.1,0.2c0.1,0.3,0.3,0.7,0.4,1c0,0.1,0.1,0.1,0.1,0.2
		c0.2,0.3,0.4,0.6,0.7,0.8c0.1,0.2,0.4,0.3,0.5,0.4c0.2,0.1,0.4,0.3,0.5,0.4c0,0,0.1,0,0.1,0c0.3,0.1,0.7,0.3,1,0.4
		c0.5,0.2,1.1,0.2,1.6,0.3c0.2,0,0.4,0,0.6,0c0.4,0,0.8-0.1,1.2-0.2c0.1,0,0.2,0,0.3-0.1c0.7-0.2,1.3-0.5,2-0.8l-0.9,0.4
		c0.4-0.2,0.8-0.3,1.2-0.5c0.1-0.1,0.2-0.1,0.3-0.2c0.7-0.5,1.1-0.8,1.5-1.5c0.1-0.3,0.3-0.6,0.4-1c0-0.2,0-0.3,0.1-0.5
		c0-0.2,0-0.3,0.1-0.5c0,0,0,0,0-0.1c0-0.3-0.1-0.6-0.1-0.9c0,0,0,0,0,0c0,0,0,0,0-0.1c-0.1-0.3-0.2-0.6-0.4-0.9
		c-0.2-0.4-0.5-0.7-0.8-1c-0.2-0.2-0.3-0.3-0.5-0.5c-0.3-0.3-0.7-0.6-1.2-0.7c-0.4-0.2-0.9-0.3-1.4-0.3c-0.5,0-1,0.1-1.4,0.3
		c-0.4,0.1-0.9,0.4-1.2,0.7l-0.6,0.7c-0.3,0.6-0.5,1.1-0.5,1.8l0.1,0.9c0.2,0.6,0.5,1.1,0.9,1.5c0.2,0.2,0.4,0.4,0.6,0.6l-0.6-0.7
		c0,0.1,0.1,0.1,0.1,0.2l-0.4-0.8c0,0,0,0.1,0,0.2l-0.1-0.9c0,0,0,0.1,0,0.1l0.1-0.9c0,0,0,0.1,0,0.1l0.4-0.8c0,0,0,0.1-0.1,0.1
		l0.6-0.7c0,0.1-0.1,0.1-0.1,0.1l0.7-0.6c-0.2,0.1-0.3,0.2-0.5,0.3l0.9-0.4c-0.4,0.2-0.8,0.3-1.2,0.5c-0.2,0.1-0.3,0.1-0.5,0.2
		l0.9-0.4c-0.3,0.1-0.6,0.2-1,0.3l1-0.1c-0.2,0-0.4,0-0.7,0l1,0.1c-0.2,0-0.4-0.1-0.6-0.2l0.9,0.4c-0.1,0-0.2-0.1-0.3-0.2l0.7,0.6
		c-0.1-0.1-0.1-0.1-0.2-0.2l0.6,0.7c-0.1-0.1-0.1-0.2-0.2-0.3l0.4,0.8c-0.1-0.2-0.1-0.3-0.1-0.5l0.1,0.9c0-0.3,0-0.5,0-0.8l-0.1,0.9
		c0-0.2,0.1-0.5,0.2-0.7l-0.4,0.8c0.1-0.3,0.3-0.5,0.5-0.8l-0.6,0.7c0.3-0.4,0.7-0.7,1.1-1l-0.7,0.6c0.3-0.2,0.7-0.4,1-0.6l-0.9,0.4
		c0.4-0.2,0.8-0.3,1.2-0.3l-1,0.1c0.3,0,0.6,0,0.9,0l-1-0.1c0.5,0.1,1.1,0.2,1.6,0.3c0.4,0.1,0.9,0.2,1.3,0.4l-0.9-0.4
		c0.3,0.1,0.7,0.3,0.9,0.5l-0.7-0.6c0.2,0.1,0.4,0.3,0.5,0.5l-0.6-0.7c0.1,0.2,0.2,0.3,0.3,0.5l-0.4-0.8c0,0.1,0.1,0.2,0.1,0.4
		l-0.1-0.9c0,0.4,0,0.7,0,1.1c0,0.4,0,0.8-0.1,1.1l0.1-0.9c-0.1,0.4-0.1,0.7-0.3,1.1l0.4-0.8c-0.2,0.4-0.4,0.8-0.7,1.1l0.6-0.7
		c-0.2,0.3-0.5,0.6-0.8,0.8l0.7-0.6c-0.2,0.1-0.4,0.3-0.6,0.3l0.9-0.4c-0.6,0.2-1.2,0.3-1.7,0.5c-0.5,0.1-1,0.2-1.5,0.3
		c0.3,0,0.6-0.1,1-0.1c-0.8,0.1-1.7,0.1-2.5,0l1,0.1c-0.6-0.1-1.2-0.2-1.7-0.5l0.9,0.4c-0.4-0.2-0.8-0.4-1.2-0.6l0.7,0.6
		c-0.4-0.3-0.7-0.6-0.9-0.9l0.6,0.7c-0.3-0.3-0.5-0.7-0.7-1.1l0.4,0.8c-0.2-0.4-0.3-0.8-0.3-1.2l0.1,0.9c-0.1-0.7-0.1-1.4,0-2
		l-0.1,0.9c0.1-0.8,0.3-1.6,0.5-2.4c0.2-0.7,0.4-1.4,0.7-2.1l-0.4,0.8c0-0.1,0.1-0.2,0.1-0.2l-0.6,0.7c0,0,0.1-0.1,0.1-0.1l-0.7,0.6
		c0,0,0.1-0.1,0.1-0.1l-0.9,0.4c0.2-0.1,0.3-0.1,0.5-0.1c0.2,0,0.4-0.1,0.5-0.1c0.4-0.1,0.7-0.2,1.1-0.2l-1,0.1
		c1.2-0.2,2.5-0.1,3.7,0l-1-0.1c0.9,0.1,1.9,0.3,2.8,0.6c0.5,0.1,1,0.3,1.4,0.4c0.4,0.1,0.8,0.2,1.2,0.4l-0.9-0.4
		c0.2,0.1,0.4,0.2,0.6,0.3l-0.7-0.6c0.2,0.2,0.4,0.4,0.6,0.5c0.2,0.2,0.4,0.4,0.6,0.6l-0.6-0.7c0.3,0.3,0.4,0.7,0.7,1.1
		c0.2,0.3,0.4,0.6,0.6,0.9l-0.4-0.8c0.1,0.2,0.1,0.4,0.2,0.6c0-0.3-0.1-0.6-0.1-0.9c0.1,0.8,0.1,1.6,0.1,2.4s-0.1,1.5-0.2,2.3
		c0-0.3,0.1-0.6,0.1-0.9c0,0.3-0.1,0.6-0.2,0.9l0.4-0.8c-0.2,0.5-0.5,1-0.9,1.5l0.6-0.7c-0.5,0.6-1,1.1-1.6,1.5l0.7-0.6
		c-0.6,0.5-1.3,0.9-2,1.2l0.9-0.4c-0.5,0.2-1,0.3-1.5,0.4c-0.5,0.1-1.1,0.2-1.6,0.3l1-0.1c-1.2,0.2-2.5,0.1-3.7,0
		c0.3,0,0.6,0.1,1,0.1c-1.5-0.2-3-0.6-4.4-1.2l0.9,0.4c-0.7-0.3-1.4-0.6-2-0.9s-1.3-0.7-1.9-1.2l0.7,0.6c-0.3-0.2-0.6-0.5-0.9-0.8
		l0.6,0.7c-0.2-0.2-0.3-0.5-0.4-0.7c-0.1-0.2-0.3-0.5-0.4-0.8l0.4,0.8c-0.2-0.4-0.3-0.9-0.4-1.4l0.1,0.9c0-0.4-0.1-0.7,0-1.1
		l-0.1,0.9c0.1-0.6,0.3-1.1,0.4-1.7s0.2-1.1,0.5-1.6l-0.4,0.8c0.2-0.6,0.5-1.1,0.7-1.6c0.1-0.3,0.2-0.6,0.4-0.9
		c0.2-0.5,0.4-1,0.6-1.5l-0.4,0.8c0.2-0.5,0.4-0.9,0.7-1.3l-0.6,0.7c0.3-0.3,0.5-0.6,0.8-0.9c0.4-0.6,0.9-1.1,1.3-1.7l-0.6,0.7
		c0.1-0.2,0.3-0.3,0.5-0.5l-0.7,0.6c0.1-0.1,0.3-0.2,0.4-0.2l-0.9,0.4c0.7-0.3,1.4-0.4,2.1-0.5l-1,0.1c0.9-0.1,1.7-0.2,2.6-0.2
		c0.9-0.1,1.7-0.1,2.5,0l-1-0.1c0.6,0.1,1.2,0.2,1.8,0.4s1.1,0.3,1.7,0.5l-0.9-0.4c0.5,0.2,1.1,0.5,1.5,0.8l-0.7-0.6
		c0.2,0.1,0.3,0.3,0.5,0.4c0.2,0.1,0.3,0.3,0.5,0.4l-0.6-0.7c0.1,0.2,0.2,0.4,0.4,0.6c0.3,0.4,0.6,0.8,0.9,1.2
		c0.1,0.2,0.3,0.3,0.4,0.5c0.1,0.2,0.3,0.3,0.5,0.5l-0.6-0.7c0.3,0.3,0.4,0.7,0.6,1c0.1,0.2,0.2,0.3,0.3,0.5
		c0.2,0.3,0.5,0.6,0.8,0.9c0.1,0.1,0.1,0.2,0.2,0.2l-0.6-0.7c0.1,0.1,0.1,0.2,0.1,0.3l-0.4-0.8c0.1,0.3,0.3,0.7,0.4,1
		c0.2,0.3,0.4,0.6,0.7,0.9c0.3,0.3,0.7,0.6,1.2,0.7c0.4,0.2,0.9,0.3,1.4,0.3c0.5,0,1-0.1,1.4-0.3c0.5-0.1,0.9-0.4,1.2-0.7l0.6-0.7
		c0.3-0.6,0.5-1.1,0.5-1.8c0-0.3-0.1-0.6-0.1-0.9C757.5,508.9,757.2,508.3,756.7,507.9L756.7,507.9L756.7,507.9z"/>
	<path class="st3" d="M742.9,516.9c-0.3,0.2-0.6,0.4-0.8,0.6c-0.1,0.1-0.5,0.6-0.6,0.7c0,0,0,0,0,0c-0.1,0.2-0.3,0.7-0.4,0.9
		c0,0,0,0,0,0.1c0,0,0,0.1,0,0.2c-0.1,0.5-0.2,1-0.1,1.5c0,0.2,0,0.4,0,0.5c0,0.3,0,0.6,0,0.9c0,0.3,0,0.7,0,1c0,0.3,0.1,0.6,0.1,1
		c0,0.7,0,1.3,0,2c0,0.4,0,0.8,0,1.1c0,0.7,0.2,1.3,0.3,1.9l-0.1-0.9c0,0.3,0,0.7,0,1c0,0.6,0.1,1.3,0.2,1.9l-0.1-0.9
		c0,0.3,0,0.5,0,0.8c0,0.6,0.1,1.1,0.2,1.7l-0.1-0.9c0.1,1,0,2.1,0,3.1c0,0.5,0.1,1,0.1,1.5c0.1,0.5,0,1,0,1.5l0.1-0.9
		c-0.1,0.5-0.2,1-0.2,1.6c0,0.1,0,0.2,0,0.3c0,0.4,0.1,0.8,0.2,1.2l-0.1-0.9c0,0.1,0,0.2,0,0.3l0.1-0.9c0,0,0,0.1,0,0.1l0.4-0.8
		c0,0.1-0.1,0.1-0.1,0.2l0.6-0.7c-0.2,0.3-0.5,0.5-0.8,0.8l0.7-0.6c-0.6,0.4-1.2,0.8-1.8,1.2c-0.9,0.6-1.7,1.2-2.5,1.8
		c-1.4,1.1-2.7,2.2-3.6,3.6c-0.2,0.3-0.4,0.7-0.6,1.1c-0.1,0.1-0.2,0.3-0.3,0.4c-0.3,0.4-0.5,0.8-0.6,1.3c-0.2,0.5-0.2,0.9-0.1,1.4
		c0,0.5,0.2,0.9,0.4,1.3c0.2,0.4,0.5,0.7,0.9,1c0.4,0.3,0.8,0.5,1.3,0.6c0.3,0,0.6,0.1,1,0.1c0.7,0,1.3-0.2,1.8-0.5l0.7-0.6
		c0.4-0.4,0.8-1,0.9-1.5c0-0.1,0-0.1,0.1-0.2l-0.4,0.8c0.1-0.2,0.2-0.3,0.3-0.4c0.1-0.2,0.2-0.4,0.3-0.6c0.2-0.4,0.4-0.8,0.7-1.1
		l-0.6,0.7c0.4-0.6,1-1,1.5-1.5c0.6-0.5,1.2-1,1.8-1.4l-0.7,0.6c0.8-0.6,1.7-1.2,2.6-1.8c0.4-0.3,0.9-0.6,1.3-0.9
		c0.2-0.2,0.4-0.3,0.5-0.5c0.3-0.3,0.5-0.6,0.8-0.9c0,0,0-0.1,0.1-0.1c0.1-0.2,0.1-0.3,0.2-0.5c0.1-0.2,0.1-0.3,0.2-0.5
		c0.3-0.9,0.1-1.6,0-2.5c0,0.3,0.1,0.6,0.1,0.9c0-0.2,0-0.4,0-0.6c0,0.3-0.1,0.6-0.1,0.9c0.1-0.7,0.3-1.5,0.3-2.2
		c0-0.5-0.1-0.9-0.1-1.3c-0.1-0.9,0-1.9,0-2.8c0-0.8-0.1-1.7-0.2-2.5l0.1,0.9c0-0.2,0-0.5,0-0.7c0-0.5-0.1-1.1-0.2-1.6l0.1,0.9
		c-0.1-0.4-0.1-0.8-0.1-1.2c0-0.7-0.2-1.4-0.3-2.1l0.1,0.9c-0.1-0.5,0-1.1,0-1.6s0-1.1,0-1.6c0-0.5-0.1-1.1-0.1-1.6c0-0.5,0-1,0-1.5
		c0-0.3-0.1-0.7,0-1.1c0,0.3-0.1,0.6-0.1,0.9c0-0.1,0-0.2,0.1-0.2l-0.4,0.8c0,0,0-0.1,0-0.1l-0.6,0.7c0,0,0,0,0,0l-0.7,0.6l0,0
		c0.4-0.2,0.8-0.5,1-0.9c0.3-0.3,0.5-0.7,0.7-1.2c0.2-0.5,0.2-0.9,0.1-1.4c0-0.5-0.2-0.9-0.4-1.3l-0.6-0.7c-0.5-0.4-1-0.7-1.6-0.9
		l-1-0.1C744,516.4,743.4,516.6,742.9,516.9L742.9,516.9L742.9,516.9z"/>
	<path class="st3" d="M743.7,543.1c0.1,0.1,0.2,0.3,0.3,0.5c0.1,0.2,0.2,0.3,0.3,0.4c0.4,0.5,0.8,1,1.2,1.5c0.5,0.5,1.1,1,1.6,1.6
		l-0.6-0.7c0.5,0.6,1,1.2,1.5,1.8c0.3,0.4,0.7,0.8,1,1.1l-0.6-0.7c0.3,0.4,0.7,0.8,1,1.2c0.2,0.2,0.4,0.3,0.5,0.5l-0.6-0.7
		c0.1,0.2,0.3,0.4,0.4,0.6c0.3,0.4,0.6,0.8,1,1.2c0.3,0.3,0.7,0.6,1.2,0.7c0.4,0.2,0.9,0.3,1.4,0.3c0.5,0,1-0.1,1.4-0.3
		c0.5-0.1,0.9-0.4,1.2-0.7l0.6-0.7c0.3-0.5,0.5-1.1,0.5-1.8l-0.1-0.9c-0.2-0.6-0.5-1.1-0.9-1.5c0-0.1-0.1-0.1-0.1-0.2l0.6,0.7
		c-0.1-0.2-0.3-0.3-0.4-0.5c-0.3-0.4-0.6-0.8-0.9-1.2c-0.3-0.3-0.6-0.6-0.9-0.9l0.6,0.7c-0.4-0.6-0.9-1.1-1.4-1.6
		c-0.3-0.3-0.6-0.6-0.8-0.9l0.6,0.7c-0.4-0.4-0.7-0.9-1.1-1.3c-0.2-0.2-0.4-0.4-0.6-0.6c-0.4-0.4-0.8-0.8-1.2-1.2l0.6,0.7
		c-0.2-0.2-0.3-0.4-0.5-0.6c-0.2-0.2-0.2-0.5-0.4-0.7c-0.2-0.4-0.5-0.7-0.9-1c-0.4-0.3-0.8-0.5-1.3-0.6c-0.5-0.2-1-0.2-1.5-0.1
		c-0.5,0-0.9,0.2-1.4,0.4l-0.7,0.6c-0.4,0.4-0.8,1-0.9,1.5l-0.1,0.9C743.2,542,743.4,542.6,743.7,543.1L743.7,543.1L743.7,543.1z"/>
	<path class="st3" d="M745.5,500.6L745.5,500.6l0.7,0.5c0,0,0,0,0,0l0.6,0.7c0,0,0,0,0,0l0.4,0.8c0,0,0,0,0-0.1l0.1,0.9
		c0,0,0-0.1,0-0.2l-0.1,0.9c0-0.2,0.1-0.3,0.2-0.5l-0.4,0.8c0.2-0.4,0.3-0.7,0.5-1.1c0-0.1,0.1-0.2,0.1-0.3c0.1-0.6,0.2-1.3,0.2-1.9
		c0-0.7-0.1-1.4,0-2.1l-0.1,0.9c0.1-0.6,0.2-1.2,0.2-1.7c0-0.3,0-0.6,0-0.9c0-0.6,0-1.2,0-1.8c0-1.2-0.1-2.4-0.1-3.6
		c0-0.3,0-0.6,0-1c0-0.6-0.2-1.2-0.3-1.8c0,0.3,0.1,0.6,0.1,0.9c0-0.4,0-0.8,0-1.2c0-0.4-0.1-0.8-0.1-1.2c0-0.2,0-0.4,0-0.6
		c0-0.5-0.1-1-0.2-1.5c-0.1-0.4-0.2-0.7-0.2-1.1c0,0.3,0.1,0.6,0.1,0.9c-0.1-0.5,0-1.1-0.2-1.6c-0.1-0.2-0.2-0.4-0.2-0.7
		c0,0.3,0.1,0.6,0.1,0.9c0-0.3-0.1-0.7-0.1-1.1c0-0.2-0.1-0.4-0.2-0.5c-0.1-0.2-0.1-0.4-0.2-0.5c-0.1-0.1-0.2-0.3-0.3-0.4
		c-0.2-0.3-0.4-0.5-0.7-0.6c-0.2-0.2-0.5-0.4-0.8-0.5c-0.2-0.1-0.3-0.1-0.5-0.2l0.9,0.4c0,0-0.1,0-0.1-0.1l0.7,0.6
		c0,0-0.1-0.1-0.1-0.1l0.6,0.7c-0.1-0.2-0.2-0.3-0.3-0.5c-0.2-0.4-0.6-0.8-0.9-1.1c-0.2-0.3-0.5-0.5-0.7-0.8l0.6,0.7
		c-0.2-0.2-0.3-0.4-0.4-0.6c-0.3-0.4-0.7-0.8-1-1.2l0.6,0.7c-0.5-0.6-1-1.3-1.6-2c-0.4-0.4-0.8-0.8-1.2-1.2s-0.9-0.8-1.3-1.2
		c-0.6-0.6-1.3-1.1-2-1.6c-0.2-0.2-0.5-0.3-0.7-0.5c-0.2-0.1-0.5-0.2-0.7-0.4l0.7,0.6c0,0-0.1-0.1-0.1-0.1c-0.3-0.3-0.7-0.6-1.2-0.7
		c-0.4-0.2-0.9-0.3-1.4-0.3c-0.5,0-1,0.1-1.4,0.3c-0.4,0.1-0.9,0.4-1.2,0.7l-0.6,0.7c-0.3,0.6-0.5,1.1-0.5,1.8l0.1,0.9
		c0.2,0.6,0.5,1.1,0.9,1.5c0,0,0.1,0.1,0.1,0.1c0.3,0.2,0.5,0.4,0.8,0.6c0.1,0.1,0.2,0.1,0.3,0.2c0.2,0.1,0.3,0.2,0.5,0.2
		c0.4,0.2,0.8,0.5,1.2,0.8l-0.7-0.6c0.7,0.5,1.3,1.1,1.9,1.7c0.6,0.6,1.2,1.1,1.7,1.7l-0.6-0.7c0.5,0.6,0.9,1.2,1.4,1.8l-0.6-0.7
		c0.1,0.2,0.3,0.3,0.4,0.5c0.3,0.4,0.6,0.8,0.9,1.2c0.3,0.3,0.5,0.6,0.8,0.9l-0.6-0.7c0.2,0.2,0.3,0.5,0.4,0.7
		c0.2,0.3,0.4,0.7,0.7,0.9c0.7,0.6,1,0.7,1.8,1l-2.2-1.6c0,0,0,0.1,0.1,0.1l-0.4-0.8c0,0.1,0,0.1,0,0.2l-0.1-0.9
		c0.1,0.5,0.1,1,0.3,1.4c0.1,0.2,0.1,0.3,0.2,0.5l-0.1-0.9c0,0.1,0,0.3,0,0.4c0,0.4,0.1,0.9,0.2,1.3c0.1,0.3,0.1,0.5,0.2,0.8
		l-0.1-0.9c0,0.3,0,0.7,0,1s0,0.7,0.1,1c0,0.3,0,0.7,0,1c0,0.6,0.2,1.3,0.3,1.9l-0.1-0.9c0.1,0.5,0.1,1,0.1,1.5c0,0.6,0,1.1,0,1.7
		c0,1.1,0.1,2.2,0.1,3.3c0,0.6,0,1.2-0.1,1.8l0.1-0.9c-0.1,0.6-0.2,1.2-0.2,1.7c0,0.3,0,0.6,0,0.8c0,0.5,0.1,1.1,0,1.6l0.1-0.9
		c0,0.1,0,0.3-0.1,0.4l0.4-0.8c-0.2,0.4-0.3,0.8-0.5,1.1c0,0.1-0.1,0.2-0.1,0.3c0,0,0,0.1,0,0.1c0,0.3-0.1,0.7-0.1,1c0,0,0,0,0,0.1
		c0,0,0,0,0,0l0.1,0.9c0.1,0.3,0.2,0.7,0.4,0.9l0.6,0.7c0,0,0,0,0,0c0.2,0.2,0.5,0.4,0.8,0.6c0.4,0.3,0.9,0.4,1.4,0.4
		c0.5,0.1,1,0.1,1.5-0.1c0.5-0.1,0.9-0.3,1.3-0.6c0.4-0.2,0.7-0.6,0.9-1l0.4-0.8c0.2-0.6,0.2-1.2,0-1.9l-0.4-0.8
		C746.5,501.4,746,501,745.5,500.6L745.5,500.6L745.5,500.6z"/>
	<path class="st3" d="M747.6,485.9c0-0.2,0-0.3,0-0.5l-0.1,0.9C747.5,486.2,747.5,486,747.6,485.9l-0.4,0.9c0.1-0.1,0.1-0.2,0.2-0.3
		l-0.6,0.7c0.2-0.2,0.4-0.4,0.5-0.6c0.2-0.3,0.6-0.6,0.8-1c0.1-0.1,0.2-0.3,0.2-0.4c0.3-0.5,0.6-1.1,1-1.5l-0.6,0.7
		c0.1-0.2,0.3-0.3,0.4-0.5c0.3-0.3,0.5-0.6,0.7-0.9s0.4-0.6,0.6-0.9c0.1-0.2,0.2-0.4,0.4-0.5l-0.6,0.7c0.2-0.2,0.4-0.4,0.7-0.6
		l-0.7,0.6c0.6-0.4,1.1-0.8,1.7-1.2c0.3-0.3,0.7-0.6,1-0.8l-0.7,0.6c0.4-0.3,0.8-0.6,1.2-0.7l-0.9,0.4c0.1,0,0.2-0.1,0.3-0.1l-1,0.1
		c0,0,0,0,0,0c0.5,0,1-0.1,1.4-0.3c0.5-0.1,0.9-0.4,1.2-0.7c0.4-0.3,0.6-0.7,0.8-1.1c0.2-0.4,0.3-0.9,0.3-1.4l-0.1-0.9
		c-0.2-0.6-0.5-1.1-0.9-1.5l-0.7-0.6c-0.6-0.3-1.2-0.5-1.8-0.5c-0.4,0-0.8,0-1.2,0.2c-0.4,0.1-0.8,0.3-1.2,0.5
		c-0.2,0.1-0.4,0.3-0.6,0.4c-0.5,0.3-0.9,0.7-1.4,1c-0.3,0.2-0.5,0.4-0.8,0.6l0.7-0.6c-0.2,0.2-0.4,0.3-0.7,0.5
		c-0.4,0.3-0.9,0.6-1.3,1c0,0-0.1,0.1-0.1,0.1c-0.2,0.3-0.5,0.6-0.7,0.8c-0.1,0.1-0.1,0.2-0.2,0.3c-0.1,0.2-0.3,0.5-0.4,0.7l0.6-0.7
		c-0.2,0.2-0.4,0.5-0.6,0.7c-0.4,0.5-0.8,0.9-1.1,1.5c-0.2,0.3-0.4,0.6-0.5,0.9c-0.2,0.3-0.3,0.6-0.5,0.9l0.6-0.7
		c-0.1,0.1-0.2,0.3-0.4,0.4c-0.3,0.3-0.5,0.6-0.7,0.9c-0.1,0.1-0.1,0.2-0.2,0.3c-0.2,0.3-0.3,0.7-0.5,1.1c0,0.1,0,0.2-0.1,0.3
		c-0.1,0.5-0.2,1-0.2,1.5c0,0.5,0.1,0.9,0.3,1.4c0.1,0.4,0.4,0.8,0.8,1.1c0.3,0.3,0.7,0.6,1.2,0.7c0.4,0.2,0.9,0.3,1.4,0.3l1-0.1
		c0.6-0.2,1.2-0.5,1.6-0.9l0.6-0.7C747.4,487.1,747.6,486.5,747.6,485.9L747.6,485.9L747.6,485.9z"/>
	<path class="st3" d="M750.7,519c-0.1,0.6,0.2,1.6,0.6,2.1c0.1,0.1,0.2,0.3,0.3,0.4c0.1,0.1,0.2,0.3,0.3,0.4c0,0,0,0,0.1,0.1
		c0.3,0.3,0.6,0.5,0.9,0.7c0.1,0.1,0.3,0.2,0.4,0.3c0.1,0.1,0.3,0.2,0.4,0.3c0.4,0.2,0.9,0.4,1.3,0.6c0.4,0.3,0.8,0.6,1.2,0.8
		c0.8,0.6,1.6,1.1,2.5,1.6c0.5,0.3,0.9,0.5,1.4,0.8c0.2,0.1,0.4,0.3,0.7,0.4c0.2,0.1,0.4,0.3,0.6,0.4c0.2,0.1,0.5,0.2,0.7,0.3
		c0.2,0.1,0.5,0.2,0.7,0.4c0.2,0.2,0.4,0.3,0.7,0.4s0.5,0.2,0.7,0.4l-0.7-0.6c0.4,0.3,0.7,0.6,1.1,0.9c0.2,0.1,0.3,0.2,0.5,0.2
		c0.4,0.2,0.7,0.4,1,0.6c0.7,0.5,1.4,1,2.1,1.5l-0.7-0.6c0.7,0.5,1.4,1.1,2.1,1.6c0.5,0.3,0.9,0.6,1.4,1l-0.7-0.6
		c0.4,0.3,0.9,0.7,1.3,1.1l-0.6-0.7c0.1,0.2,0.2,0.3,0.3,0.5l-0.4-0.8c0.1,0.4,0.2,0.7,0.3,1.1l-0.1-0.9c0.1,0.5,0.1,1.1,0.3,1.6
		c0.1,0.2,0.1,0.5,0.1,0.7c0-0.3-0.1-0.6-0.1-0.9c0.1,0.5,0.1,1.1,0.2,1.6c0.1,0.2,0.1,0.5,0.2,0.7l-0.1-0.9
		c0.1,0.4,0.1,0.8,0.1,1.2c0.1,0.7,0.2,1.4,0.3,2c0.1,0.4,0.2,0.8,0.3,1.1c0.1,0.4,0.1,0.7,0.2,1.1c0,0.1,0.1,0.2,0.1,0.3
		c0.1,0.4,0.3,0.7,0.5,1.1c0.1,0.2,0.2,0.4,0.3,0.6c0.2,0.4,0.5,0.7,0.9,1c0.4,0.3,0.8,0.5,1.3,0.6c0.5,0.2,1,0.2,1.5,0.1
		c0.5,0,0.9-0.2,1.4-0.4l0.7-0.6c0.5-0.4,0.8-1,0.9-1.5l0.1-0.9c0-0.6-0.2-1.2-0.5-1.8c-0.1-0.3-0.3-0.5-0.4-0.8
		c0.1,0.3,0.2,0.6,0.4,0.8c-0.2-0.5-0.3-1.1-0.4-1.7c-0.2-0.6-0.3-1.2-0.4-1.8l0.1,0.9c-0.1-0.4-0.1-0.9-0.1-1.3
		c-0.1-0.5-0.1-1-0.2-1.5c0-0.2-0.1-0.4-0.1-0.6l0.1,0.9c-0.1-0.6-0.1-1.1-0.2-1.7c-0.1-0.3-0.1-0.5-0.2-0.8l0.1,0.9
		c-0.1-0.5-0.1-1-0.2-1.5c0-0.2-0.1-0.3-0.1-0.5c-0.1-0.2-0.2-0.4-0.3-0.6c-0.1-0.2-0.2-0.5-0.3-0.7c0-0.1-0.1-0.2-0.1-0.2
		c-0.2-0.3-0.5-0.6-0.7-0.9c-0.3-0.3-0.6-0.6-0.9-0.8c-0.6-0.4-1.1-0.8-1.7-1.2c-0.4-0.3-0.8-0.6-1.2-0.9l0.7,0.6
		c-1-0.8-2-1.5-3.1-2.2c-0.4-0.3-0.8-0.5-1.2-0.8c-0.4-0.2-0.8-0.4-1.1-0.6l0.7,0.6c-0.4-0.3-0.8-0.6-1.2-0.9
		c-0.2-0.1-0.4-0.2-0.6-0.3c-0.4-0.2-0.7-0.5-1.1-0.7c-0.2-0.1-0.4-0.2-0.6-0.3c-0.2-0.1-0.4-0.2-0.6-0.4c-0.4-0.3-0.8-0.5-1.2-0.8
		c-0.4-0.2-0.9-0.5-1.3-0.7c-0.4-0.2-0.8-0.5-1.2-0.7c-0.8-0.5-1.5-1.1-2.3-1.6c-0.4-0.3-0.9-0.4-1.3-0.7c-0.2-0.1-0.3-0.2-0.5-0.3
		c-0.2-0.1-0.3-0.2-0.5-0.3l0.7,0.6c-0.1-0.1-0.2-0.1-0.2-0.2l0.6,0.7c0,0-0.1-0.1-0.1-0.2l0.4,0.8c0,0,0-0.1,0-0.1
		c0,0.3,0.1,0.6,0.1,0.9c0,0,0-0.1,0-0.1c0-0.5-0.1-0.9-0.3-1.4c-0.1-0.4-0.4-0.8-0.8-1.1c-0.3-0.3-0.7-0.6-1.2-0.7
		c-0.4-0.2-0.9-0.3-1.4-0.3l-1,0.1c-0.6,0.2-1.2,0.5-1.6,0.9l-0.6,0.7C750.9,517.8,750.7,518.4,750.7,519L750.7,519L750.7,519z"/>
	<path class="st3" d="M777.2,534.7c0.1-0.1,0.2-0.1,0.3-0.2c-0.3,0.1-0.6,0.2-0.9,0.4C776.9,534.8,777.1,534.8,777.2,534.7l-0.9,0.1
		C776.6,534.8,777,534.8,777.2,534.7c0.8,0.1,1.4-0.1,2.1-0.2c-0.3,0-0.7,0.1-1,0.1c0.4,0,0.9,0,1.3,0c0.7,0,1.4-0.1,2.2-0.2l-1,0.1
		c0.3,0,0.7,0,1-0.1c0.6,0,1.3-0.1,1.9-0.2c0.7-0.1,1.4-0.3,2-0.5c0.5-0.1,0.9-0.3,1.3-0.6c0.4-0.2,0.7-0.6,0.9-1
		c0.3-0.4,0.4-0.8,0.4-1.3c0.1-0.5,0.1-0.9-0.1-1.4l-0.4-0.8c-0.3-0.5-0.8-0.9-1.3-1.3l-0.9-0.4c-0.7-0.2-1.3-0.2-1.9,0
		c-0.8,0.2-1.7,0.5-2.5,0.6c0.3,0,0.7-0.1,1-0.1c-0.3,0-0.6,0.1-1,0.1c-0.7,0-1.3,0.2-1.9,0.2c0.3,0,0.7-0.1,1-0.1
		c-0.4,0.1-0.9,0-1.3,0c-0.2,0-0.4,0-0.6,0c-0.4,0-0.8,0.1-1.2,0.2c-0.1,0-0.2,0-0.3,0.1l1-0.1c-0.4,0-0.9,0-1.3,0
		c-0.4,0-0.8,0.1-1.3,0.2c-0.1,0-0.2,0-0.3,0.1c0,0-0.1,0-0.1,0c-0.3,0.1-0.7,0.3-1,0.4c-0.1,0-0.2,0.1-0.3,0.2
		c-0.4,0.2-0.8,0.5-1,0.9c-0.3,0.3-0.5,0.7-0.7,1.2c-0.2,0.5-0.2,0.9-0.1,1.4c0,0.5,0.2,0.9,0.4,1.3l0.6,0.7c0.5,0.4,1,0.7,1.6,0.9
		l1,0.1C776,535.2,776.6,535,777.2,534.7L777.2,534.7L777.2,534.7z"/>
	<path class="st3" d="M736.8,503.9c-0.1-0.1-0.3-0.2-0.4-0.2c-0.4-0.2-0.9-0.4-1.3-0.5l0.9,0.4c-0.3-0.1-0.5-0.3-0.8-0.4
		c-0.3-0.2-0.6-0.3-0.8-0.5l0.7,0.6c-0.2-0.1-0.3-0.3-0.5-0.4c-0.4-0.3-0.8-0.6-1.3-0.9c-0.4-0.2-0.8-0.4-1.2-0.7l0.7,0.6
		c-0.6-0.5-1.2-1-1.8-1.4c-0.2-0.1-0.4-0.2-0.6-0.3c-0.2-0.1-0.4-0.3-0.6-0.4c-0.4-0.3-0.9-0.5-1.3-0.8s-0.9-0.5-1.3-0.8
		c-0.8-0.6-1.6-1.2-2.4-1.8s-1.7-1.1-2.5-1.7c-1-0.6-2-1.1-2.9-1.8l0.7,0.6c-0.4-0.3-0.8-0.6-1.2-0.9c-0.2-0.1-0.4-0.2-0.6-0.3
		c-0.4-0.2-0.8-0.3-1.2-0.5c-0.9-0.4-1.8-0.7-2.6-1.2c-0.2-0.1-0.4-0.3-0.7-0.4c-0.2-0.1-0.4-0.2-0.5-0.3l0.7,0.6c0,0,0,0,0,0
		l0.6,0.7c0,0,0,0,0,0l0.4,0.8c0,0,0,0,0-0.1l0.1,0.9c0-0.1,0-0.3,0-0.4l-0.1,0.9c0.1-0.8,0.3-1.6,0.3-2.4c0-0.8-0.2-1.6-0.3-2.5
		l0.1,0.9c-0.1-0.8-0.2-1.6-0.3-2.4c-0.1-0.8-0.4-1.5-0.8-2.2c-0.2-0.4-0.5-0.7-0.9-1c-0.4-0.3-0.8-0.5-1.3-0.6
		c-0.5-0.2-1-0.2-1.5-0.1c-0.5,0-0.9,0.2-1.4,0.4l-0.7,0.6c-0.5,0.4-0.8,1-0.9,1.5l-0.1,0.9c0,0.6,0.2,1.2,0.5,1.8c0,0,0,0.1,0,0.1
		l-0.4-0.8c0.2,0.5,0.3,1,0.4,1.6l-0.1-0.9c0,0.3,0.1,0.6,0.1,0.9c0.1,0.6,0.2,1.2,0.3,1.9l-0.1-0.9c0.1,0.5,0.2,1.1,0.1,1.6
		l0.1-0.9c0,0.1,0,0.3-0.1,0.4c-0.1,0.4-0.1,0.9-0.2,1.3c-0.1,1.1,0.3,2.2,1.1,3c0.4,0.4,0.8,0.6,1.2,0.8c0.3,0.2,0.5,0.3,0.7,0.5
		c0.5,0.3,1,0.5,1.5,0.8c0.5,0.2,1,0.5,1.6,0.7c0.5,0.2,1.1,0.4,1.6,0.8l-0.7-0.6c0.6,0.5,1.2,0.9,1.8,1.3c0.4,0.3,0.8,0.5,1.2,0.7
		c0.8,0.5,1.7,1,2.5,1.5c1.6,1.1,3,2.3,4.7,3.2c0.4,0.3,0.9,0.5,1.3,0.8c0.4,0.3,0.9,0.5,1.3,0.8l-0.7-0.6c0.2,0.2,0.4,0.3,0.6,0.5
		c0.4,0.3,0.9,0.7,1.3,1c0.4,0.3,0.9,0.5,1.3,0.8l-0.7-0.6c0.2,0.1,0.4,0.3,0.5,0.5c0.4,0.3,0.9,0.7,1.4,0.9
		c0.2,0.1,0.4,0.2,0.6,0.3c0.5,0.2,1,0.4,1.5,0.6l-0.9-0.4c0.2,0.1,0.5,0.2,0.7,0.3c0.4,0.3,0.9,0.4,1.4,0.4c0.5,0.1,1,0.1,1.5-0.1
		c0.5-0.1,0.9-0.3,1.3-0.6c0.4-0.2,0.7-0.6,0.9-1l0.4-0.8c0.2-0.6,0.2-1.2,0-1.9l-0.4-0.8C737.7,504.6,737.3,504.2,736.8,503.9
		L736.8,503.9L736.8,503.9z"/>
	<path class="st3" d="M713.4,491.6c-0.4-0.2-0.7-0.3-1.1-0.4c-0.4-0.1-0.8-0.1-1.2-0.2c-0.1,0-0.2,0-0.3,0c-0.4,0-0.8,0.1-1.2,0.2
		c-0.4,0.1-0.8,0.2-1.2,0.2c-0.4,0.1-0.8,0.1-1.2,0.2c-0.4,0.1-0.8,0.2-1.2,0.2l1-0.1c-0.5,0.1-1.1,0.1-1.6,0.2
		c-0.2,0-0.4,0.1-0.7,0.1l1-0.1c-0.1,0-0.3,0-0.4,0c-0.5,0-1,0.1-1.4,0.3c-0.4,0.1-0.9,0.4-1.2,0.7c-0.4,0.3-0.6,0.7-0.8,1.1
		c-0.2,0.4-0.3,0.9-0.3,1.4l0.1,0.9c0.2,0.6,0.5,1.1,0.9,1.5l0.7,0.6c0.6,0.3,1.2,0.5,1.8,0.5c0.1,0,0.2,0,0.4,0
		c0.4,0,0.9-0.1,1.3-0.2c0.2,0,0.5-0.1,0.7-0.1l-1,0.1c0.6-0.1,1.3-0.2,1.9-0.3c0.3-0.1,0.7-0.1,1-0.2s0.7-0.1,1-0.2
		c0.3-0.1,0.7-0.1,1-0.2l-1,0.1c0.2,0,0.3,0,0.5,0l-1-0.1c0.1,0,0.3,0,0.4,0.1l-0.9-0.4l0,0c0.4,0.3,0.9,0.4,1.4,0.4
		c0.5,0.1,1,0.1,1.5-0.1c0.5-0.1,0.9-0.3,1.3-0.6c0.4-0.2,0.7-0.6,0.9-1l0.4-0.8c0.2-0.6,0.2-1.2,0-1.9l-0.4-0.8
		C714.3,492.3,713.9,491.9,713.4,491.6L713.4,491.6L713.4,491.6z"/>
	<path class="st3" d="M732.7,515.5C732.7,515.5,732.7,515.6,732.7,515.5l-0.6,0.8c0,0,0,0,0,0c-0.2,0.3-0.3,0.6-0.4,1
		c0,0.1-0.1,0.2-0.1,0.3l0.4-0.8c0,0.1-0.1,0.2-0.2,0.3l0.6-0.7c-0.1,0.2-0.3,0.3-0.4,0.4c-0.3,0.4-0.6,0.8-0.9,1.2
		c-0.2,0.4-0.5,0.7-0.8,1.1c-0.3,0.4-0.5,0.7-0.8,1.1c-0.2,0.4-0.5,0.7-0.7,1.1l0.6-0.7c-0.3,0.3-0.6,0.7-0.9,1.1
		c-0.1,0.1-0.2,0.3-0.3,0.4c-0.1,0.3-0.3,0.5-0.5,0.7l0.6-0.7c-0.1,0.2-0.3,0.3-0.4,0.5c-0.2,0.2-0.3,0.3-0.4,0.5
		c-0.3,0.3-0.5,0.7-0.8,1c-0.5,0.6-0.9,1.1-1.4,1.7c-0.2,0.3-0.4,0.6-0.7,1l0.6-0.7c-0.2,0.2-0.4,0.4-0.6,0.6s-0.4,0.4-0.6,0.6
		c-0.4,0.4-0.8,0.9-1.2,1.2l0.7-0.6c-0.6,0.4-1.2,0.9-1.7,1.4c-0.3,0.3-0.7,0.6-1,0.9l0.7-0.6c-0.5,0.3-0.9,0.6-1.4,1
		s-0.9,0.7-1.4,1.1c-0.2,0.2-0.4,0.4-0.7,0.5l0.7-0.6c-0.3,0.2-0.6,0.5-1,0.7c-0.3,0.2-0.6,0.4-0.9,0.5l0.9-0.4
		c-0.1,0.1-0.3,0.1-0.4,0.1l1-0.1c-0.1,0-0.3,0-0.4,0l1,0.1c-0.2,0-0.4-0.1-0.6-0.2c-0.2-0.1-0.4-0.1-0.7-0.2
		c-0.4-0.1-0.9-0.2-1.4-0.4c-0.2-0.1-0.4-0.1-0.7-0.2c-0.1,0-0.2-0.1-0.3-0.1c-0.4-0.1-0.9-0.1-1.3-0.2c-0.4,0-0.9,0-1.4,0
		c-0.5,0-1.1-0.1-1.6-0.1c-0.5,0-1,0.1-1.4,0.3c-0.5,0.1-0.9,0.4-1.2,0.7c-0.4,0.3-0.6,0.7-0.8,1.1c-0.2,0.4-0.3,0.9-0.3,1.4
		l0.1,0.9c0.2,0.6,0.5,1.1,0.9,1.5l0.7,0.6c0.6,0.3,1.2,0.5,1.8,0.5c0.5,0,1.1,0.1,1.6,0.1c0.5,0,1,0,1.5,0.1c-0.3,0-0.7-0.1-1-0.1
		c0.3,0,0.6,0.1,0.9,0.2c0.3,0.1,0.6,0.2,0.9,0.2c0.3,0.1,0.6,0.2,0.9,0.2c0.3,0.1,0.6,0.2,0.9,0.3c0.4,0.1,0.9,0.2,1.3,0.2
		c0.1,0,0.1,0,0.2,0c0.4,0,0.8-0.1,1.2-0.2c0.1,0,0.2-0.1,0.3-0.1c0.4-0.2,0.8-0.3,1.2-0.5c0.2-0.1,0.4-0.3,0.6-0.4
		c0.2-0.2,0.5-0.3,0.7-0.5c0.5-0.3,1-0.7,1.5-1.1c0.3-0.2,0.5-0.4,0.8-0.6l-0.7,0.6c0.3-0.2,0.6-0.4,0.9-0.6c0.5-0.4,1-0.7,1.5-1.1
		c0.5-0.4,1-0.9,1.6-1.3l-0.7,0.6c0.5-0.4,1.1-0.7,1.5-1.2c0.2-0.2,0.5-0.5,0.7-0.8c0.1-0.1,0.2-0.2,0.4-0.3
		c0.1-0.1,0.3-0.2,0.4-0.3s0.2-0.2,0.4-0.4c0.3-0.4,0.6-0.7,0.9-1.1c0.2-0.3,0.5-0.7,0.7-1l-0.6,0.7c0.3-0.3,0.6-0.7,0.8-1
		c0.3-0.3,0.5-0.7,0.8-1c0.1-0.2,0.3-0.3,0.4-0.5c0.3-0.3,0.7-0.7,0.9-1.1c0.2-0.3,0.4-0.7,0.6-1l-0.6,0.7c0.4-0.5,0.9-1.1,1.3-1.7
		c0.2-0.3,0.5-0.7,0.7-1c0.2-0.3,0.5-0.7,0.7-1c0.1-0.2,0.2-0.3,0.4-0.5c0.1-0.2,0.2-0.3,0.3-0.5l-0.6,0.7c0.3-0.4,0.7-0.8,1-1.3
		c0,0,0.1-0.1,0.1-0.1c0.1-0.2,0.1-0.3,0.2-0.4c0.1-0.1,0.1-0.3,0.2-0.4c0,0,0,0,0-0.1c0-0.1,0.1-0.2,0.1-0.3l-0.4,0.8
		c0,0,0-0.1,0.1-0.1l-0.6,0.7c0,0,0,0,0.1-0.1c0.4-0.3,0.6-0.7,0.8-1.1c0.2-0.4,0.3-0.9,0.3-1.4c0-0.5-0.1-0.9-0.3-1.4
		c-0.1-0.4-0.4-0.8-0.8-1.1l-0.7-0.6c-0.6-0.3-1.2-0.5-1.8-0.5l-1,0.1C733.7,514.8,733.2,515.1,732.7,515.5L732.7,515.5L732.7,515.5
		z"/>
	<path class="st3" d="M716,540.3c0,0,0.1,0.1,0.1,0.2c0.2,0.3,0.4,0.6,0.7,0.8c0.1,0.1,0.2,0.2,0.3,0.2c0.4,0.3,0.9,0.6,1.3,0.9
		l-0.7-0.6c0.2,0.2,0.4,0.4,0.6,0.6l-0.6-0.7c0.5,0.7,1,1.4,1.3,2.1l-0.4-0.8c0.1,0.3,0.3,0.7,0.4,1c0.1,0.5,0.3,0.9,0.7,1.2
		c0.3,0.4,0.6,0.7,1,0.9c0.4,0.3,0.9,0.4,1.4,0.4c0.5,0.1,1,0.1,1.5-0.1l0.9-0.4c0.5-0.3,1-0.7,1.3-1.3l0.4-0.8
		c0.2-0.6,0.2-1.2,0-1.9c-0.1-0.3-0.3-0.7-0.4-1c-0.3-0.6-0.5-1.2-0.8-1.7c-0.2-0.3-0.4-0.6-0.6-0.9c-0.1-0.1-0.2-0.3-0.3-0.4
		c-0.3-0.4-0.6-0.7-0.9-1.1c-0.1-0.1-0.1-0.1-0.2-0.2c-0.3-0.2-0.6-0.5-0.9-0.7c-0.1-0.1-0.3-0.2-0.4-0.3l0.7,0.6
		c-0.1-0.1-0.3-0.2-0.4-0.3l0.6,0.7c0-0.1-0.1-0.1-0.1-0.2c-0.2-0.4-0.5-0.7-0.9-1c-0.4-0.3-0.8-0.5-1.3-0.6c-0.5-0.2-1-0.2-1.5-0.1
		c-0.5,0-0.9,0.2-1.4,0.4l-0.7,0.6c-0.4,0.4-0.8,1-0.9,1.5l-0.1,0.9C715.5,539.1,715.7,539.7,716,540.3L716,540.3L716,540.3z"/>
	<path class="st3" d="M756.6,510.9c0.6-0.6,1.2-1.2,1.9-1.7l-0.7,0.6c0.2-0.1,0.4-0.3,0.6-0.4c0.4-0.3,0.8-0.6,1.3-0.9
		c0.4-0.3,0.7-0.6,1-0.9c0.7-0.6,1.3-1.3,2-1.9c0.6-0.5,1.1-1.2,1.6-1.8l-0.6,0.7c0.5-0.6,1-1.2,1.4-1.8l-0.6,0.7
		c0.4-0.5,0.9-0.9,1.4-1.5c0.4-0.5,0.8-1.1,1.4-1.5l-0.7,0.6c0.4-0.3,0.8-0.5,1.2-0.8c0.4-0.3,0.8-0.5,1.2-0.8
		c0.4-0.2,0.8-0.5,1.2-0.7c0.4-0.3,0.8-0.5,1.2-0.7c0.5-0.2,0.9-0.5,1.4-0.7l-0.9,0.4c0.4-0.2,0.8-0.3,1.2-0.4
		c0.2,0,0.3-0.1,0.5-0.1c0.4-0.1,0.7-0.3,1.1-0.4c0,0,0.1,0,0.1-0.1c0,0,0,0,0,0c0.2-0.2,0.6-0.4,0.8-0.6c0,0,0,0,0.1-0.1
		c0,0,0,0,0,0c0.1-0.1,0.5-0.6,0.6-0.7c0,0,0-0.1,0-0.1c0.1-0.1,0.3-0.7,0.4-0.9c0,0,0-0.1,0-0.1c0.1-0.2,0.1-0.5,0.1-0.7
		c0-0.3,0.1-0.5,0.1-0.8c0-0.4-0.1-0.8-0.1-1.2c0-1,0-2,0-3c-0.1-1-0.1-2-0.1-3c0-0.6,0.1-1.1,0.1-1.7c0.1-0.6,0.1-1.1,0.2-1.7
		l-0.1,0.9c0.2-1.3,0.8-2.4,1.1-3.6c0.2-0.5,0.2-0.9,0.1-1.4c0-0.5-0.2-0.9-0.4-1.3c-0.2-0.4-0.5-0.7-0.9-1
		c-0.4-0.3-0.8-0.5-1.3-0.6l-1-0.1c-0.7,0-1.3,0.2-1.8,0.5l-0.7,0.6c-0.5,0.4-0.8,1-0.9,1.5c-0.2,0.9-0.6,1.8-0.9,2.7
		c-0.2,0.7-0.3,1.5-0.4,2.3c-0.1,0.5-0.1,1-0.2,1.5c0,0.5-0.1,1-0.1,1.5s0,1,0,1.5c0,1,0.1,2,0.1,3c0,0.5,0,1.1,0,1.6
		c0,0.5,0.1,0.9,0,1.4l0.1-0.9c0,0.1,0,0.2-0.1,0.3l0.4-0.8c0,0,0,0.1-0.1,0.1l0.6-0.7c0,0.1-0.1,0.1-0.1,0.1l0.7-0.6
		c-0.1,0.1-0.2,0.1-0.3,0.2l0.9-0.4c-0.3,0.1-0.6,0.2-0.9,0.3c-0.7,0.3-1.4,0.5-2.1,0.9c-0.4,0.2-0.8,0.4-1.2,0.6
		c-0.4,0.2-0.8,0.5-1.2,0.8c-0.4,0.3-0.8,0.5-1.3,0.7c-0.4,0.3-0.8,0.5-1.3,0.8c-0.2,0.1-0.4,0.2-0.6,0.4c-0.3,0.2-0.6,0.5-1,0.7
		c-0.1,0.1-0.2,0.2-0.3,0.2c-0.3,0.3-0.6,0.7-0.9,1c-0.2,0.2-0.3,0.4-0.5,0.6c-0.2,0.2-0.4,0.3-0.5,0.5c-0.6,0.6-1,1.2-1.5,1.9
		l0.6-0.7c-0.5,0.6-0.9,1.1-1.4,1.7l0.6-0.7c-0.3,0.3-0.6,0.6-1,0.9c-0.3,0.3-0.7,0.6-1,0.9c-0.6,0.6-1.2,1.2-1.9,1.8l0.7-0.6
		c-0.2,0.2-0.5,0.3-0.7,0.5c-0.5,0.3-1,0.7-1.4,1.1c-0.5,0.4-0.9,0.8-1.3,1.2c-0.4,0.3-0.6,0.7-0.8,1.1c-0.2,0.4-0.3,0.9-0.3,1.4
		c0,0.5,0.1,0.9,0.3,1.4c0.1,0.4,0.4,0.8,0.8,1.1l0.7,0.6c0.6,0.3,1.2,0.5,1.8,0.5l1-0.1C755.6,511.7,756.1,511.4,756.6,510.9
		L756.6,510.9L756.6,510.9z"/>
	<path class="st3" d="M771.9,497.4c0.4,0,0.7-0.1,1.1,0l-1-0.1c0.1,0,0.2,0,0.3,0.1l-0.9-0.4c0.4,0.2,0.8,0.3,1.2,0.5
		c0.4,0.2,0.9,0.2,1.3,0.2c0.3,0,0.6,0,0.9,0c0.6,0,1.2,0,1.8-0.1c0.7,0,1.3-0.1,2-0.1c0.7,0,1.3,0,1.9,0c0.4,0,0.7,0,1.1,0.1
		s0.7,0.1,1.1,0.1c0.5,0,1-0.1,1.4-0.3c0.5-0.1,0.9-0.4,1.2-0.7c0.4-0.3,0.6-0.7,0.8-1.1c0.2-0.4,0.3-0.9,0.3-1.4
		c0-0.3-0.1-0.6-0.1-0.9c-0.2-0.6-0.5-1.1-0.9-1.6l-0.7-0.6c-0.6-0.3-1.2-0.5-1.8-0.5c-0.6,0-1.1-0.1-1.7-0.1c-0.6,0-1.2,0-1.7,0
		c-1.2,0-2.3,0.1-3.5,0.1c-0.6,0-1.2,0.1-1.7,0l1,0.1c-0.1,0-0.2,0-0.3-0.1l0.9,0.4c-0.4-0.2-0.8-0.3-1.2-0.5
		c-0.4-0.2-0.9-0.2-1.4-0.2c-0.3,0-0.6,0-1,0c-0.5,0-1,0.1-1.4,0.3c-0.5,0.1-0.9,0.4-1.2,0.7c-0.4,0.3-0.6,0.7-0.8,1.1
		c-0.2,0.4-0.3,0.9-0.3,1.4l0.1,0.9c0.2,0.6,0.5,1.1,0.9,1.6l0.7,0.6C770.6,497.2,771.2,497.4,771.9,497.4L771.9,497.4L771.9,497.4z
		"/>
</g>
<g id="Layer_1_00000168806512739712343790000000117605775383235724_">
	<path class="st1" d="M738.6,519.8c0.3,0.3,0.9,0.5,1.3,0.7c0.5,0.2,1.1,0.5,1.7,0.7c0.8,0.2,1.6,0.1,2.3,0.3c0.2,0,0.5,0.1,0.7,0.1
		c0.4,0,0.9-0.2,1.3-0.4"/>
	<path class="st1" d="M739.4,506.6c-0.4,0.2-0.6,0.4-0.9,0.7c-0.2,0.3-0.6,0.6-0.8,1c-0.5,1.1-0.6,2.3-0.7,3.5"/>
	<path class="st1" d="M749,506.1c-0.9,1.1-1.4,2.5-1.8,3.8c-0.3,1.2-0.5,2.2-0.5,3.4"/>
</g>
</svg>
