<?xml version="1.0" encoding="utf-8"?>
<!-- Generator: Adobe Illustrator 27.3.1, SVG Export Plug-In . SVG Version: 6.00 Build 0)  -->
<svg version="1.1" xmlns="http://www.w3.org/2000/svg" xmlns:xlink="http://www.w3.org/1999/xlink" x="0px" y="0px"
	 viewBox="0 0 969 651.4" style="enable-background:new 0 0 969 651.4;" xml:space="preserve">
<style type="text/css">
	.st0{fill:none;stroke:#FFF200;stroke-width:4;stroke-miterlimit:10;}
	.st1{fill:#C6BD93;stroke:#C6BD93;stroke-width:60;stroke-miterlimit:10;}
	.st2{fill:none;stroke:#231F20;stroke-width:4;stroke-linecap:round;stroke-miterlimit:10;}
</style>
<g id="Layer_2">
	<path class="st0" d="M694.8,164.4c0,6.2,0,11.8,1,17.8c0.6,3.9,0.6,7.8,1.2,11.7c0.7,4.6,2,9.5,1.6,14.2"/>
	<path class="st0" d="M666.6,201.7c0.5-3,6.5-6,8.6-7.7c4.4-3.6,8.7-6.7,13.8-9.1c2.2-1.1,4.5-1.9,6.8-2.5c2.1-0.2,3.9-1.1,5.2-2.7
		c2.6-1.2,5.2-1.7,7.8-3.8"/>
	<path class="st0" d="M758.9,336.6c0.2,4.1,4.1,7.8,6.6,10.9c4.3,5.3,9.2,10.2,13.8,15.2c3.6,3.9,7.3,7.9,11.1,11.7
		c5.1,5.2,11.5,9.1,17.2,13.6"/>
	<path class="st0" d="M734.6,386.7c0.1-0.3,0.1-0.7,0.2-1c3.8-0.9,6.5-3.2,9.7-5.5c6.3-4.6,12-9.8,18.5-14
		c7.5-4.8,14.6-9.6,21.5-15.2c3.2-2.6,5.2-5.8,8.1-8.6c1.5-1.5,2.7-3.1,5-2.6c0.2-0.8,0.5-1.4,1.1-1.9"/>
	<path class="st0" d="M816.6,128.4c8.9,6.9,16.8,14.9,26.3,21.1c4.5,3,9.1,5.8,13.8,8.4c1.8,1,4,2.5,6,2.7"/>
	<path class="st0" d="M812.7,177.3c-0.1-7.6,3.8-12.6,8.9-18c3.5-3.7,5.8-7.8,9-11.7c1.7-2,2.9-4.2,4.5-6.2c1.9-2.5,4.6-4.5,7-6.6"
		/>
	<path class="st0" d="M84.7,102.7c3.9,4,9.7,6.7,14.3,9.9c10.9,7.6,21.6,15.6,32.2,23.5c13,9.7,28.8,14.4,40.6,25.7"/>
	<path class="st0" d="M98.8,152.8c-0.3-0.2-0.6-0.3-0.9-0.5c0.7-3.7,5.8-5.6,8.3-8.1c4.7-4.7,8.3-10.5,13.1-15.3
		c5.3-5.3,10.9-11,16.6-15.8c5.9-4.9,12.9-8.8,19.3-13.1"/>
	<path class="st0" d="M120.6,100.2c0.2,10.9-1.3,21.6-1.3,32.5c0,6.3,0,12.6,0,18.9"/>
	<path class="st0" d="M830.7,120.7c0,3.9-0.1,7.7,0,11.6c0.1,5.8,1.4,11.5,1.4,17.3c0,5-0.1,10-0.1,14.9c0.1,4.7,1.8,9.3,1.3,14"/>
	<path class="st0" d="M737.1,353.3c5.4-0.4,10.8,1.2,16.2,1.4c8.9,0.3,17.9-0.3,26.9-0.1c6.7,0.2,14.3,0.3,21,1.2
		c1.8,0.3,4.1,2.8,5.3,2.1c-0.3,0-0.6-0.1-0.9-0.3c0.3-0.1,0.5-0.2,0.8-0.4"/>
	<path class="st0" d="M165.5,488.3c5.2,10.1,18.4,16.6,28.4,20.4c4.4,1.6,7.6,3.7,11.7,5.8c4.1,2.1,8.3,2.3,12.4,4.7"/>
	<path class="st0" d="M168,539.7c-0.5-4.7,1.7-8.2,3.3-12.4c2.1-5.4,2.6-11.5,4.8-16.8c2.4-5.9,6.7-10.7,9.5-16.3
		c3.1-6.4,7.3-11.5,11.6-17.2c1.4-1.9,3.5-3,4.9-4.7c1.6-1.9,1.5-4.1,3-5.7"/>
	<path class="st0" d="M146.3,517.8c4-0.8,9.1-4.5,12.6-6.7c4.3-2.6,7.6-5,12.5-6c3.4-0.7,5.9-1.1,9.1-2.6c11.2-5,21.6-10.3,33.6-13"
		/>
	<path class="st1" d="M600.7,506.5c-8.5-7.4-19.6-10.8-30.3-13.5c-15.1-3.8-30.2-7.4-45.3-11.1c-13.9-3.4-28.1-6.8-40.8-13.7
		c-22.3-12.1-36.4-34.5-43.9-58.1c-9.1-28.4-10.7-58.9-12.9-88.4c-2.1-28.7-3-57.6,0-86.3c1.5-14.3,4-28.5,7.7-42.3
		c3.4-12.4,7.4-25.2,14-36.3c5.6-9.3,14.6-18.6,26.5-16.9c13.7,1.9,22.1,14.7,25.6,27c8.2,29.3,1.6,61.8-4.1,90.9
		c-5.7,28.6-12.2,57.7-10.6,87.1c0.7,13.5,3.2,26.9,8,39.6c2.3,6,11.9,3.4,9.6-2.7c-21.7-57.1,7.1-116.7,10.3-174.4
		c1.3-24.7-0.2-57.6-23.6-72.3c-9.6-6-21.4-7.1-31.6-2.1c-10,4.9-16.9,14.7-21.7,24.4c-11.9,24-17.3,51.5-20,77.9
		c-2.9,28.1-2.1,56.4-0.1,84.5c3.6,50.6,5.7,113.4,48.8,148.1c22.3,18,52.2,22.5,79.3,29.1c12.4,3,25.5,5.2,37.4,10.1
		c10.2,4.2,19.5,12.1,18.4,24.1c-0.9,10.7-8.7,20.2-18.1,24.9c-12.4,6.2-27.1,5.9-40.6,4.6c-23.9-2.3-47.6-8.1-70-16.8
		c-44.9-17.4-84.8-48.3-107.6-91.2c-13.4-25.1-21.2-52.9-27.8-80.5c-7-29.2-12-59-12.4-89.1c-0.6-51.6,13.8-105.9,51.2-143.2
		c19.7-19.7,44.8-31.7,70.1-42.5c27.5-11.7,55.7-22,84.4-30.8c13.9-4.3,27.9-8.2,42-11.8c6.2-1.6,3.6-11.2-2.7-9.6
		c-29.4,7.5-58.5,16.5-87,27c-27.4,10.1-55.6,20.8-80.9,35.5c-44.4,25.9-72,71-82.2,120.7c-11.9,58-1.1,118.8,15.3,174.9
		c7.6,26,17.6,51.7,33.3,73.9c13.8,19.6,31.2,36.2,50.9,49.8c19.9,13.8,42.1,24.3,65.2,31.7c23.3,7.5,49,13.2,73.7,12.8
		c23-0.4,48.4-11.1,52.8-36.3C612.6,524.5,609,513.7,600.7,506.5z"/>
	<path class="st1" d="M651.3,548.3c-47-16.2-93.9-32.9-140.6-50.1c-11.7-4.3-23.3-8.6-35-13c-11.1-4.2-22.3-8.3-32.4-14.4
		c-17.5-10.6-30.4-27-40.1-44.8c-20.4-37.4-30.1-81.8-28.4-124.3c0.9-21.6,4.9-43.1,12.5-63.3c3.8-10.1,8.3-20.2,14.3-29.2
		c6.2-9.4,14.6-16.2,24.3-21.9c10.9-6.4,22.4-11.9,33.3-18.3c10.5-6.2,20.7-12.9,30.6-20c20.1-14.5,38.9-30.8,56.1-48.7
		c4.5-4.6-2.6-11.7-7.1-7.1c-16.2,16.9-33.8,32.4-52.7,46.1c-18.6,13.5-38.4,24.6-58.6,35.6c-9.6,5.2-19,11-26.5,19
		c-7.6,8.2-13.1,18-17.7,28.1c-9.2,20.2-14.8,41.6-17.3,63.7c-5,44.5,3.3,90.4,21.5,131.2c8.3,18.6,19.3,36.6,34.4,50.4
		c17.6,16.1,40.1,23.6,62.1,31.8c54.6,20.3,109.4,40,164.5,59C654.8,560,657.4,550.4,651.3,548.3z"/>
	<path class="st1" d="M645.4,532.9c-47.3-25.6-87.7-63.5-116.1-109.3c-16.2-26.1-28-54.8-39.3-83.3c-5.9-15-11.5-30.1-16.8-45.3
		c-5.2-15-10.7-30.2-13.2-45.9c-5.6-34.4,9.3-66.4,27.2-94.8c3.4-5.5-5.2-10.5-8.6-5c-16,25.4-30,54-29.8,84.7
		c0.1,16.2,4.3,32.1,9.3,47.4c5.2,15.8,10.8,31.5,16.7,47.1c11.6,30.5,23.7,61.4,39.8,89.8c13.8,24.3,30.9,46.8,50.6,66.7
		c22.1,22.4,47.5,41.4,75.2,56.4C646,544.6,651.1,536,645.4,532.9z"/>
	<path class="st1" d="M583.1,270.8c-0.3-0.2-0.1-0.6,0.2-0.8c2.6-1,4.5-4,2.9-7.2c-6.1-12.1-17.1-24-31.9-22.8
		c-13.2,1.1-24.6,11.5-28.3,24.1c-4.4,15,1.4,31.3,10.5,43.2c8.2,10.7,22.2,19.9,35.7,12.9c17.3-9,15.3-30.9,12.2-46.9
		C584.3,272.2,583.8,271.4,583.1,270.8z M574.8,276c1.5,8,3.4,16.8,0.9,24.8c-1.7,5.5-5.8,11-11.9,11.8
		c-13.6,1.8-24.3-16.2-27.5-27.1c-3.7-12.5-0.9-26.9,11.5-33.4c13.5-7,24.2,4.4,29.8,15.7c0.3,0.6,0.6,1,1,1.4
		c0.3,0.3,0.2,0.7-0.2,0.8C576.2,270.8,574.3,273,574.8,276z"/>
</g>
<g id="Layer_1">
	<path class="st2" d="M505.1,56.5c-2.5,0-5.2-0.2-7.7-0.1c-4,0.2-7.1,2.6-10.9,3.8c-5.8,1.9-11.8,2.1-17.4,4.8
		c-7.3,3.5-14.5,6.9-21.9,10.2c-11.6,5.1-22,12.7-33,18.9c-9.8,5.5-19.3,11.3-28.6,17.7c-11,7.6-21.7,15.9-32.3,24.2
		c-8.9,7-18.6,16.1-25,25.5c-4.9,7.1-10,13.9-14.1,21.6c-3.9,7.4-9.4,15.5-11.6,23.6c-5.5,20.7-9.4,41.8-11.5,63.1
		c-2.5,24.9,1.1,51,10.4,74.3c3.6,9,5.7,18.7,9.9,27.4c1.7,3.5,3.8,6.6,5.2,10.2c1.5,3.8,2.3,7.4,4.4,11.1
		c4.1,7.3,7.3,15.1,11.4,22.4c2.9,5.3,6,10.4,8.3,15.9c3.3,7.8,8.6,14.3,12.7,21.6c1.6,3,1.9,7,3.8,9.7c1.2,1.7,3.7,2.8,5,4.7
		c1.5,2,1.3,3.5,3.3,6.2c4.8,6.3,11.4,11.1,16,17.4c1,1.4,1.7,3.1,3,4.3c1.6,1.6,3.5,2.1,5.2,3.3c5.5,3.9,10.8,10.2,15.6,14.8
		c1.5,1.4,2.3,2.7,3.7,3.9c2.4,2.1,9.1,5,11.1,6c3,1.6,6,3.2,9,4.7c13.1,6.9,26.3,14.8,40.4,19.3c3.7,1.2,7.1,2.8,10.7,4.1
		c6,2.2,12.2,2.8,18.5,4c5.2,1,10.4,2.3,15.5,3.7c21.3,5.9,43.7,5.2,65.6,5.2c20.5,0,40.8-0.6,61.3-1.2c5.5-0.2,10.7-1.8,16.2-2.3
		c3.4-0.3,7-0.1,10.4-0.9c2.1-0.5,4.2-1.6,6.3-2.1c0.1,0.3,0.2,0.5,0.1,0.8c0.1,0.3-0.7-0.9-0.3-0.8c-2.1,0.5-6.3-2.7-8.1-3.9
		c-3.6-2.4-7.1-5-10.9-7.4c-4.7-2.9-8-7.2-12.2-10.6c-3.5-2.8-7.6-4.3-11.3-6.7c-3.2-2-6.6-5.4-9.4-7.7c-2.8-2.3-6.5-4.5-8.9-7.1
		c-2.9-3.3-5.4-7.1-8.4-10.4c-3.7-4.1-6-8.1-8.3-13c-2.6-5.8-7.4-10.2-10.5-15.7c-5.7-10.3-9.5-21.8-15.4-32.1
		c-5.9-10.4-13.1-20.1-18.6-30.7c-4.2-8.1-9-15.9-13.5-23.9c-3.7-6.7-5.2-12-7.4-19.2c-4-12.9-7.6-26.9-8.8-40.4
		c-1.2-13.9-1.5-27.8-1.5-41.8c0-14.2,0-28.4-0.1-42.6c0-8.4,0.9-16.8,1.1-25.3c0.2-7.4,0.2-14.4,1.9-21.7c2.1-9,5.8-17.6,8-26.7
		c0.7-4.8,1.7-9.5,2.9-14.1c0.8-4.4,2.3-8.6,4.4-12.6c4.5-13.5,7.5-27.4,12.4-40.8c4.9-13.4,11-26.3,15.5-39.8
		c2.1-6.2,5.2-11.2,10-15.7c-4.2-1.6-9.7-0.4-14.1-0.4c-3.6,0-7.3-0.2-10.9,0.1c-5.3,0.3-10.6,1.9-15.9,2.4
		C530.8,50.4,526.5,50.9,505.1,56.5z"/>
	<path class="st2" d="M460.3,264.7c0-6.8,0.4-13.4-1.3-19.9c-1.5-5.9-7.1-6.7-12.7-5.9c-5.9,0.8-11.6,7.1-14.9,11.8
		c-5.8,8.4-6.8,19.7-5.6,29.6c0.5,4.7,0.9,8.9,1.1,13.7c0.2,3.8,0.8,8.6,1.9,12.3c1.8,6,9.3,8.3,14.8,6.3c1.5-0.5,4-0.9,5.2-1.9
		c1.2-0.9,1.6-2.4,2.6-3.5c1.5-1.6,3.5-2.6,4.7-4.5c2-3.2,1.9-7.7,2.6-11.3C459.4,287.2,460.3,283.1,460.3,264.7z"/>
	<path class="st2" d="M560.2,245.4c-2.7-0.1-4.1,0.4-6.3,2.1c-1.3,1-4.3,3.3-5.1,4.6c-0.5,0.9,0,1.9-0.3,2.9
		c-0.5,1.5-1.7,2.7-2.2,4.2c-1,3.1-1.9,6.8-2.7,10c-1.4,5.8-1.3,11.5-1.4,17.6c0,3.9,0.1,8.6,1.4,12.3c1.4,4,5.2,5.3,8.9,7
		c7.3,3.3,13.2,3.6,21.1,3.6c3.5,0,5.2-1.3,6.6-4.8c0.7-1.8,0.4-3,0.5-4.9c0.1-1.8,1-2.4,1.4-3.8c0.9-3-0.1-6.9-0.1-10.3
		c0-1.9,0.3-4,0.1-5.8c-0.3-2.5-1.8-4.5-2.3-6.9c-1.5-6.1-3-13.2-6.7-18.4c-1.4-1.9-2.8-2.5-4.1-4.1
		C567.7,249.1,567.6,247.1,560.2,245.4z"/>
	<path class="st2" d="M512.8,409.9c-3.2-0.1-5.8,0.7-8.9,1.2c-5.2,0.7-10.9,0.2-16.2,0.1c-2.6,0-5,0-7.1-1.8
		c-5.5-4.8-7.1-14.8-10-21.3"/>
</g>
</svg>
