<?xml version="1.0" encoding="utf-8"?>
<!-- Generator: Adobe Illustrator 27.3.1, SVG Export Plug-In . SVG Version: 6.00 Build 0)  -->
<svg version="1.1" xmlns="http://www.w3.org/2000/svg" xmlns:xlink="http://www.w3.org/1999/xlink" x="0px" y="0px"
	 viewBox="0 0 889.5 860.6" style="enable-background:new 0 0 889.5 860.6;" xml:space="preserve">
<style type="text/css">
	.st0{fill:#FFF200;stroke:#FFF200;stroke-width:60;stroke-miterlimit:10;}
	.st1{fill:#BCBEC0;stroke:#BCBEC0;stroke-width:60;stroke-miterlimit:10;}
	.st2{fill:none;stroke:#000000;stroke-width:4;stroke-miterlimit:10;}
</style>
<g id="Layer_1">
</g>
<g id="Layer_3">
	<path class="st0" d="M425.6,309.3c-15-33.7-40.2-64.2-73.9-80.3c-31.8-15.2-70.7-16.1-102,0.8c-17.3,9.3-29.9,24.1-40.2,40.6
		c-11.5,18.4-22,36.9-23.1,59c-1.2,22,2.9,44.9,8.6,66c5.2,19.2,12.3,38.8,23.9,55.1c12.7,17.8,30.4,29.7,51.5,35.2
		c21.3,5.5,43.7,5.1,65.5,4.5c4.1-0.1,6.9-5.5,3.5-8.5c-16.9-14.9-37.7-23.3-56.6-35.1c-17.8-11.1-34.3-25.5-44.6-44
		c-9.4-16.8-12.7-37.1-7.3-55.7c5.7-19.7,21.3-32.5,40.6-38.2c10.9-3.2,22.2-4.5,33.5-4.9c10.3-0.4,20.8-0.4,30.9,1.6
		c-6.1,4.4-12.9,7.8-19.1,12.2c-8.5,6-15.1,13.5-19.2,23.2c-9,21.4-4.1,44.9,4.5,65.6c1.2,3,5.8,5.5,8.4,2.2
		c11.8-15.1,27.1-34.5,47.4-36.3c-15.1,19.1-22.9,43.4-21.5,67.9c0.4,6.4,10.4,6.4,10,0c-1.5-25.5,7.7-50.5,25.5-68.7
		c2.4-2.5,1.6-7.7-2.2-8.4c-26.3-4.6-45.8,13.3-61.3,32.1c-5.9-16.8-8.8-35.3-1.1-51.9c8.6-18.4,29.1-22.8,42.4-36.6
		c2.7-2.8,1.3-7.1-2.2-8.4c-12.5-4.4-25.8-4.9-38.8-4.5c-10.9,0.3-21.9,1.2-32.6,3.5c-20.8,4.5-40.5,15.7-50.3,35.3
		c-9.2,18.5-9.8,40.8-3.1,60.1c7.3,21.3,22.6,38.8,40.2,52.4c18.2,14.1,40.1,22.6,58.9,35.7c-31,0.4-64.1-2.3-86.6-25.7
		c-12.5-13-20.2-29.9-26-46.7c-6.9-20.2-11.3-41.2-12.8-62.5c-0.7-9.7-0.7-19.7,1.5-29.3c2.4-10.2,7.3-19.4,12.5-28.4
		c9.2-16,19.1-32.4,34.3-43.5c26.5-19.4,62.9-21.9,93.2-10.6c36.6,13.6,63.4,45.5,78.9,80.4C419.6,320.2,428.2,315.1,425.6,309.3z"
		/>
	<path class="st1" d="M726.4,495.4c-53.7,4.5-105.7,18.8-158.1,30.8c-26.3,6-52.8,11.6-79.6,14.7c-13,1.5-26.1,2.5-39.1,2.7
		c-12.6,0.2-25.5,0.2-37.6-3.7c-11-3.6-21.3-11.4-24.9-22.8c-3.5-11.2,2.1-21.8,11.4-28.2c10.8-7.5,24.4-8.4,37.2-8.6
		c13.9-0.2,27.8,0,41.8,0.1c54.7,0.5,110.4,0.9,163.8-12.8c23.2-5.9,46.1-14.9,64.5-30.5c8.5-7.2,17.6-16.8,18.2-28.5
		c0.6-10.5-6.5-18.7-15.4-23.3c-10.6-5.5-23.1-7.4-34.8-9.1c-13.5-2-27.2-2.9-40.9-2.8c-27.5,0.2-54.9,4-81.9,9.1
		c-25.3,4.8-50.6,10.5-75.5,17.1c-22.9,6.1-45.7,13.7-66.8,24.5c-10.5,5.4-20.5,11.6-29.8,18.8c-4.2,3.2-8.2,6.6-12.1,10.2
		c-4.1,3.8-9.7,10.3-16,8.6c-10.6-2.8,8-23.6,11.4-27.4c7.6-8.4,16.4-15.7,25.7-22.2c20.1-14.1,42.3-25.6,64.1-37
		c24.2-12.6,49.3-22.8,75.8-29.5c51.4-13.1,105-14.5,157.5-9.2c12.5,1.3,25.1,2.4,37.2-1.7c2.2-0.7,3.6-2.5,3.7-4.8
		c0.9-22.9-26.9-24.9-43.3-26.6c-23.4-2.5-46.8-4.6-70.3-4.8c-41.5-0.4-83.4,5.3-121.4,22.6c-19.8,9-38,21.2-53.4,36.6
		c-4.6,4.6,2.5,11.6,7.1,7.1c55.8-55.7,139.6-60.2,213.7-53.8c11.7,1,23.3,2.2,34.9,3.6c8,0.9,20,3.1,22.4,11.8
		c-12,2.8-24.5,0.7-36.7-0.4c-13.2-1.2-26.5-2-39.8-2.2c-27-0.5-54,1.2-80.7,5.5c-26.7,4.3-52.9,11.3-77.9,21.5
		c-25.2,10.3-49.2,23.7-72.9,37.2c-20.1,11.5-40.2,24.5-55.3,42.3c-6.5,7.6-16.6,19-15.1,29.8c1.5,10.6,13.5,14.2,22.5,10.6
		c5.5-2.2,9.7-6.4,13.9-10.3c4.8-4.5,9.9-8.6,15.2-12.5c9.6-6.9,19.8-12.7,30.4-17.8c22.2-10.6,46-17.6,69.8-23.5
		c53.9-13.5,110.4-26.5,166.3-22.3c13.4,1,27.1,2.8,40,6.7c9.9,3,21.9,9.6,17.3,21.9c-4.2,11.3-16.6,20-26.5,26.1
		c-10.4,6.5-21.8,11.2-33.5,15C599,471.2,541,471,485,470.5c-14-0.1-28-0.3-42-0.2c-13.6,0-27.8,0.1-40.6,5.3
		c-21,8.5-33.5,31.1-21.5,52.1c12.8,22.3,39.7,26,63.1,26c26.9-0.1,53.8-3.4,80.3-8.1c54.3-9.7,107.2-25.9,161.6-35
		c13.4-2.2,26.9-4,40.5-5.1C732.7,504.9,732.8,494.9,726.4,495.4z"/>
</g>
<g id="Layer_2">
	<path class="st2" d="M246,375c1.4,0.2,1.4,1.8,1.9,3c1.4,3.8,3.1,7.4,5.2,10.8c5.7,9.8,14.3,20.8,23.9,27.2
		c7.8,5.2,18,5.7,27.1,4.6c6.8-0.9,12.3-3.5,18.1-7.1c9.7-6,18.9-12.5,27.9-19.5"/>
	<path class="st2" d="M285,287c-0.8,2.3-2.9,3.9-4.3,5.9c-2.4,3.5-2.6,7.3-4.2,11.1c-1.2,2.9-3.3,5.7-4.3,8.7
		c-0.5,1.4,0.1,4.1-1.3,5.2"/>
	<path class="st2" d="M324,288c-0.3,0-0.5,0.1-0.8,0.1c-0.6,2.4-1.1,4.2-2.2,6.5c-1.5,3.3-2,6.7-3,10.2c-0.9,3.2-2.1,5.3-3.6,8.2
		c-1.4,2.8-1.5,5-1.4,8"/>
	<path class="st2" d="M497,437c-0.6,2,2.7,5.6,3.5,7.5c1.6,3.6,3.2,7.2,4.9,10.8c1.2,2.4,3.1,4,4.4,6.3c0.8,1.5,1.1,3.3,2.1,4.6
		c3.2,4.2,10.4,8.3,15.1,9.9c13.3,4.5,28.2,5.8,41.7,1.7c11.9-3.6,23.6-8.3,34.2-14.8c3.7-2.3,7.5-4.7,10.6-7.8
		c2.9-2.9,4.8-7.1,7.4-10.2"/>
	<path class="st2" d="M542,356c-0.2,2,1.1,3.2,1.9,4.8c2.3,4.3,4.6,8.7,6.5,13.2c2.2,5.2,3,10.7,5.1,15.9c1.3,3.2,2.1,7.5,4.5,10.1"
		/>
	<path class="st2" d="M572,364c4.4,0.5,6.2,5.8,8.3,8.9c1.8,2.8,2.3,5.7,3.2,8.8c1.2,4.1,2.5,8.1,3.5,12.2"/>
	<path class="st2" d="M558,530c7.6-0.2,15.1,2.1,22.8,2c28.4-0.2,56.7-0.5,85.1-2c14.6-0.8,29.6-0.4,44.1-2.5
		c5.8-0.8,12.1-0.9,17.8-2.5c2.9-0.8,3.3-1.9,5.2-3.8c1.6-1.6,3.6-3.6,4.5-5.7c1.1-2.6,0.5-5.7,0.5-8.5c0-6.2,0.1-13.4-2-19.4
		c-0.9-2.5-0.9-4.7-1.9-7.1c-1.4-3.3-3.5-5.4-5.7-8.2c-2.4-3.1-5.1-5.4-8.2-7.7c-2.5-1.8-6.2-2.3-8.3-4.5c0.1-2.5,4-7.5,4.9-9
		c3.3-5.7,6.7-11.3,10-17c2.7-4.6,4.5-9.6,6.5-14.5c1.7-4.1,4-8.3,4.6-12.8c0.7-5,0.4-10.9,0-15.8c-0.9-10.5-6.2-18.8-10.8-27.9
		c-2.1-4-4.6-7.7-8.5-10.2c-2.7-1.8-6-2.5-8.7-4.2c-1.9-1.2-3.5-2-5.7-2.7c-5.8-1.9-11-2-17-2c-2.6,0-5.2,0-7.7,0
		c-1.7,0-3.8,0.6-5.4-0.1c-0.5-7.2,2-17.3-1.8-23.8c-2.6-4.4-6.8-7-9-11.6c-2.2-4.6-9.7-7.4-14-9.9c-4.4-2.6-9-5.4-13.8-7.3
		c-5-2-11.3-2.8-16.7-3.2c-2.7-0.2-5.9,0.2-8.4,1.4c-2.2,1-3.2,3.8-5.5,4.1c-2.5,0.3-7.5-3.7-9.4-4.8c-4.7-3-9.1-6.3-13.8-9.4
		c-6.3-4-12.9-7.5-19.9-10.2c-1.2-0.5-2.4-1-3.8-1.2c-4-0.6-8.9,0.1-13,0.1c-4.4,0-7.8,1-12.1,2c-4.8,1.1-8.4,1.7-12.2,4.6
		c-1.7,1.3-3.7,2-5.4,3.4c-1.9,1.7-3.3,3.9-4.8,6c-3.4,4.4-7.4,8.5-9.3,13.9c-1.2,3.5-0.7,6.7-1,10.2c-3.9,0-7.4-1.9-11.3-2.1
		c-9.5-0.5-20.3,0.5-29.7,1.3c-10.9,1-17.9,4.1-25.7,11.8c-3,2.9-5,5.2-6.2,9c-2,6.3-5.4,12-7.2,18.3c-0.5,1.9-1.3,3.8-0.9,5.8
		c0.8,3.5,5.2,7.3,8.6,8.2c0.2,1.5-1,2.2-3.6,1.9c-6.6,3-12.7,6.7-18.4,11.1c-8.4,5.9-17.2,12-23.5,20.2c-3.1,4.1-7.1,8.9-7.1,14.3
		c0,3.9,0,7.8,0.2,11.7c0.2,4,0.1,9.6,1.8,13.2c0.9,2,3.4,3.7,5.1,5c1.3,1.1,3.2,2.5,4.8,3c2.6,0.8,5.5-0.5,8,0.3
		c-2.2,1.2-3.9,1.7-6,3.1c-7.2,4.8-13.1,11.2-19.9,16.6c-6.2,5-12.9,9.4-19.7,13.4c-3.1,1.8-3.9,2.7-5.8,5.8
		c-4.8,7.4-10.1,14.6-12.6,23.1c-1.4,4.9-1.5,12.2,2.4,16c9.7,9.4,22.1,12,35,13.7c19.2,2.6,38.4,1.9,57.7,2c3.5,0,6.6-0.7,10.1-1
		c5.9-0.6,11.9-1.1,17.9-1.8c3-0.4,6.1,0,9.1-0.4c4.6-0.7,9.2-2.2,13.8-3.1c8.4-1.6,17.6-3,26.1-3.6c2.8-0.2,5.6-0.1,8.4-0.4
		c4.9-0.4,9.7-1.9,14.6-1.9c5.1,0,10.2,0.1,15.3,0.6C547.2,524.1,553.9,525.1,558,530z"/>
	<path class="st2" d="M394,266c-1.9-0.6-3.3-3.6-4.2-5.2c-2.1-3.8-5-6.3-8.1-9.5c-5.3-5.4-11.2-9.6-17.4-14c-3.2-2.2-6.4-4.8-10-6.4
		c-1.9-0.9-4.1-1.2-6.2-1.7c-5.8-1.5-11.8-1.6-17.7-2.1c-12.1-1-24.2,0-36.2-0.2c-3.9-0.1-7.1,2-10.9,3c-4.7,1.3-9.4,2.7-13.6,5.3
		c-7.7,4.7-15.7,8.8-23,14c-1.7,1.3-3.5,1.6-5.3,2.7c-0.8,0.5-1.5,1.5-2.4,2c-3.5,2.2-6.3,5-9.5,7.7c-3.6,3.1-6.4,7-9.8,10.2
		c-1.5,1.4-3.3,2.3-4.7,3.7c-2.4,2.4-4.5,6-6.3,8.9c-2.6,4.4-4.8,8.4-8.1,12.3c-2.8,3.4-2.7,8.7-3.3,13c-1.8,12.4-3.8,24.7-4.4,37.2
		c-0.4,10.7,0,21.4,0.1,32.1c0,5.1-0.6,10.6,0.1,15.7c0.9,5.9,3,12.5,5.3,18c1.9,4.3,3.7,8.7,5.5,13c1.9,4.7,4.9,7.6,8.1,11.5
		c2.3,2.8,4.1,5.8,6.9,8c2,1.6,4.2,2.9,6.1,4.5c1,0.8,1.8,2.4,2.8,3c0.5,0.3,1.5,0.2,2,0.4c0.9,0.4,1.8,1.4,2.6,1.9
		c1.9,1.3,3.9,2.4,5.7,3.6c4.2,3,9.4,4.8,14,7.3c3.4,1.9,7.7,2.9,11.3,4.4c2.4,1,5.1,1.7,7.6,2.8c5.6,2.5,11,3.6,16.9,5
		c6.6,1.6,13.2,1.8,20.1,1.8c2.3,0,4.7,0.3,6.9,0c2.7-0.3,3.9-1.5,6-3"/>
	<path class="st2" d="M266,496c-2.4,2.7-2.7,7.9-4,11.2c-1.6,4.2-3.5,9.3-4,13.8"/>
	<path class="st2" d="M155,386c-2.2,0.2-4.3-0.5-6.5-0.8c-3.2-0.5-6.4-0.2-9.5-0.2c-4.2,0-7.9-0.7-12-1"/>
	<path class="st2" d="M181,475c-2.4,1.6-3,5.2-4.9,7.4c-3.3,2.3-6.4,4.8-9.4,7.5c-2.7,2.9-5.7,5.4-9,7.7
		c-6.4,4.8-12.8,9.6-19.8,13.5c-2.1,1-4.1,2.3-5.8,3.9c-0.8,1.3-1.8,2.4-3.2,3.1"/>
	<path class="st2" d="M152,305c-4.1-5.3-11.1-9.6-16.7-13.2c-4.6-2.9-9.9-4.8-14.3-7.8"/>
	<path class="st2" d="M176,217c0.1,0.7-0.1,1.1-0.8,1c-0.9-4-1.8-6.2-4.7-9.6c-4.3-5-8.8-9.8-13.5-14.4"/>
	<path class="st2" d="M256,175c0.1-8.1-5.2-17.5-9.5-24c-5.8-9-14.7-17-23.5-23"/>
	<path class="st2" d="M338,181c-0.3-2.1,0.4-4,0.8-6c0.4-2.3,0.2-4.8,0.8-7c2.7-9.1,17.1-13.8,24.4-17"/>
	<path class="st2" d="M301,161c0-3.4-0.3-6.3,1.1-9.5c1-2.3,2-3.6,2-6.3c0-2.1-0.5-4.2,0.1-6.2c0.3,0,0.6,0,0.8,0"/>
	<path class="st2" d="M395,221c5.8,0.1,10.3-1.3,16-2.5c5.6-1.2,12.2-3.1,18-2.5"/>
</g>
</svg>
