<?xml version="1.0" encoding="utf-8"?>
<!-- Generator: Adobe Illustrator 27.3.1, SVG Export Plug-In . SVG Version: 6.00 Build 0)  -->
<svg version="1.1" id="Layer_1" xmlns="http://www.w3.org/2000/svg" xmlns:xlink="http://www.w3.org/1999/xlink" x="0px" y="0px"
	 viewBox="0 0 889.5 860.6" style="enable-background:new 0 0 889.5 860.6;" xml:space="preserve">
<style type="text/css">
	.st0{fill:#00AEEF;}
	.st1{fill:none;stroke:#231F20;stroke-width:4;stroke-linecap:round;stroke-miterlimit:10;}
</style>
<g id="Layer_2_00000076569483682893823570000018006525191340614792_">
	<path class="st0" d="M449.5,747.3c1.7,3.4,3.5,6.8,4.6,10.5c0.5,1.8,0.9,3.7,1.5,5.5c0.6,1.9,1.4,3.8,2.2,5.6
		c1.5,3.5,3.1,6.6,5.9,9.3c1.2,1.2,2.5,2.3,3.7,3.5c1.4,1.4,2.6,2.9,3.8,4.5c2.5,3.2,4.8,6.4,7.3,9.6s5.2,6.2,8.1,9
		c5.6,5.6,11.9,10.6,17.6,16.2c1.6,1.5,3.1,3.2,4.5,4.9c1.3,1.6,2.4,3.2,3.9,4.6c2.9,2.8,6.3,5,9,8c2.1,2.4,5.7-1.1,3.5-3.5
		c-2.3-2.6-5.2-4.6-7.9-6.9c-2.9-2.5-4.9-5.6-7.4-8.4c-5.3-5.8-11.6-10.6-17.3-16c-2.9-2.7-5.6-5.6-8.2-8.6s-4.9-6.3-7.4-9.6
		s-4.6-6.1-7.4-8.7c-1.2-1.2-2.5-2.3-3.6-3.6s-1.8-2.8-2.5-4.3c-0.9-1.9-1.7-3.8-2.4-5.8s-1.1-4.1-1.7-6.1
		c-1.2-4.3-3.3-8.3-5.3-12.3C452.4,741.9,448.1,744.4,449.5,747.3L449.5,747.3L449.5,747.3z"/>
	<path class="st0" d="M564.8,385.2c-0.2-0.2-0.4-0.4-0.5-0.6l5.9,7.6c-0.5-0.6-0.8-1.2-1.1-1.9l3.8,9c-1.5-3.7-2.9-7.4-4.6-11
		c-1.5-3.3-5.8-8-7.1-9.6c-1.2-1.5-2.6-2.8-3.8-4.3l5.9,7.6c-3.3-4.5-4.9-10.1-8-14.8c-5-7.8-11.7-14-17.3-21.3l5.9,7.6
		c-1.9-2.5-3.4-5.1-5.1-7.8c-3.2-5-6.8-9.9-11.5-13.6c-6.7-5.4-13.1-11.2-20.6-15.5c-2.5-1.4-5-2.7-7.6-3.8
		c-5.5-2.4-10.9-4.8-16.6-6.7c-5.3-1.8-10.6-3.3-16-4.7c-8.9-2.3-18.1-3.7-27.3-4.5c-6.2-0.6-12.4-0.6-18.6-0.2s-12.6,1.1-18.9,1.7
		c-9.7,0.9-19.5,2-29.1,4c-3.2,0.7-6.4,1.5-9.5,2.5c-4.1,1.4-8.1,3.2-12,5c-1,0.5-2,1-3,1.7c-3,2.1-6,4.5-8.8,6.8
		c-0.5,0.4-1,0.8-1.4,1.3c-1,0.9-1.8,1.9-2.6,3c-4.3,5.4-8.4,10.9-12.5,16.3l5.9-7.6c-2.7,3.5-5.5,7-8.4,10.5c-2.6,3-5,6.2-7.3,9.4
		c-0.6,0.8-1.1,1.5-1.6,2.3c-1,1.5-1.9,3.1-2.7,4.7c-3.1,6.1-5.7,12.5-8.2,18.9c-1.4,3.5-2.6,7-4,10.4c-1.9,4.6-3.5,9.3-5.4,13.8
		l3.8-9c-3,7.1-6.6,14-8.8,21.5c-1.3,4.4-2,8.9-3,13.3s-2.3,8.8-3,13.3c-0.9,5.4-1.9,11-1.9,16.5c0,3.9,0.6,7.7,1.1,11.5
		c0.8,6,1.7,11.7,3.9,17.4c2.7,7.1,5.9,13.9,9.3,20.6c1,1.9,2,3.8,3.3,5.5c3.2,4.3,6.3,8.5,10.2,12.2s8.1,6.6,12.2,9.8
		c1.8,1.4,3.6,2.7,5.4,3.9c7.5,5.1,15.3,9.6,23.4,13.6c6.9,3.4,13.9,6.3,21,9.2c4.2,1.7,8.5,3.3,12.8,4.7c8.6,2.8,17.4,5,26.3,6.5
		c12.7,2.1,25.6,3.7,38.5,3.4c13-0.3,25.8-2.3,38.4-5.2c4.6-1.1,9.5-1.6,14-3c7.1-2.2,14.1-5.4,20.6-9.2c3.6-2.1,7.2-4.4,10.6-6.9
		c5.8-4.2,11.6-8.6,16.8-13.5c3-2.8,5.8-5.7,8.3-8.9c4.5-5.5,9-11.2,12.6-17.3c1-1.8,2-3.6,2.8-5.4c1.7-3.7,3.2-7.4,4.7-11.1
		c0.4-1,0.8-2.1,1.1-3.2c1.4-5.2,1.8-11,2.5-16.2c0.3-2.3,0.6-4.5,0.8-6.8c1.2-9.9,1.6-19.8,1.5-29.8c-0.1-8.1-0.8-16.1-2.3-24.1
		c-0.9-4.9-3.4-9.6-5.3-14c-0.7-1.5-1.5-3-2.4-4.5c-2.2-3.5-4.6-6.7-6.6-10.3c-3.6-6.4-7.9-12.7-13.3-17.7s-11.4-10.1-17.6-14.6
		c-1.7-1.2-3.5-2.2-5.3-3c-4.7-2.1-9.5-4.2-14.4-5.8c-8.9-2.9-17.9-5.9-26.9-8.5c-4.6-1.3-9.1-2.5-13.8-3.4
		c-7.6-1.5-15.3-2.5-22.9-3.4c-9.2-1-18.5-1.3-27.7-0.6c-2.3,0.2-4.6,0.4-6.9,0.7c-5.4,0.7-10.9,1.3-16.3,2.3
		c-4.4,0.8-8.7,1.9-13,2.8c-0.9,0.2-1.9,0.4-2.8,0.7c-3.8,1.4-7.9,2.6-11.1,5c-7.2,5.1-7.4,5.3-11.9,11.1c-1.5,2-3.1,3.7-4.2,5.9
		c-2,4.5-3.8,9-5.5,13.6c-0.9,2.2-1.7,4.3-2.5,6.5c-3,8.9-4.8,18.2-6.7,27.4c-0.5,2.4-0.9,4.8-1.3,7.2c-0.8,5.6-1.7,11.2-2.2,16.8
		c-0.4,4.8-0.5,9.6,0,14.4c0.5,5.4,1.1,10.9,2.2,16.2c0.4,2,1,3.9,1.6,5.9c0.3,0.9,0.7,1.8,1,2.8c1.6,3.8,3.1,7.7,4.9,11.5
		c0.9,1.8,1.8,3.5,2.9,5.2c2.7,4.3,6,8.3,9.2,12.2c1.2,1.6,2.6,3.1,4,4.5s2.9,2.8,4.5,4c3.9,3.1,7.8,6.3,12,9
		c5.8,3.7,12.4,6.2,18.7,8.7c3.6,1.4,7.4,2.5,11.2,3.3c5.1,1,10.3,1.6,15.5,2.2c1.9,0.2,3.8,0.4,5.8,0.6c4,0.3,8,0.3,12,0
		c2-0.1,3.9-0.3,5.9-0.5c5.1-0.6,10.3-1.2,15.4-2.1c3.8-0.7,7.5-1.7,11.2-2.5c4.4-1.1,8.9-1.9,13.2-3.2c5.1-1.5,10-3.7,14.8-5.9
		c1.7-0.8,3.3-1.7,4.9-2.8c5.9-4.2,11.6-8.5,16.1-14.1s9-11.1,12.4-17.2c0.5-0.9,0.9-1.8,1.4-2.7c1.8-3.8,3.4-7.7,4.9-11.7
		c0.8-2.1,1.4-4.2,1.8-6.4c0.2-1,0.4-1.9,0.5-2.9c0.7-4.3,1.3-8.6,1.7-12.9c0.2-2.2,0.3-4.4,0.3-6.6c0-4,0.5-8,0.4-12
		c0-1-0.1-1.9-0.2-2.9c-0.4-3.6-0.9-7.3-1.5-10.9c-0.1-0.5-0.2-1-0.3-1.6c-0.1-0.4-0.2-0.8-0.4-1.1c-1.2-3.3-2.7-6.5-4.1-9.7
		c-0.3-0.8-0.7-1.6-1.1-2.4c-2.3-4.1-5.5-7.8-8.5-11.4c-1.1-1.3-2.2-2.4-3.5-3.5c-4.9-4.1-10-8.3-15.8-11c-9-4.3-18-7.6-27.7-9.7
		c-4.3-0.9-8.6-2-12.9-2.6c-5.4-0.8-11-1.9-16.5-1.8s-11.2,0.9-16.6,2.1c-6.9,1.5-13.6,4.5-19.9,7.4s-11.5,7.4-16.9,11.6
		c-3.1,2.5-6,5.3-8.6,8.3c-0.6,0.8-1.3,1.5-1.9,2.3c-2.5,3.2-5.1,6.4-7.5,9.8c-1.1,1.6-2,3.2-2.9,4.9c-1.8,3.6-3.3,7.4-4.8,11.2
		c-0.4,0.9-0.7,1.9-0.9,2.9s-0.5,1.9-0.6,2.8c-0.7,4.2-1.4,8.5-1.6,12.7c-0.1,1.9,0,3.8,0.1,5.6c0.4,4,0.9,8,1.6,12
		c0.1,0.8,0.3,1.5,0.6,2.3c1.1,3.6,2.8,7.2,4.4,10.5c0.3,0.7,0.6,1.3,1.1,1.9c2.1,3.1,4.4,6.2,7,9c1.5,1.7,3.7,3,5.4,4.4
		s3.6,3,5.5,4.1c0.3,0.2,0.7,0.3,1,0.5c3.2,1.5,6.7,3,10,4.2c4.9,1.9,11.2,2.3,16,2.8c2.1,0.2,4.1,0.2,6.2,0
		c4.2-0.5,8.5-0.9,12.7-1.8c1-0.2,2.1-0.5,3.1-0.8c6.9-2.1,13.3-5.6,20-8.4l-9,3.8c4.2-1.8,8.4-3.4,12.5-5.3c1.2-0.6,2.4-1.2,3.4-2
		c6.8-5,11.3-8.4,15.6-15.9c1.5-2.7,3.4-6.6,4.2-10.2c0.3-1.8,0.5-3.5,0.7-5.2c0.3-1.7,0.5-3.5,0.7-5.2c0-0.3,0-0.5,0-0.8
		c-0.5-3.3-0.9-6.6-1.3-10c0-0.2,0-0.4-0.1-0.5c0-0.2-0.1-0.4-0.2-0.7c-1.1-3.5-2.5-6.9-4.3-10.1c-2.1-3.8-5-7.1-7.9-10.3
		c-1.6-1.8-3.4-3.3-5.1-5c-3.4-3.7-7.4-6.2-12.1-7.8c-4.5-2.4-9.3-3.4-14.5-3.2c-5.2-0.2-10,0.9-14.5,3.2c-4.6,1.5-8.7,4.1-12.1,7.8
		l-5.9,7.6c-3.4,5.9-5.1,12.2-5.1,18.9l1.3,10c1.8,6.4,5,11.9,9.6,16.5c2,2.1,4.3,3.9,6.1,6.2l-5.9-7.6c0.5,0.7,1,1.5,1.4,2.3
		l-3.8-9c0.2,0.5,0.4,1,0.4,1.6l-1.3-10c0,0.4,0,0.7,0,1.1l1.3-10c-0.1,0.5-0.2,0.9-0.4,1.3l3.8-9c-0.2,0.4-0.4,0.7-0.6,1.1l5.9-7.6
		c-0.5,0.6-1,1.1-1.5,1.5l7.6-5.9c-1.6,1.2-3.5,2-5.3,2.8l9-3.8c-4.1,1.7-8.4,3.3-12.4,5.3c-1.6,0.8-3.1,1.5-4.7,2.2l9-3.8
		c-3.2,1.3-6.5,2.4-9.9,2.8l10-1.3c-2.3,0.3-4.6,0.3-6.9,0l10,1.3c-2.2-0.3-4.4-0.8-6.4-1.7l9,3.8c-1.1-0.5-2.2-1.1-3.2-1.8l7.6,5.9
		c-0.8-0.6-1.5-1.3-2.2-2.1l5.9,7.6c-0.7-0.9-1.2-1.8-1.6-2.8l3.8,9c-0.6-1.6-1-3.2-1.2-4.9l1.3,10c-0.4-2.8-0.4-5.6-0.1-8.4
		l-1.3,10c0.4-2.5,1-5,2-7.3l-3.8,9c1.3-3,3.1-5.8,5.1-8.4l-5.9,7.6c3.2-4.1,6.8-7.8,10.9-11l-7.6,5.9c3.2-2.5,6.8-4.5,10.5-6.1
		l-9,3.8c3.8-1.6,7.9-2.8,12-3.4l-10,1.3c3.2-0.4,6.3-0.3,9.5,0.1l-10-1.3c5.6,0.8,11.3,2.1,16.8,3.4c4.5,1.1,9,2.4,13.3,4.2l-9-3.8
		c3.4,1.5,6.7,3.2,9.7,5.5l-7.6-5.9c1.9,1.5,3.7,3.2,5.2,5.1l-5.9-7.6c1.2,1.6,2.3,3.4,3.1,5.3l-3.8-9c0.5,1.3,0.9,2.6,1.1,4
		l-1.3-10c0.5,3.9,0.1,7.8-0.1,11.7s-0.1,8.1-0.7,12.2l1.3-10c-0.6,4-1.5,7.9-3.1,11.6l3.8-9c-1.9,4.4-4.5,8.5-7.4,12.2l5.9-7.6
		c-2.5,3.3-5.4,6.3-8.6,8.8l7.6-5.9c-1.9,1.5-4,2.7-6.2,3.7l9-3.8c-5.7,2.4-11.8,3.5-17.8,4.9c-5.2,1.2-10.4,2.6-15.7,3.3
		c3.3-0.5,6.6-0.9,10-1.3c-8.5,1.1-17.2,1.2-25.7,0.1l10,1.3c-6.1-0.9-12.2-2.4-17.9-4.8l9,3.8c-4.2-1.8-8.2-4-11.8-6.8l7.6,5.9
		c-3.6-2.8-6.8-6-9.6-9.6l5.9,7.6c-2.8-3.6-5.1-7.6-6.9-11.9l3.8,9c-1.6-4-2.7-8.1-3.3-12.3l1.3,10c-0.9-7.2-0.7-14.5,0.3-21.7
		l-1.3,10c1.1-8.4,3.1-16.8,5-25.1c1.8-7.6,4.3-15.1,7.3-22.4l-3.8,9c0.4-0.9,0.9-1.8,1.4-2.6l-5.9,7.6c0.4-0.5,0.8-1,1.4-1.4
		l-7.6,5.9c0.5-0.4,0.9-0.6,1.5-0.9l-9,3.8c1.7-0.7,3.4-1,5.2-1.4c1.9-0.3,3.7-0.8,5.5-1.2c3.8-0.9,7.6-1.6,11.5-2.1l-10,1.3
		c12.7-1.7,25.5-1.5,38.2,0.2l-10-1.3c9.7,1.3,19.1,3.7,28.5,6.4c4.9,1.4,9.8,3,14.7,4.6c4.1,1.4,8.3,2.5,12.3,4.2l-9-3.8
		c2.3,1,4.5,2.1,6.5,3.7l-7.6-5.9c2.3,1.8,4.4,3.9,6.6,5.8s4.4,3.8,6.2,6l-5.9-7.6c2.7,3.6,4.6,7.7,7.1,11.4c2.2,3.2,4.5,6.4,6,10
		l-3.8-9c0.9,2.1,1.4,4.2,1.7,6.4c-0.5-3.3-0.9-6.6-1.3-10c1.1,8.3,1,17,0.7,25.4s-1.3,16.5-2.4,24.6c0.5-3.3,0.9-6.6,1.3-10
		c-0.4,3.1-1,6.2-2.3,9.1l3.8-9c-2.4,5.6-5.5,10.8-9.2,15.6l5.9-7.6c-4.8,6.1-10.3,11.5-16.4,16.2l7.6-5.9
		c-6.3,4.9-13.2,9.4-20.6,12.6l9-3.8c-5,2.1-10.3,2.8-15.6,3.9s-11,2.6-16.6,3.4l10-1.3c-12.5,1.6-25.4,1.3-37.8-0.3
		c3.3,0.5,6.6,0.9,10,1.3c-15.5-2.1-30.7-6.4-45.1-12.5l9,3.8c-7-3-13.9-6.3-20.5-10.1s-13.1-7.8-19.1-12.4l7.6,5.9
		c-3.2-2.5-6.3-5.1-8.8-8.3l5.9,7.6c-1.7-2.3-3-4.8-4.3-7.4s-2.7-5.3-3.9-8l3.8,9c-1.9-4.6-3.4-9.4-4-14.4l1.3,10
		c-0.5-3.8-0.6-7.7-0.1-11.6l-1.3,10c0.8-6,2.7-11.9,3.9-17.8s2.4-11.5,4.7-17l-3.8,9c2.5-5.9,5.2-11.6,7.5-17.5
		c1.2-3.1,2.4-6.3,3.6-9.4c2.1-5.2,4-10.6,6.2-15.8l-3.8,9c2-4.8,4.4-9.6,7.6-13.7l-5.9,7.6c2.7-3.4,5.5-6.6,8.2-10.1
		c4.6-5.9,9.2-11.9,13.8-17.9l-5.9,7.6c1.4-1.8,2.9-3.5,4.8-4.9l-7.6,5.9c1.4-1,2.8-1.8,4.4-2.5l-9,3.8c6.7-2.8,14.1-4,21.2-4.9
		l-10,1.3c8.8-1.1,17.6-1.8,26.4-2.6s16.9-0.6,25.2,0.5l-10-1.3c6.2,0.9,12.3,2.4,18.3,4.1s11.6,3.5,17.2,5.8l-9-3.8
		c5.6,2.4,10.9,5.2,15.7,8.9l-7.6-5.9c1.8,1.4,3.4,2.9,5.2,4.4s3.5,2.8,4.9,4.5l-5.9-7.6c1.4,1.9,2.5,3.9,3.8,5.9
		c2.8,4.5,6.2,8.6,9.5,12.7c1.4,1.8,2.9,3.5,4.4,5.3s3.3,3.4,4.8,5.3l-5.9-7.6c2.6,3.4,4.3,7.3,6.1,11.1c0.9,1.9,1.8,3.7,3,5.4
		c2.3,3.4,4.9,6.8,7.7,9.8c0.7,0.8,1.5,1.6,2.2,2.4l-5.9-7.6c0.6,0.8,1.1,1.7,1.5,2.7l-3.8-9c1.5,3.7,2.8,7.5,4.6,11
		s4.5,6.7,7.2,9.5c3.4,3.7,7.4,6.2,12.1,7.8c4.5,2.4,9.3,3.4,14.5,3.2c5.2,0.2,10-0.9,14.5-3.2c4.7-1.5,8.7-4.1,12.1-7.8l5.9-7.6
		c3.4-5.9,5.1-12.2,5.1-18.9c-0.5-3.3-0.9-6.6-1.3-10C572.7,395.4,569.5,389.9,564.8,385.2L564.8,385.2L564.8,385.2z"/>
	<path class="st0" d="M423.1,481.2c-2.8,2.1-5.8,4-8.2,6.5c-0.8,0.8-5.5,6.8-6,7.8c-0.1,0.1-0.2,0.3-0.2,0.4
		c-0.9,1.6-3.2,7.5-3.9,9.2c-0.1,0.2-0.2,0.4-0.2,0.6c-0.2,0.5-0.3,1-0.4,1.6c-0.9,5.4-1.8,10.5-1.4,15.9c0.1,1.9,0.4,3.8,0.4,5.8
		c0.1,3.2-0.1,6.3-0.2,9.5c-0.1,3.6-0.1,7.2,0.1,10.8s0.7,6.8,1,10.2c0.5,7.1,0.5,14.2,0.5,21.2c0,4-0.3,8-0.2,12
		c0.2,7,1.8,13.7,2.8,20.5l-1.3-10c0.4,3.5,0.3,7,0.4,10.6c0.2,6.7,1.2,13.4,2.3,20l-1.3-10c0.4,2.9,0,5.8,0.2,8.6
		c0.3,6.1,1.5,12.1,2.3,18.2l-1.3-10c1.4,11-0.2,22.1-0.1,33.1c0.1,5.4,0.9,10.8,1.5,16.2s0.4,10.6-0.3,15.9l1.3-10
		c-0.8,5.5-1.6,11.1-2.2,16.7c-0.1,1.2-0.3,2.3-0.2,3.5c0.3,4.3,1.1,8.6,1.8,12.9l-1.3-10c0.1,1.1,0.2,2.2,0,3.3l1.3-10
		c-0.1,0.5-0.2,0.9-0.4,1.4l3.8-9c-0.3,0.8-0.8,1.5-1.3,2.1l5.9-7.6c-2.5,3.1-5.2,5.8-8.2,8.2l7.6-5.9c-5.9,4.5-12.2,8.5-18.2,12.9
		c-8.7,6.3-17.3,12.8-25.6,19.6c-13.9,11.2-27.3,23.7-36.9,38.9c-2.3,3.6-3.6,7.7-5.8,11.4c-0.9,1.5-2,2.8-3,4.3
		c-2.8,4-4.8,8.8-5.9,13.6c-1.6,5-1.8,10-0.7,15c0.2,5,1.7,9.6,4.5,13.9c2.4,4.4,5.6,7.9,9.7,10.5c3.6,3.3,7.9,5.5,12.8,6.7
		c3.3,0.5,6.6,0.9,10,1.3c6.8,0,13.1-1.7,18.9-5.1l7.6-5.9c4.6-4.7,7.9-10.2,9.6-16.5c0.2-0.8,0.4-1.5,0.7-2.2l-3.8,9
		c0.8-1.7,2-3.1,3-4.6c1.4-1.9,2.4-3.9,3.4-6c2-4.2,4.1-8.1,6.9-11.9l-5.9,7.6c4.6-5.9,10-11.1,15.5-16.1
		c5.8-5.3,11.9-10.4,18.2-15.2l-7.6,5.9c8.6-6.7,17.5-12.9,26.4-19.1c4.5-3.1,8.9-6.5,13.2-10c1.9-1.6,3.7-3.4,5.3-5.3
		c2.7-3.2,5.3-6.4,7.7-9.9c0.3-0.4,0.5-0.8,0.7-1.2c0.7-1.6,1.4-3.2,2-4.8c0.8-1.6,1.4-3.2,2-4.8c2.8-9.6,1.4-16.7-0.1-26.3
		c0.5,3.3,0.9,6.7,1.3,10c-0.3-2.2,0.1-4.3,0.4-6.4c-0.5,3.3-0.9,6.7-1.3,10c1.1-7.9,2.7-15.8,2.6-23.8c0-4.8-0.7-9.6-1.3-14.3
		c-1.2-9.9-0.1-19.9,0-29.9c0.1-8.9-1.3-17.6-2.5-26.4l1.3,10c-0.3-2.5-0.4-5-0.4-7.6c0.1-5.7-1.1-11.3-1.9-16.9l1.3,10
		c-0.6-4.3-0.6-8.7-0.6-13c-0.1-7.4-1.8-14.7-2.8-22l1.3,10c-0.7-5.6-0.1-11.4-0.1-17s0-11.7-0.3-17.5s-1.2-11.3-1.3-17.1
		c-0.1-5.4,0.4-10.9,0.2-16.3c-0.1-3.7-0.8-7.4-0.4-11.2c-0.5,3.3-0.9,6.7-1.3,10c0.1-0.9,0.3-1.7,0.6-2.5l-3.8,9
		c0.1-0.3,0.3-0.6,0.5-0.8l-5.9,7.6c0.1-0.2,0.3-0.3,0.5-0.5l-7.6,5.9l0.2-0.1c4.4-2.4,7.9-5.6,10.5-9.7c3.3-3.6,5.5-7.9,6.7-12.8
		c1.6-5,1.8-10,0.7-15c-0.2-5-1.7-9.6-4.5-13.9l-5.9-7.6c-4.7-4.6-10.2-7.9-16.5-9.6l-10-1.3C435.2,476.1,428.9,477.8,423.1,481.2
		L423.1,481.2L423.1,481.2z"/>
	<path class="st0" d="M431.6,760.9c1.1,1.5,1.9,3.2,2.8,4.9c0.8,1.6,1.9,3,2.9,4.5c3.9,5.5,7.9,11.1,12.5,16
		c5.4,5.8,11.7,10.9,16.6,17.2l-5.9-7.6c4.9,6.4,9.8,12.8,15,18.9c3.4,4,6.7,8,9.9,12.1l-5.9-7.6c3.5,4.5,6.8,9,10.7,13.2
		c1.8,1.9,3.6,3.7,5.2,5.7l-5.9-7.6c1.5,1.9,2.7,4,4.1,6c3,4.6,6.4,9,10,13.1c3.4,3.7,7.4,6.2,12.1,7.8c4.5,2.3,9.3,3.4,14.5,3.2
		c5.2,0.2,10-0.9,14.5-3.2c4.7-1.5,8.7-4.1,12.1-7.8l5.9-7.6c3.4-5.8,5.1-12.2,5.1-18.9l-1.3-10c-1.8-6.3-5-11.9-9.6-16.5
		c-0.5-0.6-1-1.2-1.5-1.8l5.9,7.6c-1.4-1.8-2.6-3.7-3.8-5.6c-2.8-4.4-6.1-8.5-9.4-12.5c-2.8-3.4-6.1-6.2-8.7-9.7l5.9,7.6
		c-4.5-5.9-9.1-11.8-13.9-17.5c-2.8-3.3-5.7-6.6-8.4-10l5.9,7.6c-3.6-4.7-7-9.5-10.8-14c-1.9-2.3-4.1-4.3-6.3-6.4
		c-4.2-4.1-8.5-8.2-12.2-12.8l5.9,7.6c-1.6-2.1-3.2-4.3-4.8-6.6s-2.4-4.8-4-7c-2.4-4.4-5.6-7.9-9.7-10.5c-3.6-3.3-7.9-5.5-12.8-6.7
		c-5-1.6-10-1.8-15-0.7c-5,0.2-9.6,1.7-13.9,4.5l-7.6,5.9c-4.6,4.7-7.9,10.2-9.6,16.5l-1.3,10C426.6,748.7,428.3,755,431.6,760.9
		L431.6,760.9L431.6,760.9z"/>
	<path class="st0" d="M449.9,307.8l-0.2-0.1l7.6,5.9c-0.2-0.1-0.3-0.3-0.4-0.5l5.9,7.6c-0.1-0.1-0.1-0.2-0.2-0.4l3.8,9
		c-0.1-0.2-0.1-0.4-0.2-0.6l1.3,10c-0.1-0.5,0-1,0-1.6l-1.3,10c0.3-1.9,1-3.6,1.7-5.4l-3.8,9c1.6-3.9,3.4-7.8,5-11.7
		c0.4-0.9,0.6-1.8,0.8-2.8c1.1-6.9,2-13.4,1.7-20.3c-0.3-7.6-0.7-15.3,0.2-22.9l-1.3,10c0.9-6.2,1.9-12.4,2.2-18.6
		c0.1-3.1,0.1-6.2,0.1-9.4c-0.1-6.4-0.1-12.8-0.3-19.2c-0.3-12.7-1.2-25.4-1.2-38.1c0-3.4,0-6.8-0.1-10.2
		c-0.4-6.6-1.7-13.1-2.6-19.7c0.5,3.3,0.9,6.6,1.3,10c-0.5-4.1-0.4-8.3-0.5-12.4s-0.9-8.6-0.8-12.9c0-2.1,0.1-4.3,0.1-6.4
		c0-5.2-0.9-10.4-1.7-15.6c-0.6-4-1.7-7.9-2.2-12c0.5,3.3,0.9,6.6,1.3,10c-0.7-5.8-0.5-11.9-2.4-17.4c-0.8-2.4-1.9-4.6-2.3-7.1
		c0.5,3.3,0.9,6.6,1.3,10c-0.5-3.7-0.8-7.5-1.5-11.2c-0.4-1.9-1.5-4-2.2-5.6c-0.8-1.8-1.4-3.8-2.5-5.6c-0.8-1.4-1.9-2.8-3-4
		c-1.7-2.8-3.9-5.1-6.7-6.7c-2.3-2.3-5.1-3.9-8.3-4.8c-1.6-0.7-3.2-1.4-4.9-2.1l9,3.8c-0.5-0.2-1-0.5-1.5-0.8l7.6,5.9
		c-0.4-0.4-0.8-0.7-1.2-1.2l5.9,7.6c-1.1-1.6-1.8-3.4-2.7-5.1c-2.4-4.3-6-8.4-8.9-12c-2.4-3-5.2-5.8-7.6-8.9l5.9,7.6
		c-1.6-2-3-4.2-4.5-6.3c-3.2-4.6-6.7-8.9-10.1-13.3l5.9,7.6c-5.3-6.9-10.4-14.1-16-20.8c-3.9-4.6-8.3-8.7-12.6-13
		s-8.9-8.8-13.4-13.1c-6.4-6.1-13.5-11.6-20.8-16.6c-2.4-1.7-4.9-3.4-7.5-4.8c-2.5-1.3-5.1-2.3-7.3-4l7.6,5.9
		c-0.4-0.4-0.9-0.7-1.2-1.1c-3.4-3.7-7.4-6.2-12.1-7.8c-4.5-2.3-9.3-3.4-14.5-3.2c-5.2-0.2-10,0.9-14.5,3.2
		c-4.6,1.5-8.7,4.1-12.1,7.8l-5.9,7.6c-3.4,5.9-5.1,12.2-5.1,18.9l1.3,10c1.8,6.3,5,11.9,9.6,16.5c0.4,0.4,0.8,0.8,1.2,1.1
		c2.6,2.2,5.5,4.4,8.3,6.4c0.9,0.6,1.8,1.1,2.7,1.6c1.7,0.9,3.5,1.6,5.2,2.6c4.1,2.4,8.1,5.3,11.9,8.2l-7.6-5.9
		c6.9,5.3,12.9,11.8,19.1,17.9c6.1,6,12.3,11.8,17.5,18.6l-5.9-7.6c4.8,6.2,9.5,12.6,14.3,18.8l-5.9-7.6c1.4,1.8,2.6,3.6,3.9,5.4
		c3,4.3,6.2,8.4,9.4,12.5c2.6,3.2,5.5,6.2,8,9.5l-5.9-7.6c1.8,2.4,3.1,4.9,4.4,7.5c1.9,3.7,4.6,7.1,7.6,10
		c6.8,6.4,10.2,7.5,18.7,10.9l-22.4-17.2c0.2,0.4,0.5,0.8,0.7,1.2l-3.8-9c0.2,0.6,0.4,1.3,0.4,1.9l-1.3-10c0.7,5.2,0.8,10.2,2.7,15
		c0.7,1.7,1.4,3.4,1.7,5.3l-1.3-10c0.2,1.4,0.2,2.8,0.3,4.2c0.5,4.7,1.1,9.4,2,14c0.6,2.9,1.3,5.8,1.7,8.8l-1.3-10
		c0.5,3.5,0.3,7.1,0.2,10.6s0.4,7.3,0.6,11s0.2,7,0.3,10.5c0.3,6.7,1.6,13.4,2.6,20l-1.3-10c0.7,5.4,0.6,10.9,0.6,16.4
		c0,5.9,0.2,11.7,0.5,17.6c0.5,11.6,0.7,23.1,0.9,34.7c0.1,6.4,0.2,12.9-0.6,19.2l1.3-10c-0.9,6.1-2,12.3-2.1,18.5c-0.1,3-0.1,6,0,9
		c0.1,5.7,0.8,11.3,0.1,17l1.3-10c-0.2,1.5-0.5,2.8-1.1,4.2l3.8-9c-1.7,4-3.5,8-5.1,12.1c-0.5,1.2-0.9,2.4-1.2,3.7
		c-0.1,0.3-0.1,0.6-0.2,0.9c-0.5,3-1.2,7.4-1.4,10.4c0,0.2,0,0.4,0,0.7c0,0.2,0,0.3,0,0.5l1.3,10c1,3.5,2.2,7,4.2,10l5.9,7.6
		c0.1,0.1,0.2,0.2,0.3,0.3c2.3,2.4,5.1,4.3,7.9,6.1c4.3,2.7,9,4.2,13.9,4.5c5,1.1,10,0.9,15-0.7c4.9-1.2,9.1-3.4,12.8-6.7
		c4.1-2.6,7.3-6.1,9.7-10.5l3.8-9c1.8-6.6,1.8-13.3,0-19.9l-3.8-9C460.1,315.7,455.6,311.2,449.9,307.8L449.9,307.8L449.9,307.8z"/>
	<path class="st0" d="M471.2,150.3c0-1.7,0-3.4,0.2-5l-1.3,10c0.2-1.7,0.6-3.2,1.3-4.8l-3.8,9c0.6-1.3,1.4-2.5,2.2-3.6l-5.9,7.6
		c1.7-2.2,3.6-4.1,5.2-6.3c2.5-3.1,5.8-6.9,8-10.7c0.8-1.5,1.6-2.9,2.4-4.4c3-5.5,6-11.2,9.9-16.2l-5.9,7.6c1.4-1.8,3-3.6,4.5-5.3
		c2.6-2.9,5-6,7.4-9.1s4.6-5.9,6.5-9.3c1.1-2,2.3-4,3.7-5.8l-5.9,7.6c2-2.5,4.4-4.7,6.9-6.7l-7.6,5.9c5.7-4.4,11.5-8.4,17.1-12.9
		c3.4-2.8,6.7-5.9,10.2-8.6l-7.6,5.9c3.7-2.9,7.7-5.9,12-7.7l-9,3.8c0.8-0.3,1.7-0.6,2.6-0.8l-10,1.3c0.2,0,0.3,0,0.5,0
		c5.2,0.2,10-0.9,14.5-3.2c4.7-1.5,8.7-4.1,12.1-7.8c3.7-3.4,6.2-7.4,7.8-12.1c2.3-4.5,3.4-9.3,3.2-14.5l-1.3-10
		c-1.8-6.3-5-11.9-9.6-16.5l-7.6-5.9c-5.8-3.4-12.2-5.1-18.9-5.1c-4,0.3-8.6,0.5-12.6,2s-8.2,3.1-12,5.2c-2.2,1.2-4.4,2.7-6.4,4.2
		c-4.9,3.5-9.6,7.2-14.2,11.1c-2.7,2.3-5.4,4.7-8.2,6.9l7.6-5.9c-2.3,1.7-4.6,3.3-6.9,5.1c-4.6,3.4-9.6,6.9-13.6,11.1
		c-0.5,0.5-0.9,1-1.3,1.5c-2.4,2.9-4.7,5.9-6.9,9c-0.8,1.1-1.5,2.3-2.2,3.5c-1.4,2.4-2.8,4.8-4.5,7.1l5.9-7.6
		c-2,2.6-4.3,5.1-6.5,7.6c-4.2,4.9-8.4,10-11.7,15.5c-1.9,3.2-3.8,6.4-5.6,9.6s-3.2,6.4-5.4,9.2l5.9-7.6c-1.2,1.5-2.4,2.9-3.7,4.4
		c-2.6,3.1-5,6.3-7.4,9.5c-0.6,0.9-1.3,1.7-1.8,2.7c-1.9,3.6-3.5,7.4-4.8,11.3c-0.3,0.9-0.5,1.9-0.7,2.8c-0.8,5.1-1.8,10.4-1.7,15.6
		c-0.2,5.2,0.9,10,3.2,14.4c1.5,4.6,4.1,8.7,7.8,12.1c3.4,3.7,7.4,6.2,12.1,7.8c4.5,2.4,9.3,3.4,14.5,3.2l10-1.3
		c6.4-1.8,11.9-5,16.5-9.6l5.9-7.6C469.5,163.4,471.2,157.1,471.2,150.3L471.2,150.3L471.2,150.3z"/>
	<path class="st0" d="M503.6,503.9c-0.6,6.8,2.3,17,6.1,22.7c1,1.4,2.4,3.2,3.3,4.2c0.7,0.9,2.1,2.8,3.2,4.1
		c0.2,0.3,0.5,0.5,0.8,0.8c2.9,2.8,6.2,5,9.4,7.3c1.4,1,2.9,1.8,4.3,2.7s3,2,4.5,2.8c4.2,2.4,8.9,3.8,13,6.6
		c4.2,2.9,8.4,5.9,12.6,8.9c8.4,6.1,16.8,12.2,25.8,17.3c4.7,2.7,9.4,5.3,14,8.1c2.2,1.4,4.6,2.7,6.8,4.2s4.2,3.1,6.4,4.3
		c2.4,1.4,5,2.3,7.5,3.5s4.7,2.6,6.9,4.2s4.4,3.3,6.8,4.7s4.7,2.4,6.8,4l-7.6-5.9c3.9,3,7.5,6.5,11.7,9.1c1.6,1,3.3,1.8,5,2.6
		c3.8,1.9,7.2,4.2,10.6,6.7c7.2,5.2,14.5,10.4,21.5,15.8l-7.6-5.9c7.3,5.6,14.5,11.3,21.9,16.9c4.7,3.5,9.5,6.9,14.1,10.4l-7.6-5.9
		c4.6,3.5,9.1,7.4,12.8,11.9l-5.9-7.6c1.2,1.6,2.2,3.4,3,5.2l-3.8-9c1.5,3.8,2.3,7.8,2.8,11.9l-1.3-10c0.8,5.6,1.3,11.3,2.6,16.8
		c0.6,2.5,1.2,4.9,1.5,7.5c-0.5-3.3-0.9-6.7-1.3-10c0.8,5.8,1.2,11.6,2.5,17.3c0.6,2.5,1.2,5.1,1.6,7.6l-1.3-10
		c0.6,4.2,0.8,8.4,1.4,12.6c0.9,7.3,1.8,14.6,3.2,21.8c0.8,4.1,2.1,8.1,3,12.2c0.9,3.8,1.4,7.7,2.4,11.5c0.3,1.1,0.6,2.2,1,3.2
		c1.5,3.9,3.1,7.8,5,11.6c1,2,2.1,4,3,6c2.4,4.4,5.6,7.9,9.7,10.5c3.6,3.3,7.9,5.5,12.8,6.7c5,1.6,10,1.8,15,0.7
		c5-0.2,9.6-1.7,13.9-4.5l7.6-5.9c4.7-4.7,7.9-10.2,9.6-16.5l1.3-10c0-6.8-1.7-13.1-5.1-18.9c-1.2-2.8-2.8-5.3-3.9-8.1
		c1.3,3,2.5,6,3.8,9c-2.3-5.8-2.7-12.2-4.4-18.2c-1.8-6.4-3.1-12.9-4-19.5l1.3,10c-0.6-4.6-1-9.2-1.5-13.8
		c-0.6-5.3-1.2-10.5-2.5-15.7c-0.5-2.2-1-4.3-1.3-6.5l1.3,10c-0.7-5.9-1.2-11.8-2.5-17.6c-0.6-2.7-1.3-5.4-1.7-8.1l1.3,10
		c-0.7-5.2-1.2-10.4-2.2-15.5c-0.3-1.9-0.8-3.7-1.3-5.5c-0.8-2.4-1.8-4.7-2.8-6.9s-1.9-4.8-3.1-7c-0.5-0.8-1-1.6-1.5-2.4
		c-2.4-3.2-4.8-6.5-7.5-9.5c-2.8-3.2-6-6-9.3-8.6c-5.7-4.5-11.4-8.9-17.3-13.1c-4.1-3-8.1-6-12.1-9.1l7.6,5.9
		c-10.4-8-20.6-16.3-31.3-23.8c-4-2.8-7.8-5.8-11.9-8.4c-3.7-2.4-7.8-3.8-11.4-6.4l7.6,5.9c-4.1-3.2-7.9-6.8-12.4-9.6
		c-1.8-1.2-3.8-2-5.7-3.2c-3.9-2.3-7.2-5.5-11.2-7.6c-2.1-1.1-4.3-1.9-6.4-2.9c-2.3-1-4.3-2.3-6.3-3.8c-4.1-2.9-8.3-5.4-12.5-8
		s-8.7-4.9-12.9-7.4c-4.2-2.5-8.2-5.1-12.2-7.8c-8-5.5-15.7-11.4-23.7-16.9c-4.2-2.9-9.1-4.4-13.5-7c-1.6-0.9-3.1-2-4.7-3
		s-3.2-1.9-4.7-3l7.6,5.9c-0.8-0.6-1.6-1.4-2.2-2.2l5.9,7.6c-0.4-0.5-0.7-1-0.9-1.6l3.8,9c-0.2-0.4-0.3-0.8-0.3-1.2
		c0.5,3.3,0.9,6.6,1.3,10c0-0.5-0.1-0.9,0-1.4c0.2-5.2-0.9-10-3.2-14.5c-1.5-4.6-4.1-8.7-7.8-12.1c-3.4-3.7-7.4-6.2-12.1-7.8
		c-4.5-2.4-9.3-3.4-14.5-3.2l-10,1.3c-6.3,1.8-11.9,5-16.5,9.6l-5.9,7.6C505.3,490.8,503.6,497.1,503.6,503.9L503.6,503.9
		L503.6,503.9z"/>
	<path class="st0" d="M774.6,671.1c1.1-0.8,2.2-1.5,3.4-2c-3,1.3-6,2.5-9,3.8c2.1-0.9,4.2-1.3,6.5-1.7l-10,1.3
		c3.3-0.4,6.6-0.4,9.9-0.4c7,0,13.7-1.6,20.6-2.6c-3.3,0.5-6.7,0.9-10,1.3c4.3-0.5,8.8-0.2,13.2-0.1c7.5,0.1,14.8-1.4,22.2-2.4
		l-10,1.3c3.3-0.4,6.7-0.4,10-0.7c6.6-0.5,13.2-1.4,19.7-2.6c7-1.3,13.9-3.2,20.8-5.2c4.9-1.2,9.1-3.4,12.8-6.7
		c4.1-2.6,7.3-6.2,9.7-10.5c2.7-4.3,4.2-9,4.5-13.9c1.1-5,0.9-10-0.7-15l-3.8-9c-3.3-5.6-7.8-10.1-13.5-13.5l-9-3.8
		c-6.7-1.8-13.3-1.8-19.9,0c-8.4,2.5-17,4.8-25.7,6c3.3-0.5,6.7-0.9,10-1.3c-3.3,0.4-6.6,0.7-10,0.8c-6.7,0.2-13.2,1.6-19.8,2.5
		c3.3-0.5,6.7-0.9,10-1.3c-4.6,0.6-9.2,0.3-13.8,0.3c-2.2,0-4.4,0-6.6,0.2c-4.2,0.5-8.4,1-12.6,1.8c-1.2,0.2-2.3,0.5-3.5,0.6l10-1.3
		c-4.3,0.5-8.8,0-13.1,0.5s-8.6,1-12.8,1.7c-1,0.2-2.1,0.4-3.1,0.7c-0.5,0.1-0.9,0.3-1.4,0.5c-3.4,1.3-6.8,2.7-10.1,4.3
		c-1,0.5-1.9,1-2.8,1.7c-4.4,2.4-7.9,5.6-10.5,9.7c-3.3,3.6-5.5,7.9-6.7,12.8c-1.6,5-1.8,10-0.7,15c0.2,5,1.7,9.6,4.5,13.9l5.9,7.6
		c4.7,4.7,10.2,7.9,16.5,9.6l10,1.3C762.5,676.2,768.8,674.5,774.6,671.1L774.6,671.1L774.6,671.1z"/>
	<path class="st0" d="M360.5,342.2c-1.3-1-2.8-1.8-4.3-2.5c-4.4-2.1-8.9-3.8-13.4-5.7l9,3.8c-2.9-1.2-5.5-2.8-8.2-4.2
		c-3-1.6-6-3.2-8.6-5.3l7.6,5.9c-1.8-1.4-3.5-3-5.3-4.5c-4.3-3.5-8.4-6.8-13.2-9.5c-4.2-2.4-8.5-4.5-12.3-7.5l7.6,5.9
		c-6.3-5-12-10.7-18.9-14.9c-2.1-1.2-4.2-2.3-6.3-3.5c-2.2-1.2-4.3-2.8-6.4-4.2c-4.3-2.9-8.7-5.4-13-8.1s-8.7-5.8-12.9-8.8
		c-8.5-6.1-16.7-12.5-25-18.8s-16.9-12.2-25.8-17.8c-9.9-6.2-20.1-11.8-29.4-18.9l7.6,5.9c-4.2-3.2-8.1-6.8-12.7-9.5
		c-1.9-1.1-3.8-2.1-5.8-3c-4-1.9-8.1-3.6-12.2-5.4c-8.9-4-18-7.8-26.3-13c-2.3-1.4-4.5-3.1-6.8-4.6c-1.8-1.2-3.7-2-5.4-3.2l7.6,5.9
		c-0.1-0.1-0.2-0.2-0.3-0.3l5.9,7.6c-0.1-0.1-0.1-0.2-0.2-0.3l3.8,9c-0.1-0.2-0.1-0.5-0.2-0.7l1.3,10c-0.1-1.5,0-3.1,0.2-4.6
		l-1.3,10c1.2-8.5,3.3-16.9,2.8-25.5s-2.1-17.5-3.3-26.3l1.3,10c-1.1-8.6-1.8-17.3-3.3-25.9s-4.5-16-8.1-23.9
		c-2.4-4.4-5.6-7.9-9.7-10.5c-3.6-3.3-7.9-5.6-12.8-6.7c-5-1.6-10-1.8-14.9-0.7c-5,0.2-9.6,1.7-13.9,4.4l-7.6,5.9
		c-4.7,4.7-7.9,10.2-9.6,16.5l-1.3,10c0,6.8,1.7,13.1,5.1,18.9c0.2,0.4,0.4,0.8,0.5,1.2l-3.8-9c2.2,5.3,3.4,10.9,4.2,16.6l-1.3-10
		c0.4,3.3,0.7,6.6,1.1,9.9c0.8,6.6,1.8,13.2,2.7,19.8l-1.3-10c0.8,5.6,1.6,11.4,0.9,17.1l1.3-10c-0.2,1.5-0.5,3-0.8,4.5
		c-0.9,4.6-1.5,9.3-2,14c-1.3,11.5,3,23.5,11.2,31.7c4.1,4.2,7.8,5.9,12.3,8.7c2.6,1.6,4.9,3.5,7.4,5.1c5,3.1,10.2,5.8,15.6,8.2
		s10.7,4.9,16.1,7.3s11.2,4.5,16,8.1l-7.6-5.9c6.1,4.8,12.2,9.7,18.8,13.9c4.2,2.7,8.4,5.2,12.7,7.8c8.5,5.2,17,10.6,25.2,16.4
		c16,11.5,31,24.2,47.7,34.6c4.6,2.9,9.3,5.6,13.8,8.7s9.3,5,13.6,8.2l-7.6-5.9c2.1,1.6,4,3.4,6,5.1c4.3,3.7,8.9,7.4,13.7,10.4
		c4.5,2.8,9.4,4.9,13.6,8.1l-7.6-5.9c2,1.5,3.7,3.2,5.6,4.8c4.5,3.6,8.9,7,13.9,9.8c2.2,1.2,4.3,2.5,6.5,3.7
		c4.8,2.6,9.9,4.4,14.9,6.5l-9-3.8c2.4,1,4.8,2.1,6.9,3.6c4.3,2.7,9,4.2,13.9,4.5c5,1.1,10,0.9,15-0.7c4.9-1.2,9.1-3.4,12.8-6.7
		c4.1-2.6,7.3-6.1,9.7-10.5l3.8-9c1.8-6.6,1.8-13.3,0-19.9l-3.8-9C370.7,350,366.2,345.5,360.5,342.2L360.5,342.2L360.5,342.2z"/>
	<path class="st0" d="M121.1,211.5c-3.7-1.6-7.5-3.7-11.6-4.7s-8.2-1.4-12.3-1.7c-0.9-0.1-1.9-0.1-2.8,0c-4.2,0.3-8.4,1-12.5,1.6
		s-7.8,1.7-11.8,2.3s-8.2,1.3-12.2,2.2s-8.2,1.7-12.3,2.2l10-1.3c-5.6,0.7-11.2,1.2-16.7,2.4c-2.3,0.5-4.6,1-6.9,1.3l10-1.3
		c-1.5,0.2-2.9,0.3-4.4,0.1c-5.2-0.2-10,0.9-14.5,3.2c-4.6,1.5-8.7,4.1-12.1,7.8c-3.7,3.4-6.2,7.4-7.8,12.1
		c-2.3,4.5-3.4,9.3-3.2,14.4l1.3,10c1.8,6.4,5,11.9,9.6,16.5l7.6,5.9c5.9,3.4,12.2,5.1,18.9,5.1c1.2,0.1,2.4,0.1,3.6,0
		c4.4-0.5,8.9-1,13.3-1.9c2.5-0.5,4.9-1.1,7.4-1.5l-10,1.3c6.6-0.9,13.2-1.6,19.8-2.8c3.5-0.6,6.9-1.5,10.4-2.2s6.9-1.1,10.4-1.7
		s6.8-1.5,10.3-2l-10,1.3c1.7-0.2,3.4-0.3,5.1-0.1l-10-1.3c1.3,0.2,2.6,0.5,3.9,1l-9-3.8l0.4,0.2c4.3,2.7,8.9,4.2,13.9,4.5
		c5,1.1,10,0.9,14.9-0.7c4.9-1.2,9.1-3.4,12.8-6.7c4.1-2.6,7.3-6.1,9.7-10.5l3.8-9c1.8-6.6,1.8-13.3,0-19.9l-3.8-9
		C131.2,219.3,126.7,214.8,121.1,211.5L121.1,211.5L121.1,211.5z"/>
	<path class="st0" d="M319.2,466.4c-0.2,0.2-0.4,0.4-0.6,0.6l-5.9,7.6c-0.1,0.1-0.2,0.2-0.2,0.4c-1.8,3.2-3.1,6.8-4.4,10.2
		c-0.4,1.1-0.6,2.3-1.1,3.4l3.8-9c-0.5,1-1.1,2-1.8,2.9l5.9-7.6c-1.3,1.6-2.6,3.1-3.9,4.6c-3.4,4.3-6.2,8-9,12.4
		c-2.5,3.9-5.1,7.7-7.8,11.4c-2.6,3.8-5.2,7.7-7.7,11.6s-4.8,7.7-7.6,11.3l5.9-7.6c-2.9,3.7-5.8,7.4-8.7,11.2c-1,1.3-2,2.7-2.8,4.2
		c-1.5,2.7-2.8,5.5-4.7,7.9l5.9-7.6c-1.4,1.8-3,3.3-4.6,5s-3,3.5-4.5,5.2c-2.9,3.5-5.6,7.2-8.5,10.7c-4.8,6-9.7,12-14.2,18.2
		c-2.4,3.4-4.6,6.9-7.2,10.3l5.9-7.6c-1.8,2.3-3.8,4.5-6.1,6.4s-4.5,4-6.5,6.2c-4.1,4.4-7.8,9.2-12.6,12.9l7.6-5.9
		c-6.1,4.7-12.2,9.2-17.8,14.5c-3.4,3.2-6.7,6.4-10.4,9.2l7.6-5.9c-4.7,3.6-9.6,6.8-14.3,10.4s-9.5,7.2-13.9,11.2
		c-2.2,2-4.5,3.9-6.8,5.7l7.6-5.9c-3.2,2.5-6.6,4.8-9.9,7.2c-2.9,2.1-5.8,4.3-9.2,5.8l9-3.8c-1.4,0.6-2.9,1-4.5,1.3l10-1.3
		c-1.3,0.2-2.6,0.2-3.8,0l10,1.3c-2.2-0.3-4.2-1-6.3-1.7c-2.2-0.8-4.5-1.5-6.8-2.1c-4.6-1.3-9.3-2.5-13.9-3.8
		c-2.3-0.7-4.6-1.4-6.9-2.1c-1-0.3-2.1-0.6-3.1-0.8c-4.3-0.8-8.7-1.3-13.1-1.8c-4.6-0.5-9.3-0.2-13.9-0.5c-5.5-0.4-11-1.1-16.6-1.2
		c-5.2-0.2-10,0.9-14.4,3.2c-4.7,1.5-8.7,4.1-12.1,7.8c-3.7,3.4-6.2,7.4-7.8,12.1c-2.3,4.5-3.4,9.3-3.2,14.5l1.3,10
		c1.8,6.3,5,11.9,9.6,16.5l7.6,5.9c5.8,3.4,12.2,5.1,18.9,5.1c5.5,0.1,10.9,0.8,16.3,1.2c5.2,0.4,10.3,0,15.5,0.7
		c-3.3-0.5-6.7-0.9-10-1.3c3.1,0.5,6,1.5,9.1,2.3c3,0.9,6.2,1.7,9.3,2.6s6.2,1.7,9.3,2.6c2.9,0.9,5.8,2,8.7,2.8
		c4.3,1.2,8.9,1.6,13.4,1.9c0.7,0,1.4,0,2.2,0c3.9-0.3,7.9-0.8,11.8-1.6c1.2-0.2,2.4-0.6,3.5-1.1c3.8-1.6,8.3-3.1,12-5.4
		c2.2-1.3,4.3-2.9,6.4-4.5c2.4-1.7,4.8-3.3,7.1-5c5.1-3.7,10.1-7.5,14.9-11.7c2.6-2.2,5.1-4.6,7.8-6.7l-7.6,5.9
		c2.8-2.2,5.8-4.2,8.7-6.3c5.4-3.8,10.7-7.8,15.8-12c5.5-4.5,10.3-9.9,16-14.3l-7.6,5.9c5.4-4.1,10.9-7.9,15.6-12.8
		c2.5-2.6,4.8-5.3,7.2-8c1.2-1.3,2.4-2.5,3.7-3.7s2.8-2.3,4.1-3.5s2.5-2.5,3.6-3.8c3.1-3.8,6.1-7.7,9-11.7c2.5-3.5,4.8-7.2,7.5-10.6
		l-5.9,7.6c2.8-3.6,5.8-7.1,8.6-10.7s5.5-7.1,8.5-10.6c1.5-1.7,3-3.4,4.5-5c3.5-3.6,6.7-7.7,9.3-12c2.2-3.5,3.8-7.2,6.3-10.5
		l-5.9,7.6c4.5-5.8,9-11.5,13-17.6c2.4-3.6,4.7-7.3,7-10.9s4.9-7.1,7.3-10.6c1.3-1.8,2.5-3.7,3.7-5.5c1.1-1.8,2.1-3.6,3.4-5.2
		l-5.9,7.6c3.5-4.5,7.4-8.6,10.6-13.4c0.3-0.5,0.6-1,0.9-1.5c0.7-1.6,1.4-3.1,2-4.7c0.7-1.5,1.3-3.1,2-4.6c0.1-0.2,0.2-0.5,0.3-0.7
		c0.3-1,0.6-2.1,1-3.1l-3.8,9c0.2-0.4,0.4-0.7,0.6-1l-5.9,7.6c0.2-0.2,0.4-0.4,0.6-0.6c3.7-3.4,6.2-7.4,7.8-12.1
		c2.4-4.5,3.4-9.3,3.2-14.5c0.2-5.2-0.9-10-3.2-14.5c-1.5-4.6-4.1-8.7-7.8-12.1l-7.6-5.9c-5.9-3.4-12.2-5.1-18.9-5.1l-10,1.3
		C329.4,458.5,323.9,461.8,319.2,466.4L319.2,466.4L319.2,466.4z"/>
	<path class="st0" d="M148.2,730.6c0.3,0.5,0.6,1.1,0.9,1.6c2.1,3,4.4,6,6.8,8.7c0.8,0.9,1.7,1.7,2.6,2.5c4.3,3.5,8.8,6.7,13.2,10
		l-7.6-5.9c2.4,1.9,4.5,4,6.3,6.5l-5.9-7.6c5.4,7.1,10.3,14.7,13.8,22.9l-3.8-9c1.5,3.6,2.9,7.2,4.2,10.8c1.2,4.9,3.4,9.1,6.7,12.8
		c2.6,4.1,6.1,7.3,10.5,9.7c4.3,2.7,8.9,4.2,13.9,4.5c5,1.1,10,0.9,14.9-0.7l9-3.8c5.6-3.3,10.1-7.8,13.4-13.5l3.8-9
		c1.8-6.7,1.8-13.3,0-19.9c-1.3-3.5-2.6-7-4-10.4c-2.6-6.2-5-12.6-8.4-18.5c-1.9-3.3-4.1-6.3-6.2-9.4c-1-1.5-2-2.9-3.1-4.4
		c-2.9-3.8-5.7-7.9-9.1-11.3c-0.7-0.7-1.4-1.3-2.1-1.9c-3-2.5-6.2-4.9-9.3-7.2c-1.4-1.1-2.9-2.1-4.3-3.2l7.6,5.9
		c-1.3-1-2.6-2.2-3.6-3.5l5.9,7.6c-0.5-0.7-1-1.4-1.4-2.1c-2.4-4.4-5.6-7.9-9.7-10.5c-3.6-3.3-7.9-5.5-12.8-6.7
		c-5-1.6-10-1.8-14.9-0.7c-5,0.2-9.6,1.7-13.9,4.5l-7.6,5.9c-4.6,4.7-7.9,10.2-9.6,16.5l-1.3,10
		C143.1,718.4,144.8,724.7,148.2,730.6L148.2,730.6L148.2,730.6z"/>
	<path class="st0" d="M563.5,417.6c6.2-6.2,12.4-12.5,19.4-17.9l-7.6,5.9c1.9-1.5,4-2.9,6-4.3c4.4-3.1,8.6-6.4,12.8-9.8
		c3.6-3,7-6.3,10.3-9.6c6.7-6.8,13.1-13.7,20.5-19.8c6.6-5.5,11.2-12.7,16.4-19.5l-5.9,7.6c5-6.3,9.9-12.7,14.8-19l-5.9,7.6
		c4.3-5.6,9.7-10.1,14.1-15.5c4.4-5.4,8.5-11.4,14-15.7l-7.6,5.9c3.8-2.9,8-5.5,12-8.3s8.2-5.5,12.5-8s8.6-5.1,12.7-7.9
		s8-5.5,12.2-7.8c4.7-2.6,9.7-4.9,14.7-7l-9,3.8c3.9-1.6,7.8-3.2,11.8-4.3c1.6-0.4,3.2-0.9,4.8-1.5c3.6-1.4,7.4-2.8,10.9-4.6
		c0.3-0.2,0.6-0.4,0.9-0.6c0.2-0.1,0.3-0.2,0.4-0.3c2.5-1.8,5.7-4.1,8-6.2c0.3-0.2,0.5-0.5,0.8-0.7c0.1-0.1,0.2-0.3,0.3-0.4
		c1.2-1.4,5-6.2,6-7.7c0.2-0.3,0.4-0.6,0.5-0.9c0.8-1.5,3.3-7.5,3.9-9.1c0.1-0.3,0.2-0.6,0.3-0.9c0.7-2.3,0.8-5.1,1.2-7.4
		c0.4-2.7,0.8-5.4,0.9-8.1c0.1-4.2-0.6-8.3-0.6-12.5c-0.1-10.9,0.2-21.6-0.4-32.5c-0.6-10.8-1.5-21.6-1.3-32.4
		c0.1-6,0.7-12,1.3-17.9s1.1-12.2,1.9-18.2l-1.3,10c1.9-13.4,8.4-25.5,10.9-38.7c1.6-5,1.8-10,0.7-14.9c-0.2-5-1.7-9.6-4.5-13.9
		c-2.4-4.4-5.6-7.9-9.7-10.5c-3.6-3.3-7.9-5.5-12.8-6.7l-10-1.3c-6.8,0-13.1,1.7-18.9,5.1l-7.6,5.9c-4.7,4.7-7.9,10.2-9.6,16.5
		c-1.9,9.8-5.9,18.9-8.7,28.4c-2.3,7.9-3.1,16-4,24.1c-0.6,5.3-1.1,10.6-1.6,15.8c-0.5,5.3-1,10.7-1.1,16.1s0.1,11,0.3,16.5
		c0.5,10.8,1.4,21.6,1.5,32.4c0,5.8-0.3,11.6-0.1,17.4c0.2,4.9,1,9.7,0.4,14.6l1.3-10c-0.2,1.1-0.4,2.2-0.8,3.3l3.8-9
		c-0.2,0.4-0.4,0.8-0.7,1.2l5.9-7.6c-0.4,0.6-0.9,1-1.5,1.5l7.6-5.9c-0.9,0.7-1.9,1.2-2.9,1.6l9-3.8c-3.2,1.3-6.5,1.9-9.7,3
		c-7.4,2.7-14.6,5.8-21.8,9.1c-4.3,2-8.6,4.1-12.6,6.6c-4.3,2.6-8.3,5.6-12.6,8.3s-8.6,5.1-12.9,7.8s-8.6,5.6-12.9,8.6
		c-2,1.4-4,2.6-6,4c-3.4,2.4-6.6,4.9-9.8,7.5c-0.9,0.8-1.8,1.6-2.7,2.4c-3.3,3.5-6.3,7.3-9.3,11c-1.7,2.1-3.4,4.1-5.2,6.1
		s-3.7,3.6-5.5,5.4c-5.8,6.1-10.5,13.2-15.7,19.9l5.9-7.6c-4.7,6-9.3,12-14,18.1l5.9-7.6c-2.8,3.6-6.4,6.2-9.8,9.1s-6.8,6.3-10,9.6
		c-6.4,6.5-12.6,13.2-19.8,18.8l7.6-5.9c-2.4,1.9-5,3.5-7.5,5.3c-4.9,3.7-9.8,7.4-14.5,11.5s-9.2,8.7-13.7,13.2
		c-3.7,3.4-6.2,7.4-7.8,12.1c-2.4,4.5-3.4,9.3-3.2,14.5c-0.2,5.2,0.9,10,3.2,14.5c1.5,4.6,4.1,8.7,7.8,12.1l7.6,5.9
		c5.8,3.4,12.2,5.1,18.9,5.1l10-1.3C553.3,425.5,558.8,422.3,563.5,417.6L563.5,417.6L563.5,417.6z"/>
	<path class="st0" d="M719.9,273.1c3.8,0,7.6-0.6,11.4-0.1l-10-1.3c1,0.2,2,0.5,3,0.9l-9-3.8c4,1.8,7.8,3.5,12,5.2s9.7,1.8,13.6,2.2
		c3,0.4,5.9,0.3,8.9,0.1c6.2-0.4,12.3-0.4,18.4-0.6c6.7-0.3,13.4-0.7,20.1-1s13.1-0.3,19.7-0.4c3.7,0,7.4,0.1,11.1,0.6
		s7.2,1,10.9,0.9c5.2,0.2,10-0.9,14.5-3.2c4.7-1.5,8.7-4.1,12.1-7.8c3.7-3.4,6.2-7.4,7.8-12.1c2.3-4.5,3.4-9.3,3.2-14.4
		c-0.5-3.3-0.9-6.6-1.3-10c-1.8-6.4-5-11.9-9.6-16.6l-7.6-5.9c-5.8-3.4-12.2-5.1-18.9-5.1c-5.9,0.1-11.7-1.3-17.5-1.5
		s-12,0.1-17.9,0.2c-12,0.2-23.9,1.4-35.8,1.3c-6,0-12,1.1-17.9,0.3l10,1.3c-1.2-0.2-2.3-0.4-3.4-0.9l9,3.8
		c-4.1-1.8-8.1-3.7-12.3-5.3s-9.4-1.9-14.1-2.2c-3.3-0.2-6.6,0.2-9.9,0.2c-5.2-0.2-10,0.9-14.5,3.2c-4.7,1.5-8.7,4.1-12.1,7.8
		c-3.7,3.4-6.2,7.4-7.8,12.1c-2.3,4.5-3.4,9.3-3.2,14.4l1.3,10c1.8,6.4,5,11.9,9.6,16.6l7.6,5.9
		C706.8,271.4,713.2,273.1,719.9,273.1L719.9,273.1L719.9,273.1z"/>
</g>
<g id="Layer_1_00000093167512313648422890000010454002461445458611_">
	<path class="st1" d="M379,512c2.9,3.6,9.3,5.7,13.4,7.5c5.6,2.4,11.7,5.7,17.7,7c7.7,1.8,15.9,1.3,23.7,2.7c2.5,0.4,4.8,1,7.4,0.8
		c4.4-0.4,8.7-2.5,12.8-4"/>
	<path class="st1" d="M387.4,371.4c-4.1,2.4-6.6,4.2-9.2,7.6c-2.4,3.2-6.1,6.8-7.8,10.3c-5.5,11.3-6.2,24.9-7.5,37.1"/>
	<path class="st1" d="M486.3,365.9c-9.6,11.2-14.5,26.9-18.4,41c-3.5,12.3-5.4,23.3-4.9,36.1"/>
</g>
</svg>
