<?xml version="1.0" encoding="UTF-8"?>
<svg xmlns="http://www.w3.org/2000/svg" viewBox="0 0 842.3 706.42">
  <defs>
    <style>
      .cls-1 {
        stroke: #231f20;
        stroke-width: 4px;
      }

      .cls-1, .cls-2 {
        fill: none;
        stroke-miterlimit: 10;
      }

      .cls-3 {
        fill: #fff200;
      }

      .cls-2 {
        stroke: #65c8d0;
        stroke-linecap: round;
        stroke-width: 24px;
      }

      .cls-4 {
        fill: #58595b;
      }
    </style>
  </defs>
  <g id="Layer_2" data-name="Layer 2">
    <path class="cls-3" d="m464.59,430.27c-6.2,1.83-7.39,2.34-10.01,8.37-2.69,5.68-5.44,10.75-7.22,16.44,0,0-1.18,3.54-1.18,3.54-2.19,6.61-5,14.13-6.61,20.63,0,0,.31-.97.31-.97-.7,5.03-1.82,10.17-3.1,15.11-1.14,4.95-2.49,9.89-4.25,14.68-.89,2.61-2.22,5.49-3.04,8.13-3.71,10.52-7.37,20.42-12.63,30.78-4.32,8.31-9.56,15.09-13.79,21.12,0,0,1.08-1.49,1.08-1.49-2.48,4.3-5.57,8.37-9.14,11.96l1.4-1.46c-2.06,2.57-4.76,4.89-7.64,6.57l4.96-4.18c.64-.58,1.26-1.78,1.61-2.74,0,0-4.17-17.18-4.17-17.18-1.6-1.94-5.21-3.62-7.25-3.7-.54-.06-.64-.06-.4-.14.3-.11,2.34-.54,2.99-.68,8.09-1.8,17.35-4.79,25.41-7.25,10.83-3.44,22.09-9.04,32.71-13.83,11.9-5.36,23.38-8.37,35.11-12.46,6.8-2.46,12.43-5.3,19.79-9.04,0,0,4.51-2.26,4.51-2.26,0,0,.24-.12.24-.12l-.04.02s-.1.06-.01,0l.46-.27c5.45-3.37,10.05-6.04,16.88-7.02,2.94-.41,6.61-.36,10.3.54,0,0,26.72,6.54,26.72,6.54l-13.45,23.94c-1.59,2.82-3.48,5.07-5.28,6.79-4.46,4.21-9.24,6.33-14.45,8.5-12.84,6.21-26.82,10.26-39.26,15.69-25.98,11.59-49.9,29.74-73.71,45.65-28.95,20.77-58.76,41.58-83.93,66.88-6.52,6.58-13.31,12.97-20.44,18.91-1.84,1.54-3.69,2.55-5.16,4.4-.42.57-.81,1.23-.67,2.01-.42-.68-.29-1.61-.06-2.37.65-2.23,2.33-4.22,3.51-6.11,11.37-18.49,21.25-37.86,35.27-54.63,15.74-19.49,33.21-37.1,51.5-54.04,28.47-25.26,58.25-51.27,94.46-65.01,7.53-3.07,13.83-5.64,20.54-8.99,1.28-.63,3.59-1.59,4.79-2.21.23-.12.21-.14.03-.03-.18.11-.69.43-1.32,1.04-.72.66-1.65,1.71-2.47,3.22,0,0,13.27,30.48,13.27,30.48,3.06.78,5.93.51,8.07-.36-.04.04-.03.01-.13.07,0,0-.44.25-.44.25-1.33.81-3.21,2-4.55,2.76-8.56,4.36-16.12,8.37-25.95,12.24-11.84,4.58-25.89,7.55-37.24,11.9-13.09,5.21-25.48,10.5-39.54,13.83-6.67,1.51-13.38,3.02-20.21,4.24-3.4.6-7.12,1.15-10.57,1.54-8.37,1.5-18.34.3-24.81-6.72,0,0-7.24-7.7-7.24-7.7,0,0,3.06-9.48,3.06-9.48.96-3.11,2.88-6.37,4.87-8.67,0,0,4.96-4.18,4.96-4.18-.52.36-1.1.94-1.42,1.45,0,0,1.4-1.46,1.4-1.46,2.18-1.63,4.22-3.79,5.78-6.12,5.44-5.9,10.26-10.82,13.84-15.73,4.01-5.63,7.8-11.86,11.59-18.36l5.98-10.33c.74-1.09,2.13-3.4,2.82-4.53,2.8-4.65,5.06-9.67,7.47-14.54,1.67-3.55,3.31-7.18,4.61-10.93,3.55-6.84,7.85-13.22,12.01-19.47,0,0,2.02-3.1,2.02-3.1,3.48-5.45,8.17-10.28,12.34-14.75,4.58-5.28,6.97-6.27,14.08-5.62h0Z"/>
    <path class="cls-4" d="m73.42,196.5c2.46.68,4.84,1.52,7.2,2.49l-23.89-10.08c16.05,6.84,32.02,13.83,48.32,20.03,8.95,3.4,17.92,6.75,26.74,10.47l-23.89-10.08c23.76,10.11,47.49,19.64,71.69,28.55,15.78,5.81,31.26,12.72,47.3,17.77s33.21,9.49,49.8,14.15c16.87,4.74,33.8,9.19,50.75,13.61,34.06,8.88,67.94,18.54,102.42,25.67,34.54,7.15,69.26,13.32,103.76,20.68,19.58,4.18,39.14,8.47,58.72,12.64,27.42,5.85,55.31,8.93,83.06,12.64l-26.58-3.57c6.15.85,12.28,1.91,18.42,2.81,14.66,2.15,29.31,3.66,43.96,5.6-8.86-1.19-17.72-2.38-26.58-3.57,13.23,1.9,26.46,3.86,39.73,5.47-8.86-1.19-17.72-2.38-26.58-3.57,1.92.26,3.8.59,5.62,1.28l-23.89-10.08c.58.26,1.07.53,1.59.88-6.75-5.21-13.49-10.42-20.24-15.64.29.22.54.47.76.76-5.21-6.75-10.42-13.49-15.64-20.24l.27.44v-100.94c-.21.38-.45.75-.72,1.09,5.21-6.75,10.42-13.49,15.64-20.24-.46.53-.93.98-1.46,1.44,6.75-5.21,13.49-10.42,20.24-15.64-1.44,1.09-2.98,1.88-4.64,2.59l23.89-10.08c-6.62,2.62-13.79,4.21-20.63,6.14-9.2,2.61-18.43,5.11-27.64,7.71-17.92,5.05-35.79,10.18-53.81,14.88-17.83,4.65-35.64,9.53-53.65,13.45s-35.48,8.85-53.25,13.37c-72.47,18.45-147.2,25.79-219.92,43.05-10.03,2.38-20.07,4.54-30.15,6.69-4.52.96-8.83,2.67-13.24,4.03-4.93,1.53-10.03,2.46-15.07,3.52-20.24,4.25-39.79,11.02-60.36,13.83l26.58-3.57c-.81.11-1.61.21-2.42.31-13.77-.52-26.61,2.35-38.53,8.61-12.4,4.03-23.13,10.93-32.18,20.68-9.75,9.06-16.64,19.79-20.68,32.18-6.26,11.92-9.13,24.76-8.61,38.53l3.57,26.58c4.75,16.94,13.32,31.65,25.72,44.13,6.75,5.21,13.49,10.42,20.24,15.64,15.6,9.05,32.42,13.6,50.47,13.65,18.17-2.23,36.17-4.39,53.94-8.72,9.07-2.21,17.99-4.97,27.06-7.15s18.59-3.71,27.63-6.74c8.55-2.86,17.41-4.13,26.18-6.18,18.68-4.38,37.34-9.04,56.23-12.44,19.22-3.46,38.41-7.19,57.66-10.46,38.25-6.49,76.55-12.79,114.25-22.1,18.6-4.59,36.94-10.01,55.68-14.06,18.8-4.07,37.39-9.11,56-13.96,21.23-5.54,42.28-11.7,63.42-17.57,10-2.78,19.97-5.69,29.97-8.46,11.52-3.19,20.94-7.6,32.57-12.78,17.44-7.77,33.1-24.91,42.69-40.99,17.88-29.95,18.66-71.06,0-100.94-9.23-14.79-21.78-28.99-37.39-37.4-.36-.21-.73-.4-1.11-.56l-23.89-10.08c-.77-.27-1.53-.52-2.33-.71-11.24-2.68-22.91-3.18-34.37-4.64l26.58,3.57c-16.51-2.5-33.09-4.35-49.63-6.57l26.58,3.57c-20.4-2.83-40.8-5.66-61.22-8.37l26.58,3.57c-33.52-4.66-66.46-12.56-99.52-19.63-33.3-7.12-66.78-13.22-100.16-19.96-33.3-6.72-65.96-15.81-98.81-24.39s-65.27-17.53-97.82-26.64c-17.71-4.96-34.48-12.04-51.68-18.45-17.53-6.54-35.19-12.76-52.45-20.01l23.89,10.08c-15.66-6.63-31.25-13.35-47.14-19.38-8.17-3.1-16.36-6.15-24.42-9.54l23.89,10.08c-6.27-2.71-12.52-5.39-18.82-8.05s-12.54-5.72-19.14-7.53c-13.29-4.17-26.58-4.76-39.88-1.79-13.31.6-25.7,4.56-37.18,11.87-11.65,6.28-21.01,14.87-28.06,25.76-8.84,9.66-14.81,20.99-17.9,34.01l-3.57,26.58c.06,18.05,4.61,34.87,13.65,50.47,5.21,6.75,10.42,13.49,15.64,20.24,12.48,12.39,27.19,20.97,44.13,25.72h0Z"/>
    <path class="cls-2" d="m260.97,501.81c-7.06,7.73-11.61,18.48-16.62,27.55-5.46,9.89-12.04,19.08-17.26,29.1-8.09,15.54-15.13,32.69-21.16,49.09-4.8,13.05-8.67,26.34-12.87,39.58-2.56,8.1-6.15,16.05-7.55,24.44-.78,4.72-1.31,9.32-2.97,13.86-1.01,2.76-3.47,5.92-2.74,8.99"/>
    <path class="cls-2" d="m702.6,490.8c-2.38,1.63-4.73,3.32-7.03,5.05-1.8,1.95-3.25,4.14-4.36,6.56-3.92,5.01-10.95,8.58-15.97,12.58-5.26,3.73-10.27,7.78-15.03,12.13-3.78,5.26-7.99,10.16-12.62,14.69-7.47,7.3-14.99,13.75-21.25,22.19-14.57,19.65-32.28,37.47-45.44,58.08-5.25,8.23-12.79,16.05-16.66,25.02-.68,1.57-1.16,6.88-3.34,7.41"/>
    <path class="cls-2" d="m811.29,580.23c-7.3,5.74-14.59,11.48-21.89,17.22-3.37,4.84-7.66,7.95-12.87,9.31-4.46,1.12-6.18.57-10.44,3.28-16.52,10.54-31.31,27.72-43.53,42.76-7.56,9.31-13.25,19.84-20.73,29.13-1.62,2.01-3.18,4.16-5.2,5.81-1.54,1.25-3.76,1.56-3.66,3.93"/>
    <path class="cls-2" d="m64.23,560.97c-4.15,5.67-8.98,10.79-13.01,16.39-1.42,1.98-3.31,3.78-4.58,5.84-1.94,3.17-2.94,6.99-4.62,10.31-2.49,4.92-4.11,7.88-3.96,13.38s.02,10.67.02,16"/>
  </g>
  <g id="Layer_1" data-name="Layer 1">
    <path class="cls-1" d="m182.55,428.89c15.13,0,30.3.33,45.42.1,12.87-.19,25.57-1.67,38.4-2.55,13.51-.93,27.11-1.36,40.64-2.05,45.37-2.33,90.48-.21,135.8,2.49,48.23,2.87,96.88,3.45,145.2,3.45,55.46,0,110.84-2.83,166.29-2.82,20.21,0,40.38-.53,60.5,1.68,6.76.74,13.59,2.37,20.4,2.55,1.82.05,3.53-.47,5.07.48-.12-13.37-.82-26.7-1.78-40.04-1.57-21.78-2.93-43.33-9.16-64.38-2.78-9.42-6.23-18.62-10.39-27.52-3.45-7.39-8.21-13.59-12.33-20.6-2.92-4.96-4.99-10.3-8.76-14.67-5.26-6.09-12.87-11.24-19.73-15.22-15.69-9.09-33.88-12.66-51.22-17.5-7.99-2.23-15.52-2.93-23.79-2.92-14.89.03-29.34,1.16-43.7,5.51-8.41,2.55-16.46,5.97-24.49,9.53-3.48,1.55-6.99,3.5-10.7,4.46,9.25-2.47,17.19-5.71,25.6-10.41,7.81-4.37,16.43-8.31,23.23-14.28,4.91-4.3,7.1-10.27,8.7-16.41,2.06-7.92,2.93-16.31,3.05-24.48.15-10.04-3.82-17.49-9.85-25.21-11.18-14.33-25.86-25.6-41.04-35.39-12.08-7.78-23.77-16.32-36.5-23.07s-25.97-9.51-39.33-12.27c-16.22-3.35-33.34-5.47-49.92-6.4-2.38-.13-4.82-.36-7.2-.14,7.16-.04,17.95,2.55,19.97-6.9,1.34-6.29.12-13.62-2.54-19.31-1.53-3.27-3.32-6.56-5.85-9.18-5.07-3.96-10.52-7.28-16.35-9.95-6.99-3.85-14.19-7.28-21.59-10.29-12.1-4.89-24.51-8.84-37-12.59-8.32-2.49-17.09-6.29-25.89-6.37-3.1-.03-5.01.36-7.56,1.66-3.58,1.83-3.23,1.44-8.68,1.4-14.12-.1-28.23.05-42.35-.14-28.25-.36-56.55-1.68-84.8-1.43-11.85.1-25.46-1.26-36.83,2.51-.45,2.71,1.38,5.48,2.71,7.71,5.44,9.09,14.74,15.81,23.23,21.72,10.87,7.56,25.34,16.85,39.25,16.53-10.6-1.52-22.37-.25-33.07-.19-10.34.06-20.56.11-30.64,2.7-12.47,3.2-24.77,7.72-36.69,12.51-10.58,4.25-27.32,8.86-31.7,20.68-2.96,7.97-1.86,18.53,1.06,26.32l2.26,4.89c2.04,3,1.89,5.79-.45,8.34-4.9,9.47-16.92,14.93-26.22,19.58s-18.31,8.24-27.74,11.56c-9.83,3.47-21.35,6.85-29.48,13.81s-1.98,9.38,5.02,11.62c7.69,2.47,15.5,3.82,23.17,6.55l12.53,4.81c3.08.23,5.43,1.43,7.05,3.6-3.07,1.41-5.55,3.95-8.34,5.84-8.45,5.74-15.92,11.36-22.96,18.84-9.16,9.73-13.76,18.82-17.14,31.24-3.28,13.15-7.19,26.11-11.74,38.88-3.08,7.13-5.49,14.46-7.25,22-2.2,8.62-1.56,17.04-1.53,25.86,0,2.82-1.26,8.18.71,10.39,1.61,1.81,5.62,2.18,7.81,2.87,3.32,1.05,6.93,2.88,10.33,2.44-2.07,1.44-2.88,4.03-3.16,7,.46,7.21,3.55,12.93,9.26,17.17,6.15,7.53,13.52,13.72,22.1,18.55,12.98,9.07,29.48,23.74,46.55,23.46"/>
    <path class="cls-1" d="m223.82,179.87c.54,2.78,4.89,4.33,6.96,5.64,4.83,3.06,9.29,6.63,14.1,9.74,15.84,10.23,32.68,19.52,49.38,28.22,12.23,6.37,24.31,12.92,36.46,19.44,4.76,2.56,8.54,6.58,12.79,9.87"/>
    <path class="cls-1" d="m428.82,265.17c-.99.17-1.45-.15-1.37-.97,23.97-11.87,46.02-28.93,71.68-37.33,9.21-3.02,18.6-6.19,27.36-10.5,4.82-2.38,9.61-5.12,13.6-8.75,1.54-1.39,5.8-3.41,5.68-5.75"/>
    <path class="cls-1" d="m328.38,390.37c4.22-4.87,7.52-10.52,11.62-15.5,7-8.51,11.46-18.07,17.33-27.31,3.79-5.96,7.28-12.03,10.9-18.09,2.1-3.51,4.78-6.64,6.77-10.2.81-1.45,1.43-3.65,2.63-4.71,2.53,13.01,7.67,25.33,12.97,37.52,3.84,8.83,7.05,17.81,11.17,26.53,1.31,2.77,2.58,8.18,5.03,10.38"/>
    <path class="cls-1" d="m277.48,234.9c-3.37,3.19-4.65,11.58-5.52,15.85-1.44,7.06-2.06,14.63-4.48,21.45s-1,15.89-1,23.23"/>
    <path class="cls-1" d="m493.48,245.91c-2.54.08-6.25,4.09-7.92,5.75-4.56,4.55-7.21,10.78-9.66,16.59-4.52,10.74-8.35,22.37-8.57,34.06"/>
    <path class="cls-1" d="m453.58,445.4c-3.67-.08-6.41,7.46-8.4,10.12-6.7,8.95-13.79,16.94-19.41,26.75-8.35,14.58-17.92,28.22-25.32,43.37-3.8,7.77-6.64,15.87-10.02,23.82-1.05,2.46-4.02,6.22-2.41,8.8,7.67-.14,14.53-3.44,21.83-5.52,11.72-3.34,23.82-5.32,35.64-8.29s25.57-4.7,35.75-12.13c-1.02,2.04-3.11,3.63-4.79,5.1-5.48,4.79-11.94,8.44-17.85,12.65-21.36,15.19-39.52,34.3-56.88,53.8-19.44,21.83-36.96,44.63-52.41,69.42-5.07,8.13-10.7,17.59-18.17,23.89"/>
  </g>
</svg>