<?xml version="1.0" encoding="UTF-8"?>
<svg xmlns="http://www.w3.org/2000/svg" viewBox="0 0 930.02 877.23">
  <defs>
    <style>
      .cls-1 {
        fill: none;
        stroke: #231f20;
        stroke-miterlimit: 10;
        stroke-width: 4px;
      }

      .cls-2 {
        fill: #fff200;
      }
    </style>
  </defs>
  <g id="Layer_2" data-name="Layer 2">
    <path class="cls-2" d="m311.07,169.75c24.43,11.56,47.71,25.48,72.13,37.08,12.62,5.99,25.27,11.9,37.72,18.23s24.47,11.44,36.64,17.29c7.01,3.37,13.91,6.95,21,10.15,13.23,5.97,26.71,11.45,40.08,17.09l-19.71-8.32c12.49,5.27,24.75,10.96,37,16.76,18.09,8.57,36.61,16.12,55.04,23.9-6.57-2.77-13.14-5.54-19.71-8.32,15.11,6.39,29.96,13.13,44.07,21.54,6.91,4.12,13.89,8.1,20.31,12.98,6.92,5.27,13.95,10.42,20.85,15.72l-16.7-12.9c7.15,5.59,14.07,11.5,21.18,17.16,3.4,2.71,6.75,5.5,9.85,8.55s5.76,6.21,8.94,9.05c2.96,2.64,6.06,5.12,8.91,7.87,3.26,3.15,5.97,6.8,9.01,10.16,2.84,3.14,5.56,6.37,8.42,9.49s6.36,5.34,8.98,8.51c-4.3-5.57-8.6-11.13-12.9-16.7,2.9,3.78,5.78,7.55,8.69,11.33,3.09,4,5.66,8.1,9.42,11.37,7.49,6.52,15.67,11.86,23.64,17.64l-16.7-12.9c3.46,2.76,6.85,5.4,10.42,8.16,2.48,1.92,6.89,6.02,10.61,7.88,13.88-51.25,27.76-102.49,41.64-153.74-.73-.02-1.46-.08-2.19-.19,7.31.98,14.62,1.96,21.93,2.95-2.54-.42-4.88-1.16-7.26-2.14l19.71,8.32c-12.44-5.54-24.71-11.5-37.57-16.07-6.81-2.42-13.72-4.59-20.53-7.03-13.99-5.02-27.76-10.6-41.51-16.23-28.14-11.53-56.51-22.14-85.16-32.34-28.55-10.17-56.84-21.22-85.77-30.28-14.58-4.56-29.37-8.39-44.15-12.21s-29.02-7.81-43.64-11.24c-16.39-3.84-32.52-8.69-48.9-12.65-8.23-1.99-16.47-3.49-24.86-4.7-10.89-1.57-21.74-3.43-32.7-4.61-4.1-.44-8.23-.35-12.32-.81l21.93,2.95c-10.28-1.54-20.61-3.95-31-4.26-3.78-.11-7.5.41-11.27-.08l21.93,2.95c-19.46-3.23-39.04-4.76-58.62-7.01-12.23-1.4-24.56-2.06-36.77-3.61,7.31.98,14.62,1.96,21.93,2.95-3.98-.56-7.88-1.35-11.74-2.48l-21.93-2.95c-11.36-.43-21.95,1.94-31.79,7.11-6.99,1.96-13.06,5.5-18.2,10.61-8.98,5.82-16.06,13.53-21.25,23.15-7.52,16.37-11.41,23.8-11.37,42.36.04,14.46,4.06,30.2,11.61,42.62,4.46,7.33,9.95,14.09,15.74,20.43,3.34,3.65,7.13,6.9,10.9,10.09,14.55,12.34,29.65,24.19,45.15,35.29s31.03,20.37,46.96,29.77,31.97,18.2,48.45,26.38c17.17,8.52,34.77,16.15,52.36,23.75,24.11,10.41,48.31,20.6,72.64,30.49,35.56,14.46,71.31,28.85,107.46,41.77,10.02,3.58,20.14,6.79,30.27,10.04s19.61,6.8,29.59,9.63c4.84,1.37,9.77,2.41,14.63,3.69,4.95,1.31,9.6,3.21,14.32,5.16s9.84,4.02,14.83,5.84,10.82,2.91,15.96,4.98c-6.57-2.77-13.14-5.54-19.71-8.32,4,1.84,7.48,4.55,11.25,6.8v-142.47c-.51.37-.97.63-1.55.88,6.57-2.77,13.14-5.54,19.71-8.32-.89.3-1.77.49-2.7.62l21.93-2.95c-3.53.33-7.06-.1-10.56-.56l21.93,2.95c-11.62-1.58-22.94-3.13-34.54-4.25-5.77-.55-11.55-1.06-17.3-1.81,7.31.98,14.62,1.96,21.93,2.95-7.16-1.05-14.11-2.96-21.07-4.89s-14.44-3.67-21.7-5.38c-14.65-3.45-29.24-7.12-43.83-10.78-29.85-7.5-60.09-12.88-90.14-19.52s-59.74-11.22-89.46-17.68-58.89-13.95-88.43-20.52c-16.22-3.61-32.64-6.22-48.88-9.73-8.08-1.75-16.06-3.8-23.99-6.14s-15.18-4-22.48-6.94l19.71,8.32c-2.92-1.23-5.65-2.73-8.42-4.25-8.63-4.72-18.11-8.16-27.17-11.81-5.81-2.34-11.78-4.23-17.57-6.62l19.71,8.32c-3.4-1.45-6.61-3.15-9.81-4.99-1.6-.91-3.19-1.84-4.84-2.65-7.63-3.78-15.81-7.22-23.84-10.08-3.47-1.24-7.1-1.96-10.59-3.15-3.7-1.27-7.16-3.07-11.06-3.69-14.62-3.93-29.24-3.93-43.86,0-13.98,3.92-26.11,10.99-36.4,21.22-10.22,10.29-17.3,22.43-21.22,36.4-3.93,14.62-3.93,29.24,0,43.86,2.85,7.51,5.24,15.61,9.67,22.41,2.13,3.27,5.67,7.41,7.42,9.68,2.21,2.86,4.86,6.69,7.58,9.67,6.25,6.84,16.71,13.72,22.91,18.44,5.38,4.11,10.83,8.14,16.29,12.15,12.66,9.29,25.46,18.38,39.03,26.31,32.03,18.71,66.84,32.52,101.1,46.49,30.9,12.6,61.79,25.24,92.75,37.72,15.54,6.26,31.17,12.3,46.69,18.6,14.53,5.9,28.8,12.37,43.93,16.63,17.54,4.94,34.9,10.29,52.61,14.62,17.42,4.25,34.84,9.25,51.41,16.17-6.57-2.77-13.14-5.54-19.71-8.32,11.37,4.86,22.53,10.4,34.32,14.17,5.34,1.7,10.73,2.67,16.24,3.56,5.76.93,11.32,2.72,16.91,4.38,10.87,3.23,22.1,4.78,33.43,5.1l-21.93-2.95c1.21.17,2.32.57,3.46,1.01-6.57-2.77-13.14-5.54-19.71-8.32,3.85,1.66,7.31,3.97,10.94,6.02,9.44,5.32,19.91,8.66,29.99,12.57-6.57-2.77-13.14-5.54-19.71-8.32,7.38,3.2,13.96,7.95,20.92,11.93,6.57-50.26,13.14-100.53,19.71-150.79-2.34.98-4.66,1.67-7.17,2.08l21.93-2.95c-2.53.31-4.98.32-7.51.04,7.31.98,14.62,1.96,21.93,2.95-10.03-1.46-20-3.48-30.15-4.07-3.57-.21-7.13-.39-10.7-.53-6.83-.28-13.67-.41-20.49-.82s-13.61-1.37-20.43-1.87-13.74-.81-20.58-1.53c-27.44-2.87-54.99-4.44-82.43-7.38-15.29-1.64-30.71-2.33-45.95-4.32,7.31.98,14.62,1.96,21.93,2.95-6.92-.96-13.56-2.7-20.32-4.38-13.41-3.34-27.34-4.04-41.02-5.81l21.93,2.95c-12.22-1.77-24.1-5.79-35.95-9.16-11.98-3.41-24.21-5.67-36.39-8.23s-23.83-6.14-35.97-8.13c-18.61-3.05-37.66-5.34-56.51-6.75-14.42-1.08-28.77-2.15-43.11-4.07l21.93,2.95c-31.31-4.25-62.18-10.87-93.61-14.34v165c9,.05,17.97.71,26.89,1.91-7.31-.98-14.62-1.96-21.93-2.95,36.74,5.13,72.01,18.83,106.03,33.14l-19.71-8.32c13.38,5.65,26.57,11.85,40.16,16.93,7.11,2.66,14.37,4.86,21.38,7.78l-19.71-8.32c8.8,3.79,17.42,8.01,26.12,12.02,14.84,6.84,29.9,13.16,45,19.41l-19.71-8.32c11.79,4.99,23.38,10.29,35.22,15.21,5.47,2.27,11.16,3.96,16.63,6.23l-19.71-8.32c9.31,4.1,18.74,7.94,28.13,11.86-6.57-2.77-13.14-5.54-19.71-8.32,3.8,1.63,7.13,3.81,10.71,5.84,9.46,5.38,19.99,8.4,30.01,12.48l-19.71-8.32c10.41,4.4,19.37,10.96,29.04,16.68,4.94,2.92,10.03,5.55,15.02,8.37,9.88,5.58,20.27,9.66,30.85,13.95l-19.71-8.32c1.09.46,2.14.95,3.13,1.59-5.57-4.3-11.13-8.6-16.7-12.9.29.2.55.43.78.7l-12.9-16.7.23.36c31.06-40.4,62.11-80.79,93.17-121.19-22.15-3.53-44.37-6.57-66.61-9.47-15.43-2.01-30.88-3.8-46.42-4.69-31.04-1.78-61.91.2-92.9,1.96-8.62.49-17.25,1.05-25.82,2.05-7.89.92-15.75,2.22-23.72,2.09-11.36-.43-21.95,1.94-31.79,7.11-10.23,3.33-19.08,9.01-26.55,17.06-8.05,7.47-13.73,16.32-17.06,26.55-5.17,9.83-7.53,20.43-7.11,31.79l2.95,21.93c3.92,13.98,10.99,26.11,21.22,36.4l16.7,12.9c12.87,7.46,26.75,11.22,41.64,11.26,11.78.19,23.53-2.26,35.25-3.19,12.62-1,25.28-1.46,37.91-2.26,25.61-1.63,51.22-2.03,76.84-.15,14.67,1.07,29.27,2.91,43.84,4.86-7.31-.98-14.62-1.96-21.93-2.95,13.26,1.79,26.5,3.76,39.71,5.87,7.31.98,14.62,1.96,21.93,2.95,7.31-.98,14.62-1.96,21.93-2.95l19.71-8.32c9.61-5.18,17.33-12.27,23.15-21.25,5.11-5.15,8.65-11.21,10.61-18.2,3.73-6.43,5.61-13.37,5.63-20.82,1.96-7.31,1.96-14.62,0-21.93-.5-10.98-3.76-21.2-9.79-30.67-7.83-12.34-18.89-25.12-32.36-31.64-7.92-3.83-16.18-6.93-24.34-10.21l19.71,8.32c-4.87-2.09-9.46-5.2-14.12-7.75-5.4-2.95-10.75-6-15.89-9.4-15.29-10.09-31.72-17.01-49.02-23.28,6.57,2.77,13.14,5.54,19.71,8.32-3.36-1.46-6.27-3.7-9.51-5.38-9.34-4.84-19.37-8.35-29.08-12.38,6.57,2.77,13.14,5.54,19.71,8.32-9.6-4.09-19.08-8.55-28.94-12-3.55-1.24-7.09-2.47-10.57-3.93,6.57,2.77,13.14,5.54,19.71,8.32-13.62-5.85-27.2-11.8-40.87-17.56l19.71,8.32c-12.45-5.28-24.66-11.1-36.93-16.76s-23.85-10.85-36.16-15.26c-6.22-2.23-12.53-4.23-18.64-6.77l19.71,8.32c-25.24-10.81-50.44-21.72-76.29-31.03-19.11-6.88-38.63-12.83-58.7-16.15-18.14-3.01-36.69-5.72-55.14-5.81-11.36-.43-21.95,1.94-31.79,7.11-10.23,3.33-19.08,9.01-26.55,17.06-8.05,7.47-13.73,16.32-17.06,26.55-5.17,9.83-7.53,20.43-7.11,31.79l2.95,21.93c3.92,13.98,10.99,26.11,21.22,36.4l16.7,12.9c12.87,7.46,26.75,11.22,41.64,11.26,2.07.23,4.14.48,6.21.76-7.31-.98-14.62-1.96-21.93-2.95,12.05,1.67,23.97,4.14,35.97,6.16,18.31,3.08,36.73,5.54,55.14,7.91,23.07,2.98,46.34,3.71,69.41,6.7l-21.93-2.95c10.54,1.45,20.66,4.25,30.99,6.7s20.79,4.3,31.15,6.61,20.41,5.45,30.61,8.27c17.33,4.81,35.02,6.54,52.84,8.78-7.31-.98-14.62-1.96-21.93-2.95,7.44,1.04,14.54,3.56,21.9,4.96,14.32,2.72,28.96,4.38,43.51,5.49,15.43,1.17,30.78,2.91,46.19,4.4,30.31,2.93,60.72,5,91.06,7.6,8.66.74,17.23,1.7,25.93,2.02s17.57.63,26.35,1.19c-7.31-.98-14.62-1.96-21.93-2.95.93.24,1.85.46,2.79.63,7.6,1.38,15.89,2.48,23.59,3.21,1.81.17,3.59.3,5.4.18,10.07-.65,21.55-1.18,31.21-5.25l19.71-8.32,16.7-12.9,12.9-16.7c6.03-9.47,9.29-19.69,9.79-30.67,1.96-7.31,1.96-14.62,0-21.93-.02-7.45-1.9-14.39-5.63-20.82-1.96-6.99-5.5-13.06-10.61-18.2-5.82-8.98-13.53-16.06-23.15-21.25-4.84-2.77-9.48-5.87-14.34-8.61-10.51-5.94-22.11-9.6-33.23-14.17,6.57,2.77,13.14,5.54,19.71,8.32-4.43-2.06-8.38-5.01-12.8-7.08-7.97-3.74-15.98-8.21-24.65-9.98-23.48-4.81-15.09-2.09-24.93-2.86,7.31.98,14.62,1.96,21.93,2.95-8.62-1.59-16.73-5.22-25.41-6.62s-16.56-3.33-24.54-6.65c6.57,2.77,13.14,5.54,19.71,8.32-15.91-6.8-31.55-13.52-47.93-18.97-10.3-3.43-20.76-6.16-31.3-8.72-10.55-2.56-20.99-5.38-31.4-8.48s-21.12-5.84-31.42-9.49c-9.88-3.49-19.48-7.72-29.16-11.71-10.38-4.28-20.87-8.28-31.29-12.44-20.72-8.27-41.38-16.68-62.03-25.11-22.69-9.26-45.48-18.33-68.06-27.84l19.71,8.32c-21.24-8.98-42.27-18.59-62.21-30.23s-37.56-24.79-55.32-38.46l16.7,12.9c-2.65-2.08-5.19-4.26-7.34-6.86l12.9,16.7c-.81-1.07-1.51-2.14-2.07-3.36,2.77,6.57,5.54,13.14,8.32,19.71l-.26-.68-101.48,101.48c4.08.65,7.7,2.58,11.58,3.86s8.23,2.18,12.2,3.8l-19.71-8.32c3.04,1.36,5.88,3.05,8.77,4.69,8.65,4.88,18.75,8.58,27.6,12.2,6.14,2.51,12.46,4.52,18.59,7.04l-19.71-8.32c3.41,1.45,6.57,3.24,9.83,4.97,9.55,5.07,19.71,9.16,29.96,12.6,7.17,2.41,14.55,4.28,21.82,6.35,15.98,4.56,32.37,7.41,48.68,10.52,32.82,6.26,65.15,14.9,97.74,22.24s66.23,12.56,99.17,19.82c16.73,3.69,33.47,7.07,50.28,10.32,16.71,3.23,33.18,7.49,49.67,11.65,18.17,4.58,36.58,8.4,54.63,13.38,4.13,1.14,8.25,2.33,12.41,3.34,11.33,2.75,23.1,3.94,34.62,5.27,8.68,1,17.45,1.47,26.11,2.63-7.31-.98-14.62-1.96-21.93-2.95,10.2,1.38,20.78,3.8,31.18,3.83,8.63.03,17.48-1.18,25.77-3.24,4.11-1.02,6.96-2.7,11.48-4.6,1.07-.45,8.38-2.83,11.41-5.04,12.4-7.33,22.26-17.2,29.6-29.6,7.46-12.87,11.22-26.75,11.26-41.64,0-29.27-15.83-56.31-40.86-71.24-3.78-2.25-7.27-4.88-11.25-6.8-5.74-2.78-16.13-7.68-24.16-9.74-2.73-.7-5.39-1.42-8.06-2.33-8.83-3.03-17.26-7.03-26.02-10.21s-17.67-4.54-26.36-7.24-17.76-6.02-26.71-8.82c-36.54-11.41-72.07-25.92-107.66-39.96-20.51-8.09-40.92-16.41-61.23-24.98l19.71,8.32c-24.52-10.36-49.11-20.73-72.94-32.61-23.03-11.48-45.37-24.29-67.22-37.88-12.61-7.84-25.03-15.89-36.81-24.95,5.57,4.3,11.13,8.6,16.7,12.9-5.66-4.38-11.24-8.9-16.74-13.48-5.05-4.21-10.39-8.5-14.52-13.66,4.3,5.57,8.6,11.13,12.9,16.7-.52-.68-1.01-1.36-1.37-2.14l8.32,19.71c-.1-.24-.17-.46-.22-.71.98,7.31,1.96,14.62,2.95,21.93-.02-.13-.02-.26,0-.39-.98,7.31-1.96,14.62-2.95,21.93l.04-.17-8.32,19.71.07-.15c-31.06,12.64-62.11,25.28-93.17,37.91,3.28.96,6.6,1.71,9.98,2.23,10.01,1.54,20.09,3.07,30.2,3.87,6.57.52,13.09,1.32,19.66,1.86s13.72,1.46,20.58,2.25,14.07,1,21.05,1.87l-21.93-2.95c1.71.28,3.4.63,5.1.92,7.12,1.25,15.88,2.39,23.07,3.12.98.1,1.93.18,2.92.2,3.52.05,7-.39,10.52.03l-21.93-2.95c10.1,1.56,20.2,3.63,30.41,4.23,3.39.2,6.78.23,10.16.62l-21.93-2.95c14.07,1.94,27.93,4.42,41.71,7.87,13.71,3.44,27.26,7.53,41.02,10.73,13.81,3.21,27.48,7.02,41.21,10.57s27.64,7.06,41.3,11.14c27.18,8.11,53.64,18.42,80.32,27.97,27.02,9.67,54.12,19.05,80.71,29.86,14.52,5.9,28.98,11.97,43.61,17.62,14.3,5.52,29.15,9.71,43.28,15.62-6.57-2.77-13.14-5.54-19.71-8.32,6.67,2.87,13.12,6.04,19.83,8.87,4.35,1.83,9.57,4.5,14.45,5.76.88.23,1.76.37,2.66.54,7.31.98,14.62,1.96,21.93,2.95.73.1,1.46.16,2.19.19l21.93-2.95c10.74-2.55,20.09-7.47,28.06-14.77,6.2-3.67,11.13-8.6,14.8-14.8,7.29-7.97,12.21-17.32,14.77-28.06.98-7.31,1.96-14.62,2.95-21.93-.98-7.31-1.96-14.62-2.95-21.93-2.55-10.74-7.47-20.09-14.77-28.06-5.82-8.98-13.53-16.06-23.15-21.25-.84-.42-1.52-.86-2.26-1.43l16.7,12.9c-6.63-5.54-13.35-11.02-20.52-15.84-1.74-1.17-3.52-2.24-5.19-3.51l16.7,12.9c-1.1-.93-2.05-1.91-2.97-3.02l12.9,16.7c-5.78-7.54-10.52-16.21-17.81-22.33-2.79-2.34-5.36-4.72-7.76-7.48-4.67-5.35-9.21-10.94-14.08-16.1-4.59-4.86-10.1-8.72-14.74-13.52-4.89-5.07-9.77-9.83-15.31-14.22-28.47-22.58-56.21-46.65-88.32-64-20.47-11.06-42.47-19.38-63.85-28.4,6.57,2.77,13.14,5.54,19.71,8.32-11.05-4.67-21.9-9.73-32.74-14.88-17.03-8.09-34.4-15.28-51.77-22.61,6.57,2.77,13.14,5.54,19.71,8.32-12.51-5.28-24.72-10.97-36.92-16.91-11.96-5.83-24.2-11.06-36.12-16.99s-24.61-12.12-37.02-17.98-24.14-12.22-36.22-18.33c-13.16-6.66-25.97-14.05-39.31-20.36-9.47-6.03-19.69-9.29-30.67-9.79-10.97-2.46-21.93-1.96-32.9,1.47-10.74,2.55-20.09,7.47-28.06,14.77-8.98,5.82-16.06,13.53-21.25,23.15-2.77,6.57-5.54,13.14-8.32,19.71-3.93,14.62-3.93,29.24,0,43.86,2.77,6.57,5.54,13.14,8.32,19.71,7.33,12.4,17.2,22.26,29.6,29.6h0Z"/>
  </g>
  <g id="Layer_1" data-name="Layer 1">
    <path class="cls-1" d="m644.41,292.3c-.17-1.71-1.58-3.31-2.4-4.76-2.21-3.93-4.11-7.96-5.91-12.08-6.89-15.77-13.41-31.81-24.05-45.52-13.5-17.39-31.78-29.82-51.24-39.62-13-6.55-26.32-12.14-39.89-17.35-13.53-5.19-26.86-10.21-41.28-12.27-26.69-3.8-53.87-3.57-80.73-1.82-14.37.94-28.96,1.72-43.09,4.66-13.62,2.83-27.57,6.47-40.83,10.63-26.95,8.47-52.44,21.31-75.05,38.21s-44.89,35.68-57.57,61.04c-11.84,23.68-16.99,50.65-18.62,76.9-2.11,33.84,4.1,68.65,17.52,99.8,10.85,25.17,24.62,50.98,42.04,72.28,8.45,10.34,18,19.56,29.02,27.12,16.42,11.26,34.66,20.27,52.35,29.35,16.2,8.31,32.6,15.89,50.12,21s33.92,7.66,51.26,9.23c45.31,4.1,90.28,6.47,135.56.9,14.83-1.82,29.65-4.64,43.82-9.44,12.9-4.37,25.55-9.98,38.05-15.38,11.37-4.92,22.17-10.35,31.89-18.12,8.46-6.76,15.1-14.85,21.7-23.37,15.56-20.08,29.4-41.81,34.91-66.86,5.54-25.18,6.55-51.14,3.67-76.74-3.59-31.9-11.02-64.11-27.34-92.09-6.34-10.86-13.04-21.77-20.31-32.04-9.38-13.25-21.48-24.03-32.49-35.86"/>
    <path class="cls-1" d="m339.97,252.3c-.37,1.93-2.35,3.77-3.29,5.41-1.59,2.77-2.99,5.69-4.45,8.53-4.55,8.91-8.01,19.52-10.12,29.32-3.44,16.02-2.15,32.67-2.15,48.97"/>
    <path class="cls-1" d="m515.53,261.19c-6.18,6.25-11.36,13.34-15.23,21.28-8.46,17.34-16,35.55-20.51,54.3-3.78,15.7-4.25,31.43-4.3,47.51-.02,5.36-.66,11.28,1.1,16.44.55,1.59,2.22,3.27,2.28,4.91"/>
    <path class="cls-1" d="m301.08,478.96c1.95,3.82,3.8,7.62,6.53,10.96,3.82,4.69,8.67,8.84,12.95,13.09,15.51,15.38,31.81,30.47,52.01,39.36,21.89,9.63,46.58,13.95,70.45,13.32,10.89-.29,20.87-1.9,30.89-6.24,13.9-6.02,25.95-15.13,38.28-23.83"/>
    <path class="cls-1" d="m311.08,680.07c-8.54,23.77-18.5,47.28-28.76,70.34-13.45,30.21-33.01,56.85-45.68,87.44"/>
    <path class="cls-1" d="m633.3,673.41c6.73,22.99,11.33,46.79,15.49,70.35,7.94,45.03,22.29,88.69,33.4,132.98"/>
    <path class="cls-1" d="m739.97,561.19c8.82-.19,17.72,1.7,26.32,3.39,28.14,5.54,56.04,13.47,83.68,21.05"/>
    <path class="cls-1" d="m761.07,330.07c1.33-1.51,3.44-1.07,5.25-1.2,9.11-.64,18.18-1.53,27.28-2.33,45.38-3.98,90.85-5.11,136.36-6.47"/>
    <path class="cls-1" d="m654.41,158.96c.84-2.65,2.36-4.92,4.56-6.8,5.13-6.05,10.45-11.92,15.98-17.6,22.96-24.37,47.05-47.38,71.68-70.04"/>
    <path class="cls-1" d="m321.08,88.96c3.24-8.32,5.91-16.75,11.78-23.66,6.27-7.39,12.61-14.57,18.48-22.32,10.45-13.81,20.58-27.85,30.85-41.8"/>
    <path class="cls-1" d="m88.86,105.63c-2.41.03-4.59-7.21-5.66-9.04-6.58-11.19-14.23-20.52-23.22-29.85"/>
    <path class="cls-1" d="m101.08,365.63c-9.72,5.49-20.14,9.31-29.75,14.9-23.87,13.89-47.03,29.06-70.25,43.99"/>
    <path class="cls-1" d="m162.19,578.96c-.66,2.37-.84,4.55-2.37,6.49-1.74,1.4-3.49,2.79-5.24,4.18-3.48,2.78-6.99,5.5-10.55,8.18-20.27,14.08-42.77,25.32-64.06,37.82"/>
  </g>
</svg>